0
SECTION
2
HEADER
9
$INSUNITS
70
4
9
$ACADVER
1
AC1014
9
$HANDSEED
5
FFFF
0
ENDSEC
0
SECTION
2
TABLES
0
TABLE
2
VPORT
5
8
100
AcDbSymbolTable
0
ENDTAB
0
TABLE
2
LTYPE
5
5
100
AcDbSymbolTable
0
LTYPE
5
14
100
AcDbSymbolTableRecord
100
AcDbLinetypeTableRecord
2
BYBLOCK
70
0
0
LTYPE
5
15
100
AcDbSymbolTableRecord
100
AcDbLinetypeTableRecord
2
BYLAYER
70
0
0
ENDTAB
0
TABLE
2
LAYER
5
2
100
AcDbSymbolTable
70
2
0
LAYER
5
50
100
AcDbSymbolTableRecord
100
AcDbLayerTableRecord
2
0
70
0
6
CONTINUOUS
0
ENDTAB
0
TABLE
2
STYLE
5
3
100
AcDbSymbolTable
70
1
0
STYLE
5
11
100
AcDbSymbolTableRecord
100
AcDbTextStyleTableRecord
2
STANDARD
70
0
0
ENDTAB
0
TABLE
2
VIEW
5
6
100
AcDbSymbolTable
70
0
0
ENDTAB
0
TABLE
2
UCS
5
7
100
AcDbSymbolTable
70
0
0
ENDTAB
0
TABLE
2
APPID
5
9
100
AcDbSymbolTable
70
2
0
APPID
5
12
100
AcDbSymbolTableRecord
100
AcDbRegAppTableRecord
2
ACAD
70
0
0
ENDTAB
0
TABLE
2
DIMSTYLE
5
A
100
AcDbSymbolTable
70
1
0
ENDTAB
0
TABLE
2
BLOCK_RECORD
5
1
100
AcDbSymbolTable
70
1
0
BLOCK_RECORD
5
1F
100
AcDbSymbolTableRecord
100
AcDbBlockTableRecord
2
*MODEL_SPACE
0
BLOCK_RECORD
5
1B
100
AcDbSymbolTableRecord
100
AcDbBlockTableRecord
2
*PAPER_SPACE
0
ENDTAB
0
ENDSEC
0
SECTION
2
BLOCKS
0
BLOCK
5
20
100
AcDbEntity
100
AcDbBlockBegin
2
*MODEL_SPACE
0
ENDBLK
5
21
100
AcDbEntity
100
AcDbBlockEnd
0
BLOCK
5
1C
100
AcDbEntity
100
AcDbBlockBegin
2
*PAPER_SPACE
0
ENDBLK
5
1D
100
AcDbEntity
100
AcDbBlockEnd
0
ENDSEC
0
SECTION
2
ENTITIES
0
LINE
5
100
100
AcDbEntity
8
0
100
AcDbLine
10
126.1769421663427
20
-6.0852777774456808
30
0
11
112.23021639305826
21
-7.3054581759129018
31
0
0
LINE
5
101
100
AcDbEntity
8
0
100
AcDbLine
10
112.23021639305826
20
-7.3054581759129018
30
0
11
111.01003599459104
21
6.6412675973715434
31
0
0
LINE
5
102
100
AcDbEntity
8
0
100
AcDbLine
10
124.95676176787548
20
7.8614479958387573
30
0
11
126.1769421663427
21
-6.0852777774456808
31
0
0
LINE
5
103
100
AcDbEntity
8
0
100
AcDbLine
10
111.01003599459104
20
6.6412675973715443
30
0
11
124.95676176787548
21
7.8614479958387573
31
0
0
LINE
5
104
100
AcDbEntity
8
0
100
AcDbLine
10
107.19943316769491
20
-7.7455946767885671
30
0
11
93.252707394410464
21
-8.9657750752557703
31
0
0
LINE
5
105
100
AcDbEntity
8
0
100
AcDbLine
10
93.252707394410464
20
-8.9657750752557703
30
0
11
92.032526995943272
21
4.9809506980286571
31
0
0
LINE
5
106
100
AcDbEntity
8
0
100
AcDbLine
10
105.97925276922771
20
6.201131096495871
30
0
11
107.19943316769491
21
-7.7455946767885671
31
0
0
LINE
5
107
100
AcDbEntity
8
0
100
AcDbLine
10
92.032526995943272
20
4.9809506980286571
30
0
11
105.97925276922771
21
6.201131096495871
31
0
0
LINE
5
108
100
AcDbEntity
8
0
100
AcDbLine
10
88.221924169047142
20
-9.4059115761314533
30
0
11
74.2751983957627
21
-10.626091974598657
31
0
0
LINE
5
109
100
AcDbEntity
8
0
100
AcDbLine
10
74.2751983957627
20
-10.626091974598657
30
0
11
73.055017997295508
21
3.3206337986857726
31
0
0
LINE
5
110
100
AcDbEntity
8
0
100
AcDbLine
10
87.001743770579935
20
4.5408141971529838
30
0
11
88.221924169047142
21
-9.4059115761314533
31
0
0
LINE
5
111
100
AcDbEntity
8
0
100
AcDbLine
10
73.055017997295508
20
3.3206337986857721
30
0
11
87.001743770579935
21
4.5408141971529838
31
0
0
LINE
5
112
100
AcDbEntity
8
0
100
AcDbLine
10
69.244415170399407
20
-11.066228475474338
30
0
11
55.297689397114965
21
-12.286408873941532
31
0
0
LINE
5
113
100
AcDbEntity
8
0
100
AcDbLine
10
55.297689397114965
20
-12.286408873941532
30
0
11
54.077508998647758
21
1.6603168993428885
31
0
0
LINE
5
114
100
AcDbEntity
8
0
100
AcDbLine
10
68.024234771932186
20
2.8804972978100993
30
0
11
69.244415170399407
21
-11.066228475474338
31
0
0
LINE
5
115
100
AcDbEntity
8
0
100
AcDbLine
10
54.077508998647758
20
1.6603168993428876
30
0
11
68.024234771932186
21
2.8804972978100993
31
0
0
LINE
5
116
100
AcDbEntity
8
0
100
AcDbLine
10
50.266906171751657
20
-12.726545374817224
30
0
11
36.320180398467215
21
-13.946725773284436
31
0
0
LINE
5
117
100
AcDbEntity
8
0
100
AcDbLine
10
36.320180398467215
20
-13.946725773284436
30
0
11
35.100000000000001
21
0
31
0
0
LINE
5
118
100
AcDbEntity
8
0
100
AcDbLine
10
49.046725773284443
20
1.2201803984672144
30
0
11
50.266906171751657
21
-12.726545374817224
31
0
0
LINE
5
119
100
AcDbEntity
8
0
100
AcDbLine
10
35.100000000000001
20
0
30
0
11
49.046725773284443
21
1.2201803984672144
31
0
0
LINE
5
120
100
AcDbEntity
8
0
100
AcDbLine
10
26.050000000000001
20
-14.000000000000002
30
0
11
12.050000000000001
21
-14.000000000000002
31
0
0
LINE
5
121
100
AcDbEntity
8
0
100
AcDbLine
10
12.050000000000001
20
0
30
0
11
12.050000000000001
21
-14.000000000000002
31
0
0
LINE
5
122
100
AcDbEntity
8
0
100
AcDbLine
10
26.050000000000001
20
0
30
0
11
26.050000000000001
21
-14.000000000000002
31
0
0
LINE
5
123
100
AcDbEntity
8
0
100
AcDbLine
10
12.050000000000001
20
0
30
0
11
26.050000000000001
21
0
31
0
0
LINE
5
124
100
AcDbEntity
8
0
100
AcDbLine
10
7.0000000000000009
20
-14.000000000000002
30
0
11
7.0000000000000009
21
0
31
0
0
LINE
5
125
100
AcDbEntity
8
0
100
AcDbLine
10
-7.0000000000000009
20
-14.000000000000002
30
0
11
7.0000000000000009
21
-14.000000000000002
31
0
0
LINE
5
126
100
AcDbEntity
8
0
100
AcDbLine
10
-7.0000000000000009
20
0
30
0
11
-7.0000000000000009
21
-14.000000000000002
31
0
0
LINE
5
127
100
AcDbEntity
8
0
100
AcDbLine
10
0
20
0
30
0
11
-7.0000000000000009
21
0
31
0
0
LINE
5
128
100
AcDbEntity
8
0
100
AcDbLine
10
0
20
0
30
0
11
7.0000000000000009
21
0
31
0
0
LINE
5
129
100
AcDbEntity
8
0
100
AcDbLine
10
-26.050000000000004
20
-14.000000000000002
30
0
11
-26.050000000000004
21
0
31
0
0
LINE
5
130
100
AcDbEntity
8
0
100
AcDbLine
10
-12.050000000000001
20
-14.000000000000002
30
0
11
-26.050000000000004
21
-14.000000000000002
31
0
0
LINE
5
131
100
AcDbEntity
8
0
100
AcDbLine
10
-12.050000000000001
20
0
30
0
11
-12.050000000000001
21
-14.000000000000002
31
0
0
LINE
5
132
100
AcDbEntity
8
0
100
AcDbLine
10
-12.050000000000001
20
0
30
0
11
-26.050000000000004
21
0
31
0
0
LINE
5
133
100
AcDbEntity
8
0
100
AcDbLine
10
-50.266906171751657
20
-12.726545374817224
30
0
11
-36.320180398467215
21
-13.946725773284436
31
0
0
LINE
5
134
100
AcDbEntity
8
0
100
AcDbLine
10
-36.320180398467215
20
-13.946725773284436
30
0
11
-35.100000000000009
21
0
31
0
0
LINE
5
135
100
AcDbEntity
8
0
100
AcDbLine
10
-49.046725773284443
20
1.220180398467215
30
0
11
-50.266906171751657
21
-12.726545374817224
31
0
0
LINE
5
136
100
AcDbEntity
8
0
100
AcDbLine
10
-35.100000000000009
20
0
30
0
11
-49.046725773284443
21
1.220180398467215
31
0
0
LINE
5
137
100
AcDbEntity
8
0
100
AcDbLine
10
-55.297689397114979
20
-12.28640887394155
30
0
11
-69.244415170399407
21
-11.06622847547434
31
0
0
LINE
5
138
100
AcDbEntity
8
0
100
AcDbLine
10
-69.244415170399407
20
-11.06622847547434
30
0
11
-68.024234771932186
21
2.8804972978100984
31
0
0
LINE
5
139
100
AcDbEntity
8
0
100
AcDbLine
10
-54.077508998647758
20
1.6603168993428881
30
0
11
-55.297689397114979
21
-12.28640887394155
31
0
0
LINE
5
140
100
AcDbEntity
8
0
100
AcDbLine
10
-68.024234771932186
20
2.8804972978100984
30
0
11
-54.077508998647758
21
1.6603168993428881
31
0
0
LINE
5
141
100
AcDbEntity
8
0
100
AcDbLine
10
-88.221924169047156
20
-9.4059115761314427
30
0
11
-74.275198395762729
21
-10.626091974598664
31
0
0
LINE
5
142
100
AcDbEntity
8
0
100
AcDbLine
10
-74.275198395762729
20
-10.626091974598664
30
0
11
-73.055017997295508
21
3.3206337986857748
31
0
0
LINE
5
143
100
AcDbEntity
8
0
100
AcDbLine
10
-87.001743770579935
20
4.5408141971529954
30
0
11
-88.221924169047156
21
-9.4059115761314427
31
0
0
LINE
5
144
100
AcDbEntity
8
0
100
AcDbLine
10
-73.055017997295508
20
3.3206337986857744
30
0
11
-87.001743770579935
21
4.5408141971529954
31
0
0
LINE
5
145
100
AcDbEntity
8
0
100
AcDbLine
10
-107.19943316769493
20
-7.7455946767885457
30
0
11
-93.252707394410493
21
-8.9657750752557668
31
0
0
LINE
5
146
100
AcDbEntity
8
0
100
AcDbLine
10
-93.252707394410493
20
-8.9657750752557668
30
0
11
-92.032526995943272
21
4.9809506980286722
31
0
0
LINE
5
147
100
AcDbEntity
8
0
100
AcDbLine
10
-105.97925276922771
20
6.2011310964958932
30
0
11
-107.19943316769493
21
-7.7455946767885457
31
0
0
LINE
5
148
100
AcDbEntity
8
0
100
AcDbLine
10
-92.032526995943272
20
4.9809506980286722
30
0
11
-105.97925276922771
21
6.2011310964958932
31
0
0
LINE
5
149
100
AcDbEntity
8
0
100
AcDbLine
10
-126.1769421663427
20
-6.0852777774456479
30
0
11
-112.23021639305826
21
-7.3054581759128689
31
0
0
LINE
5
150
100
AcDbEntity
8
0
100
AcDbLine
10
-112.23021639305826
20
-7.3054581759128689
30
0
11
-111.01003599459104
21
6.64126759737157
31
0
0
LINE
5
151
100
AcDbEntity
8
0
100
AcDbLine
10
-124.95676176787548
20
7.8614479958387911
30
0
11
-126.1769421663427
21
-6.0852777774456479
31
0
0
LINE
5
152
100
AcDbEntity
8
0
100
AcDbLine
10
-111.01003599459104
20
6.64126759737157
30
0
11
-124.95676176787548
21
7.8614479958387911
31
0
0
LINE
5
153
100
AcDbEntity
8
0
100
AcDbLine
10
-113.89053329240114
20
-26.282967174560625
30
0
11
-127.8372590656856
21
-25.062786776093404
31
0
0
LINE
5
154
100
AcDbEntity
8
0
100
AcDbLine
10
-126.61707866721838
20
-11.116061002808964
30
0
11
-127.8372590656856
21
-25.062786776093404
31
0
0
LINE
5
155
100
AcDbEntity
8
0
100
AcDbLine
10
-112.67035289393392
20
-12.336241401276185
30
0
11
-113.89053329240114
21
-26.282967174560625
31
0
0
LINE
5
156
100
AcDbEntity
8
0
100
AcDbLine
10
-126.61707866721838
20
-11.116061002808964
30
0
11
-112.67035289393392
21
-12.336241401276185
31
0
0
LINE
5
157
100
AcDbEntity
8
0
100
AcDbLine
10
-94.913024293753381
20
-27.94328407390352
30
0
11
-108.85975006703782
21
-26.723103675436299
31
0
0
LINE
5
158
100
AcDbEntity
8
0
100
AcDbLine
10
-108.85975006703782
20
-26.723103675436299
30
0
11
-107.6395696685706
21
-12.776377902151859
31
0
0
LINE
5
159
100
AcDbEntity
8
0
100
AcDbLine
10
-93.692843895286174
20
-13.996558300619082
30
0
11
-94.913024293753381
21
-27.94328407390352
31
0
0
LINE
5
160
100
AcDbEntity
8
0
100
AcDbLine
10
-107.6395696685706
20
-12.776377902151859
30
0
11
-93.692843895286174
21
-13.996558300619082
31
0
0
LINE
5
161
100
AcDbEntity
8
0
100
AcDbLine
10
-75.935515295105617
20
-29.603600973246415
30
0
11
-89.882241068390059
21
-28.383420574779194
31
0
0
LINE
5
162
100
AcDbEntity
8
0
100
AcDbLine
10
-89.882241068390059
20
-28.383420574779194
30
0
11
-88.662060669922838
21
-14.436694801494754
31
0
0
LINE
5
163
100
AcDbEntity
8
0
100
AcDbLine
10
-74.715334896638396
20
-15.656875199961977
30
0
11
-75.935515295105617
21
-29.603600973246415
31
0
0
LINE
5
164
100
AcDbEntity
8
0
100
AcDbLine
10
-88.662060669922838
20
-14.436694801494754
30
0
11
-74.715334896638396
21
-15.656875199961977
31
0
0
LINE
5
165
100
AcDbEntity
8
0
100
AcDbLine
10
-56.958006296457853
20
-31.26391787258931
30
0
11
-70.904732069742295
21
-30.043737474122089
31
0
0
LINE
5
166
100
AcDbEntity
8
0
100
AcDbLine
10
-70.904732069742295
20
-30.043737474122089
30
0
11
-69.684551671275074
21
-16.097011700837648
31
0
0
LINE
5
167
100
AcDbEntity
8
0
100
AcDbLine
10
-55.737825897990646
20
-17.317192099304869
30
0
11
-56.958006296457853
21
-31.26391787258931
31
0
0
LINE
5
168
100
AcDbEntity
8
0
100
AcDbLine
10
-69.684551671275074
20
-16.097011700837648
30
0
11
-55.737825897990646
21
-17.317192099304869
31
0
0
LINE
5
169
100
AcDbEntity
8
0
100
AcDbLine
10
-51.927223071094545
20
-31.704054373464974
30
0
11
-37.980497297810103
21
-32.924234771932191
31
0
0
LINE
5
170
100
AcDbEntity
8
0
100
AcDbLine
10
-37.980497297810103
20
-32.924234771932191
30
0
11
-36.760316899342897
21
-18.97750899864775
31
0
0
LINE
5
171
100
AcDbEntity
8
0
100
AcDbLine
10
-50.707042672627331
20
-17.757328600180532
30
0
11
-51.927223071094545
21
-31.704054373464974
31
0
0
LINE
5
172
100
AcDbEntity
8
0
100
AcDbLine
10
-36.760316899342897
20
-18.97750899864775
30
0
11
-50.707042672627331
21
-17.757328600180532
31
0
0
LINE
5
173
100
AcDbEntity
8
0
100
AcDbLine
10
-26.050000000000004
20
-33.050000000000004
30
0
11
-12.050000000000002
21
-33.050000000000004
31
0
0
LINE
5
174
100
AcDbEntity
8
0
100
AcDbLine
10
-12.050000000000002
20
-33.050000000000004
30
0
11
-12.050000000000001
21
-19.050000000000004
31
0
0
LINE
5
175
100
AcDbEntity
8
0
100
AcDbLine
10
-26.050000000000004
20
-19.050000000000004
30
0
11
-26.050000000000004
21
-33.050000000000004
31
0
0
LINE
5
176
100
AcDbEntity
8
0
100
AcDbLine
10
-12.050000000000001
20
-19.050000000000004
30
0
11
-26.050000000000004
21
-19.050000000000004
31
0
0
LINE
5
177
100
AcDbEntity
8
0
100
AcDbLine
10
-7.0000001043081284
20
-33.050000000000004
30
0
11
6.9999998956918734
21
-33.050000000000004
31
0
0
LINE
5
178
100
AcDbEntity
8
0
100
AcDbLine
10
6.9999998956918734
20
-33.050000000000004
30
0
11
7.0000000000000009
21
-19.050000000000004
31
0
0
LINE
5
179
100
AcDbEntity
8
0
100
AcDbLine
10
-7.0000001043081284
20
-19.050000000000004
30
0
11
-7.0000001043081284
21
-33.050000000000004
31
0
0
LINE
5
180
100
AcDbEntity
8
0
100
AcDbLine
10
7.0000000000000009
20
-19.050000000000004
30
0
11
-7.0000001043081292
21
-19.050000000000004
31
0
0
LINE
5
181
100
AcDbEntity
8
0
100
AcDbLine
10
26.050000000000004
20
-33.050000000000004
30
0
11
12.050000000000002
21
-33.050000000000004
31
0
0
LINE
5
182
100
AcDbEntity
8
0
100
AcDbLine
10
12.050000000000002
20
-33.050000000000004
30
0
11
12.050000000000001
21
-19.050000000000001
31
0
0
LINE
5
183
100
AcDbEntity
8
0
100
AcDbLine
10
26.050000000000004
20
-19.050000000000001
30
0
11
26.050000000000004
21
-33.050000000000004
31
0
0
LINE
5
184
100
AcDbEntity
8
0
100
AcDbLine
10
12.050000000000001
20
-19.050000000000001
30
0
11
26.050000000000004
21
-19.050000000000001
31
0
0
LINE
5
185
100
AcDbEntity
8
0
100
AcDbLine
10
51.927223071094545
20
-31.704054373464974
30
0
11
37.980497297810103
21
-32.924234771932191
31
0
0
LINE
5
186
100
AcDbEntity
8
0
100
AcDbLine
10
36.760316899342897
20
-18.977508998647753
30
0
11
37.980497297810103
21
-32.924234771932191
31
0
0
LINE
5
187
100
AcDbEntity
8
0
100
AcDbLine
10
50.707042672627331
20
-17.757328600180536
30
0
11
51.927223071094545
21
-31.704054373464974
31
0
0
LINE
5
188
100
AcDbEntity
8
0
100
AcDbLine
10
36.760316899342897
20
-18.977508998647753
30
0
11
50.707042672627331
21
-17.757328600180536
31
0
0
LINE
5
189
100
AcDbEntity
8
0
100
AcDbLine
10
56.958006296457867
20
-31.263917872589303
30
0
11
70.904732069742295
21
-30.043737474122093
31
0
0
LINE
5
190
100
AcDbEntity
8
0
100
AcDbLine
10
70.904732069742295
20
-30.043737474122093
30
0
11
69.684551671275088
21
-16.097011700837655
31
0
0
LINE
5
191
100
AcDbEntity
8
0
100
AcDbLine
10
55.737825897990646
20
-17.317192099304865
30
0
11
56.958006296457867
21
-31.263917872589303
31
0
0
LINE
5
192
100
AcDbEntity
8
0
100
AcDbLine
10
69.684551671275088
20
-16.097011700837655
30
0
11
55.737825897990646
21
-17.317192099304865
31
0
0
LINE
5
193
100
AcDbEntity
8
0
100
AcDbLine
10
75.935515295105617
20
-29.603600973246422
30
0
11
89.882241068390059
21
-28.383420574779208
31
0
0
LINE
5
194
100
AcDbEntity
8
0
100
AcDbLine
10
89.882241068390059
20
-28.383420574779208
30
0
11
88.662060669922852
21
-14.43669480149477
31
0
0
LINE
5
195
100
AcDbEntity
8
0
100
AcDbLine
10
74.715334896638396
20
-15.656875199961981
30
0
11
75.935515295105617
21
-29.603600973246422
31
0
0
LINE
5
196
100
AcDbEntity
8
0
100
AcDbLine
10
88.662060669922852
20
-14.43669480149477
30
0
11
74.715334896638396
21
-15.656875199961981
31
0
0
LINE
5
197
100
AcDbEntity
8
0
100
AcDbLine
10
94.913024293753381
20
-27.943284073903534
30
0
11
108.85975006703782
21
-26.723103675436334
31
0
0
LINE
5
198
100
AcDbEntity
8
0
100
AcDbLine
10
108.85975006703782
20
-26.723103675436334
30
0
11
107.6395696685706
21
-12.776377902151895
31
0
0
LINE
5
199
100
AcDbEntity
8
0
100
AcDbLine
10
93.692843895286174
20
-13.9965583006191
30
0
11
94.913024293753381
21
-27.943284073903534
31
0
0
LINE
5
200
100
AcDbEntity
8
0
100
AcDbLine
10
107.6395696685706
20
-12.776377902151895
30
0
11
93.692843895286174
21
-13.9965583006191
31
0
0
LINE
5
201
100
AcDbEntity
8
0
100
AcDbLine
10
113.89053329240113
20
-26.28296717456066
30
0
11
127.83725906568557
21
-25.062786776093439
31
0
0
LINE
5
202
100
AcDbEntity
8
0
100
AcDbLine
10
127.83725906568557
20
-25.062786776093439
30
0
11
126.61707866721838
21
-11.116061002808999
31
0
0
LINE
5
203
100
AcDbEntity
8
0
100
AcDbLine
10
112.67035289393392
20
-12.336241401276219
30
0
11
113.89053329240113
21
-26.28296717456066
31
0
0
LINE
5
204
100
AcDbEntity
8
0
100
AcDbLine
10
126.61707866721838
20
-11.116061002808999
30
0
11
112.67035289393392
21
-12.336241401276219
31
0
0
LINE
5
205
100
AcDbEntity
8
0
100
AcDbLine
10
129.49757596502846
20
-44.040295774741182
30
0
11
115.550850191744
21
-45.260476173208403
31
0
0
LINE
5
206
100
AcDbEntity
8
0
100
AcDbLine
10
115.550850191744
20
-45.260476173208403
30
0
11
114.3306697932768
21
-31.313750399923961
31
0
0
LINE
5
207
100
AcDbEntity
8
0
100
AcDbLine
10
128.27739556656124
20
-30.09357000145674
30
0
11
129.49757596502846
21
-44.040295774741182
31
0
0
LINE
5
208
100
AcDbEntity
8
0
100
AcDbLine
10
114.3306697932768
20
-31.313750399923961
30
0
11
128.27739556656124
21
-30.09357000145674
31
0
0
LINE
5
209
100
AcDbEntity
8
0
100
AcDbLine
10
96.573341193096255
20
-46.920793072551291
30
0
11
110.52006696638071
21
-45.70061267408407
31
0
0
LINE
5
210
100
AcDbEntity
8
0
100
AcDbLine
10
110.52006696638071
20
-45.70061267408407
30
0
11
109.29988656791349
21
-31.753886900799635
31
0
0
LINE
5
211
100
AcDbEntity
8
0
100
AcDbLine
10
95.353160794629034
20
-32.974067299266856
30
0
11
96.573341193096255
21
-46.920793072551291
31
0
0
LINE
5
212
100
AcDbEntity
8
0
100
AcDbLine
10
109.29988656791349
20
-31.753886900799635
30
0
11
95.353160794629034
21
-32.974067299266856
31
0
0
LINE
5
213
100
AcDbEntity
8
0
100
AcDbLine
10
91.542557967732918
20
-47.360929573426958
30
0
11
77.595832194448477
21
-48.581109971894172
31
0
0
LINE
5
214
100
AcDbEntity
8
0
100
AcDbLine
10
77.595832194448477
20
-48.581109971894172
30
0
11
76.375651795981284
21
-34.634384198609737
31
0
0
LINE
5
215
100
AcDbEntity
8
0
100
AcDbLine
10
90.322377569265711
20
-33.414203800142523
30
0
11
91.542557967732918
21
-47.360929573426958
31
0
0
LINE
5
216
100
AcDbEntity
8
0
100
AcDbLine
10
76.375651795981284
20
-34.634384198609737
30
0
11
90.322377569265711
21
-33.414203800142523
31
0
0
LINE
5
217
100
AcDbEntity
8
0
100
AcDbLine
10
58.618323195800741
20
-50.24142687123706
30
0
11
72.565048969085183
21
-49.021246472769846
31
0
0
LINE
5
218
100
AcDbEntity
8
0
100
AcDbLine
10
72.565048969085183
20
-49.021246472769846
30
0
11
71.344868570617962
21
-35.074520699485412
31
0
0
LINE
5
219
100
AcDbEntity
8
0
100
AcDbLine
10
57.398142797333527
20
-36.294701097952625
30
0
11
58.618323195800741
21
-50.24142687123706
31
0
0
LINE
5
220
100
AcDbEntity
8
0
100
AcDbLine
10
71.344868570617962
20
-35.074520699485412
30
0
11
57.398142797333527
21
-36.294701097952625
31
0
0
LINE
5
221
100
AcDbEntity
8
0
100
AcDbLine
10
39.640814197152991
20
-51.901743770579941
30
0
11
53.587539970437426
21
-50.681563372112734
31
0
0
LINE
5
222
100
AcDbEntity
8
0
100
AcDbLine
10
53.587539970437426
20
-50.681563372112734
30
0
11
52.367359571970212
21
-36.734837598828292
31
0
0
LINE
5
223
100
AcDbEntity
8
0
100
AcDbLine
10
38.420633798685778
20
-37.955017997295506
30
0
11
39.640814197152991
21
-51.901743770579941
31
0
0
LINE
5
224
100
AcDbEntity
8
0
100
AcDbLine
10
68.219186965175311
20
-77.222760487426271
30
0
11
55.06349027417258
21
-82.011042493985613
31
0
0
LINE
5
225
100
AcDbEntity
8
0
100
AcDbLine
10
55.06349027417258
20
-82.011042493985613
30
0
11
50.275208267613245
21
-68.855345802982882
31
0
0
LINE
5
226
100
AcDbEntity
8
0
100
AcDbLine
10
63.430904958615969
20
-64.067063796423554
30
0
11
68.219186965175311
21
-77.222760487426271
31
0
0
LINE
5
227
100
AcDbEntity
8
0
100
AcDbLine
10
50.275208267613245
20
-68.855345802982882
30
0
11
63.430904958615969
21
-64.067063796423554
31
0
0
LINE
5
228
100
AcDbEntity
8
0
100
AcDbLine
10
91.498021800590465
20
-72.214061464119339
30
0
11
77.710713258419531
21
-74.645135951456297
31
0
0
LINE
5
229
100
AcDbEntity
8
0
100
AcDbLine
10
77.710713258419531
20
-74.645135951456297
30
0
11
75.279638771082531
21
-60.85782740928537
31
0
0
LINE
5
230
100
AcDbEntity
8
0
100
AcDbLine
10
89.066947313253451
20
-58.426752921948371
30
0
11
91.498021800590465
21
-72.214061464119339
31
0
0
LINE
5
231
100
AcDbEntity
8
0
100
AcDbLine
10
75.279638771082531
20
-60.85782740928537
30
0
11
89.066947313253451
21
-58.426752921948371
31
0
0
LINE
5
232
100
AcDbEntity
8
0
100
AcDbLine
10
112.65756155726703
20
-70.132287644784142
30
0
11
98.710835783982574
21
-71.352468043251363
31
0
0
LINE
5
233
100
AcDbEntity
8
0
100
AcDbLine
10
98.710835783982574
20
-71.352468043251363
30
0
11
97.490655385515353
21
-57.405742269966922
31
0
0
LINE
5
234
100
AcDbEntity
8
0
100
AcDbLine
10
111.43738115879981
20
-56.185561871499701
30
0
11
112.65756155726703
21
-70.132287644784142
31
0
0
LINE
5
235
100
AcDbEntity
8
0
100
AcDbLine
10
97.490655385515353
20
-57.405742269966922
30
0
11
111.43738115879981
21
-56.185561871499701
31
0
0
LINE
5
236
100
AcDbEntity
8
0
100
AcDbLine
10
116.46816438416312
20
-55.745425370624019
30
0
11
117.68834478263034
21
-69.692151143908461
31
0
0
LINE
5
237
100
AcDbEntity
8
0
100
AcDbLine
10
130.41489015744756
20
-54.525244972156798
30
0
11
116.46816438416312
21
-55.745425370624019
31
0
0
LINE
5
238
100
AcDbEntity
8
0
100
AcDbLine
10
131.63507055591478
20
-68.47197074544124
30
0
11
130.41489015744756
21
-54.525244972156798
31
0
0
LINE
5
239
100
AcDbEntity
8
0
100
AcDbLine
10
117.68834478263034
20
-69.692151143908461
30
0
11
131.63507055591478
21
-68.47197074544124
31
0
0
LINE
5
240
100
AcDbEntity
8
0
100
AcDbLine
10
7.2869999999999999
20
-95.200000000000017
30
0
11
21.287000000000003
21
-95.200000000000017
31
0
0
LINE
5
241
100
AcDbEntity
8
0
100
AcDbLine
10
21.287000000000003
20
-95.200000000000017
30
0
11
21.287000000000003
21
-81.200000000000017
31
0
0
LINE
5
242
100
AcDbEntity
8
0
100
AcDbLine
10
7.2870000000000008
20
-81.200000000000017
30
0
11
7.2869999999999999
21
-95.200000000000017
31
0
0
LINE
5
243
100
AcDbEntity
8
0
100
AcDbLine
10
21.287000000000003
20
-81.200000000000017
30
0
11
7.2870000000000008
21
-81.200000000000017
31
0
0
LINE
5
244
100
AcDbEntity
8
0
100
AcDbLine
10
12.050000000000002
20
-57.149999999999999
30
0
11
26.050000000000004
21
-57.149999999999999
31
0
0
LINE
5
245
100
AcDbEntity
8
0
100
AcDbLine
10
26.050000000000004
20
-57.149999999999999
30
0
11
26.050000000000004
21
-71.150000000000006
31
0
0
LINE
5
246
100
AcDbEntity
8
0
100
AcDbLine
10
12.050000000000002
20
-71.150000000000006
30
0
11
12.050000000000002
21
-57.149999999999999
31
0
0
LINE
5
247
100
AcDbEntity
8
0
100
AcDbLine
10
26.050000000000004
20
-71.150000000000006
30
0
11
12.050000000000002
21
-71.150000000000006
31
0
0
LINE
5
248
100
AcDbEntity
8
0
100
AcDbLine
10
12.050000000000002
20
-38.100000000000001
30
0
11
26.050000000000004
21
-38.100000000000001
31
0
0
LINE
5
249
100
AcDbEntity
8
0
100
AcDbLine
10
26.050000000000004
20
-38.100000000000001
30
0
11
26.050000000000004
21
-52.100000000000001
31
0
0
LINE
5
250
100
AcDbEntity
8
0
100
AcDbLine
10
12.050000000000002
20
-52.100000000000001
30
0
11
12.050000000000002
21
-38.100000000000001
31
0
0
LINE
5
251
100
AcDbEntity
8
0
100
AcDbLine
10
26.050000000000004
20
-52.100000000000001
30
0
11
12.050000000000002
21
-52.100000000000001
31
0
0
LINE
5
252
100
AcDbEntity
8
0
100
AcDbLine
10
-7.0000001043081284
20
-38.100000000000009
30
0
11
6.9999998956918734
21
-38.100000000000009
31
0
0
LINE
5
253
100
AcDbEntity
8
0
100
AcDbLine
10
6.9999998956918734
20
-38.100000000000009
30
0
11
6.9999998956918734
21
-52.100000000000009
31
0
0
LINE
5
254
100
AcDbEntity
8
0
100
AcDbLine
10
-7.0000001043081284
20
-52.100000000000009
30
0
11
-7.0000001043081284
21
-38.100000000000009
31
0
0
LINE
5
255
100
AcDbEntity
8
0
100
AcDbLine
10
6.9999998956918734
20
-52.100000000000009
30
0
11
-7.0000001043081284
21
-52.100000000000009
31
0
0
LINE
5
256
100
AcDbEntity
8
0
100
AcDbLine
10
-12.050000000000002
20
-38.100000000000009
30
0
11
-26.050000000000004
21
-38.100000000000009
31
0
0
LINE
5
257
100
AcDbEntity
8
0
100
AcDbLine
10
-26.050000000000004
20
-38.100000000000009
30
0
11
-26.050000000000004
21
-52.100000000000009
31
0
0
LINE
5
258
100
AcDbEntity
8
0
100
AcDbLine
10
-12.050000000000004
20
-52.100000000000009
30
0
11
-12.050000000000002
21
-38.100000000000009
31
0
0
LINE
5
259
100
AcDbEntity
8
0
100
AcDbLine
10
-26.050000000000004
20
-52.100000000000009
30
0
11
-12.050000000000004
21
-52.100000000000009
31
0
0
LINE
5
260
100
AcDbEntity
8
0
100
AcDbLine
10
-38.420633798685778
20
-37.955017997295506
30
0
11
-52.367359571970212
21
-36.734837598828292
31
0
0
LINE
5
261
100
AcDbEntity
8
0
100
AcDbLine
10
-52.367359571970212
20
-36.734837598828292
30
0
11
-53.587539970437433
21
-50.681563372112734
31
0
0
LINE
5
262
100
AcDbEntity
8
0
100
AcDbLine
10
-39.640814197152999
20
-51.901743770579941
30
0
11
-38.420633798685778
21
-37.955017997295506
31
0
0
LINE
5
263
100
AcDbEntity
8
0
100
AcDbLine
10
-53.587539970437433
20
-50.681563372112734
30
0
11
-39.640814197152999
21
-51.901743770579941
31
0
0
LINE
5
264
100
AcDbEntity
8
0
100
AcDbLine
10
-71.344868570617962
20
-35.074520699485412
30
0
11
-57.398142797333527
21
-36.294701097952625
31
0
0
LINE
5
265
100
AcDbEntity
8
0
100
AcDbLine
10
-57.398142797333527
20
-36.294701097952625
30
0
11
-58.618323195800748
21
-50.24142687123706
31
0
0
LINE
5
266
100
AcDbEntity
8
0
100
AcDbLine
10
-72.565048969085183
20
-49.021246472769846
30
0
11
-71.344868570617962
21
-35.074520699485412
31
0
0
LINE
5
267
100
AcDbEntity
8
0
100
AcDbLine
10
-58.618323195800748
20
-50.24142687123706
30
0
11
-72.565048969085183
21
-49.021246472769846
31
0
0
LINE
5
268
100
AcDbEntity
8
0
100
AcDbLine
10
-90.32237756926574
20
-33.414203800142488
30
0
11
-76.375651795981298
21
-34.634384198609723
31
0
0
LINE
5
269
100
AcDbEntity
8
0
100
AcDbLine
10
-76.375651795981298
20
-34.634384198609723
30
0
11
-77.595832194448519
21
-48.581109971894165
31
0
0
LINE
5
270
100
AcDbEntity
8
0
100
AcDbLine
10
-91.542557967732961
20
-47.360929573426922
30
0
11
-90.32237756926574
21
-33.414203800142488
31
0
0
LINE
5
271
100
AcDbEntity
8
0
100
AcDbLine
10
-77.595832194448519
20
-48.581109971894165
30
0
11
-91.542557967732961
21
-47.360929573426922
31
0
0
LINE
5
272
100
AcDbEntity
8
0
100
AcDbLine
10
-109.29988656791352
20
-31.753886900799621
30
0
11
-95.353160794629076
21
-32.974067299266835
31
0
0
LINE
5
273
100
AcDbEntity
8
0
100
AcDbLine
10
-95.353160794629076
20
-32.974067299266835
30
0
11
-96.573341193096311
21
-46.920793072551277
31
0
0
LINE
5
274
100
AcDbEntity
8
0
100
AcDbLine
10
-110.52006696638075
20
-45.700612674084056
30
0
11
-109.29988656791352
21
-31.753886900799621
31
0
0
LINE
5
275
100
AcDbEntity
8
0
100
AcDbLine
10
-96.573341193096311
20
-46.920793072551277
30
0
11
-110.52006696638075
21
-45.700612674084056
31
0
0
LINE
5
276
100
AcDbEntity
8
0
100
AcDbLine
10
-114.33066979327683
20
-31.31375039992394
30
0
11
-128.27739556656127
21
-30.093570001456701
31
0
0
LINE
5
277
100
AcDbEntity
8
0
100
AcDbLine
10
-128.27739556656127
20
-30.093570001456701
30
0
11
-129.49757596502849
21
-44.040295774741139
31
0
0
LINE
5
278
100
AcDbEntity
8
0
100
AcDbLine
10
-115.55085019174406
20
-45.260476173208382
30
0
11
-114.33066979327683
21
-31.31375039992394
31
0
0
LINE
5
279
100
AcDbEntity
8
0
100
AcDbLine
10
-129.49757596502849
20
-44.040295774741139
30
0
11
-115.55085019174406
21
-45.260476173208382
31
0
0
LINE
5
280
100
AcDbEntity
8
0
100
AcDbLine
10
-117.68834478263045
20
-69.692151143908461
30
0
11
-131.63507055591487
21
-68.471970745441197
31
0
0
LINE
5
281
100
AcDbEntity
8
0
100
AcDbLine
10
-131.63507055591487
20
-68.471970745441197
30
0
11
-130.41489015744762
21
-54.525244972156763
31
0
0
LINE
5
282
100
AcDbEntity
8
0
100
AcDbLine
10
-116.4681643841632
20
-55.745425370624019
30
0
11
-117.68834478263045
21
-69.692151143908461
31
0
0
LINE
5
283
100
AcDbEntity
8
0
100
AcDbLine
10
-130.41489015744762
20
-54.525244972156763
30
0
11
-116.4681643841632
21
-55.745425370624019
31
0
0
LINE
5
284
100
AcDbEntity
8
0
100
AcDbLine
10
-98.710835783982702
20
-71.352468043251406
30
0
11
-112.65756155726713
21
-70.132287644784142
31
0
0
LINE
5
285
100
AcDbEntity
8
0
100
AcDbLine
10
-112.65756155726713
20
-70.132287644784142
30
0
11
-111.43738115879987
21
-56.185561871499708
31
0
0
LINE
5
286
100
AcDbEntity
8
0
100
AcDbLine
10
-97.490655385515453
20
-57.405742269966964
30
0
11
-98.710835783982702
21
-71.352468043251406
31
0
0
LINE
5
287
100
AcDbEntity
8
0
100
AcDbLine
10
-111.43738115879987
20
-56.185561871499708
30
0
11
-97.490655385515453
21
-57.405742269966964
31
0
0
LINE
5
288
100
AcDbEntity
8
0
100
AcDbLine
10
-91.498021800589783
20
-72.214061464120348
30
0
11
-77.710713258418835
21
-74.645135951457149
31
0
0
LINE
5
289
100
AcDbEntity
8
0
100
AcDbLine
10
-77.710713258418835
20
-74.645135951457149
30
0
11
-75.27963856565114
21
-60.857827445509201
31
0
0
LINE
5
290
100
AcDbEntity
8
0
100
AcDbLine
10
-89.066947313252996
20
-58.426752921949401
30
0
11
-91.498021800589783
21
-72.214061464120348
31
0
0
LINE
5
291
100
AcDbEntity
8
0
100
AcDbLine
10
-75.27963856565114
20
-60.857827445509201
30
0
11
-89.066947313252996
21
-58.426752921949401
31
0
0
LINE
5
292
100
AcDbEntity
8
0
100
AcDbLine
10
-68.219186997048084
20
-77.222760591799869
30
0
11
-55.063490377390742
21
-82.011042794379023
31
0
0
LINE
5
293
100
AcDbEntity
8
0
100
AcDbLine
10
-55.063490377390742
20
-82.011042794379023
30
0
11
-50.275208174811581
21
-68.855346174721689
31
0
0
LINE
5
294
100
AcDbEntity
8
0
100
AcDbLine
10
-63.43090479446893
20
-64.067063972142535
30
0
11
-68.219186997048084
21
-77.222760591799869
31
0
0
LINE
5
295
100
AcDbEntity
8
0
100
AcDbLine
10
-50.275208174811581
20
-68.855346174721689
30
0
11
-63.43090479446893
21
-64.067063972142535
31
0
0
LINE
5
296
100
AcDbEntity
8
0
100
AcDbLine
10
-7.2870000000000008
20
-95.200000000000017
30
0
11
-21.287000000000003
21
-95.200000000000017
31
0
0
LINE
5
297
100
AcDbEntity
8
0
100
AcDbLine
10
-21.287000000000003
20
-81.200000000000017
30
0
11
-21.287000000000003
21
-95.200000000000017
31
0
0
LINE
5
298
100
AcDbEntity
8
0
100
AcDbLine
10
-7.2870000000000008
20
-81.200000000000017
30
0
11
-7.2870000000000008
21
-95.200000000000017
31
0
0
LINE
5
299
100
AcDbEntity
8
0
100
AcDbLine
10
-21.287000000000003
20
-81.200000000000017
30
0
11
-7.2870000000000008
21
-81.200000000000017
31
0
0
LINE
5
300
100
AcDbEntity
8
0
100
AcDbLine
10
-12.050000000000004
20
-57.150000000000006
30
0
11
-26.050000000000004
21
-57.150000000000006
31
0
0
LINE
5
301
100
AcDbEntity
8
0
100
AcDbLine
10
-26.050000000000004
20
-57.150000000000006
30
0
11
-26.050000000000004
21
-71.150000000000006
31
0
0
LINE
5
302
100
AcDbEntity
8
0
100
AcDbLine
10
-12.050000000000002
20
-71.150000000000006
30
0
11
-12.050000000000004
21
-57.150000000000006
31
0
0
LINE
5
303
100
AcDbEntity
8
0
100
AcDbLine
10
-26.050000000000004
20
-71.150000000000006
30
0
11
-12.050000000000002
21
-71.150000000000006
31
0
0
LINE
5
304
100
AcDbEntity
8
0
100
AcDbLine
10
6.9999998956918734
20
-57.150000000000006
30
0
11
-7.0000001043081284
21
-57.150000000000006
31
0
0
LINE
5
305
100
AcDbEntity
8
0
100
AcDbLine
10
-7.0000001043081284
20
-57.150000000000006
30
0
11
-7.0000001043081284
21
-71.150000000000006
31
0
0
LINE
5
306
100
AcDbEntity
8
0
100
AcDbLine
10
6.9999998956918734
20
-71.150000000000006
30
0
11
6.9999998956918734
21
-57.150000000000006
31
0
0
LINE
5
307
100
AcDbEntity
8
0
100
AcDbLine
10
-7.0000001043081284
20
-71.150000000000006
30
0
11
6.9999998956918734
21
-71.150000000000006
31
0
0
LINE
5
308
100
AcDbEntity
8
0
100
AcDbLine
10
110.92288025054465
20
7.6374623103077477
30
0
11
125.86580073676529
21
8.9447984528213418
31
0
0
LINE
5
309
100
AcDbEntity
8
0
100
AcDbLine
10
125.86580073676529
20
8.9447984528213418
30
0
11
127.1731368792789
21
-5.9981220333993024
31
0
0
LINE
5
310
100
AcDbEntity
8
0
100
AcDbLine
10
117.77550052667672
20
-70.688345856844663
30
0
11
132.71842101289738
21
-69.381009714331057
31
0
0
LINE
5
311
100
AcDbEntity
8
0
100
AcDbLine
10
132.71842101289738
20
-69.381009714331057
30
0
11
131.41108487038377
21
-54.438089228110414
31
0
0
LINE
5
312
100
AcDbEntity
8
0
100
AcDbLine
10
112.7447173013134
20
-71.128482357720344
30
0
11
98.797991528028959
21
-72.348662756187565
31
0
0
LINE
5
313
100
AcDbEntity
8
0
100
AcDbLine
10
91.671669980844953
20
-73.198869231806327
30
0
11
77.88436143867402
21
-75.62994371914327
31
0
0
LINE
5
314
100
AcDbEntity
8
0
100
AcDbLine
10
68.561207113597476
20
-78.1624531222147
30
0
11
55.405510422594745
21
-82.950735128774028
31
0
0
LINE
5
315
100
AcDbEntity
8
0
100
AcDbLine
10
7.2869999999999999
20
-96.200000014901178
30
0
11
22.287000014901164
21
-96.200000014901178
31
0
0
LINE
5
316
100
AcDbEntity
8
0
100
AcDbLine
10
22.287000014901164
20
-96.200000014901178
30
0
11
22.287000014901164
21
-81.200000000000017
31
0
0
LINE
5
317
100
AcDbEntity
8
0
100
AcDbLine
10
-7.2870000000000008
20
-96.200000014901178
30
0
11
-22.287000014901164
21
-96.200000014901178
31
0
0
LINE
5
318
100
AcDbEntity
8
0
100
AcDbLine
10
-22.287000014901164
20
-81.200000000000017
30
0
11
-22.287000014901164
21
-96.200000014901178
31
0
0
LINE
5
319
100
AcDbEntity
8
0
100
AcDbLine
10
-68.561207154375154
20
-78.162453207489676
30
0
11
-55.40551053471782
21
-82.950735410068845
31
0
0
LINE
5
320
100
AcDbEntity
8
0
100
AcDbLine
10
-91.671669980844257
20
-73.198869231807336
30
0
11
-77.884361438673309
21
-75.629943719144123
31
0
0
LINE
5
321
100
AcDbEntity
8
0
100
AcDbLine
10
-98.797991528029087
20
-72.348662756187608
30
0
11
-112.74471730131351
21
-71.128482357720358
31
0
0
LINE
5
322
100
AcDbEntity
8
0
100
AcDbLine
10
-117.77550052667684
20
-70.688345856844663
30
0
11
-132.71842101289747
21
-69.381009714331029
31
0
0
LINE
5
323
100
AcDbEntity
8
0
100
AcDbLine
10
-132.71842101289747
20
-69.381009714331029
30
0
11
-131.41108487038383
21
-54.438089228110378
31
0
0
LINE
5
324
100
AcDbEntity
8
0
100
AcDbLine
10
-129.27359027949745
20
-30.00641425741032
30
0
11
-130.49377067796468
21
-43.953140030694762
31
0
0
LINE
5
325
100
AcDbEntity
8
0
100
AcDbLine
10
-110.92288025054465
20
7.6374623103077734
30
0
11
-125.86580073676529
21
8.9447984528213738
31
0
0
LINE
5
326
100
AcDbEntity
8
0
100
AcDbLine
10
-125.86580073676529
20
8.9447984528213738
30
0
11
-127.1731368792789
21
-5.9981220333992695
31
0
0
LINE
5
327
100
AcDbEntity
8
0
100
AcDbLine
10
-35.323985685531014
20
-14.033881517330816
30
0
11
-34.016649543017422
21
0.90903896888982372
31
0
0
LINE
5
328
100
AcDbEntity
8
0
100
AcDbLine
10
-34.016649543017422
20
0.90903896888982372
30
0
11
-48.959570029238066
21
2.2163751114034187
31
0
0
LINE
5
329
100
AcDbEntity
8
0
100
AcDbLine
10
35.323985685531014
20
-14.033881517330817
30
0
11
34.016649543017422
21
0.90903896888982372
31
0
0
LINE
5
330
100
AcDbEntity
8
0
100
AcDbLine
10
34.016649543017422
20
0.90903896888982372
30
0
11
48.959570029238066
21
2.2163751114034178
31
0
0
LINE
5
331
100
AcDbEntity
8
0
100
AcDbLine
10
52.367359571970212
20
-36.734837598828292
30
0
11
38.420633798685778
21
-37.955017997295506
31
0
0
LINE
5
332
100
AcDbEntity
8
0
100
AcDbLine
10
127.1731368792789
20
-5.9981220333993024
30
0
11
131.41108487038377
21
-54.438089228110414
31
0
0
LINE
5
333
100
AcDbEntity
8
0
100
AcDbLine
10
110.92288025054465
20
7.6374623103077477
30
0
11
48.959570029238066
21
2.2163751114034178
31
0
0
LINE
5
334
100
AcDbEntity
8
0
100
AcDbLine
10
-48.959570029238066
20
2.2163751114034187
30
0
11
-110.92288025054465
21
7.6374623103077734
31
0
0
LINE
5
335
100
AcDbEntity
8
0
100
AcDbLine
10
-127.1731368792789
20
-5.9981220333992695
30
0
11
-129.27359027949745
21
-30.00641425741032
31
0
0
LINE
5
336
100
AcDbEntity
8
0
100
AcDbLine
10
-130.49377067796468
20
-43.953140030694762
30
0
11
-131.41108487038383
21
-54.438089228110378
31
0
0
LINE
5
337
100
AcDbEntity
8
0
100
AcDbLine
10
-98.797991528029087
20
-72.348662756187608
30
0
11
-91.671669980844257
21
-73.198869231807336
31
0
0
LINE
5
338
100
AcDbEntity
8
0
100
AcDbLine
10
-112.74471730131351
20
-71.128482357720358
30
0
11
-117.77550052667684
21
-70.688345856844663
31
0
0
LINE
5
339
100
AcDbEntity
8
0
100
AcDbLine
10
-77.884361438673309
20
-75.629943719144123
30
0
11
-68.561207154375154
21
-78.162453207489676
31
0
0
LINE
5
340
100
AcDbEntity
8
0
100
AcDbLine
10
68.561207113597476
20
-78.1624531222147
30
0
11
77.88436143867402
21
-75.62994371914327
31
0
0
LINE
5
341
100
AcDbEntity
8
0
100
AcDbLine
10
91.671669980844953
20
-73.198869231806327
30
0
11
98.797991528028959
21
-72.348662756187565
31
0
0
LINE
5
342
100
AcDbEntity
8
0
100
AcDbLine
10
112.7447173013134
20
-71.128482357720344
30
0
11
117.77550052667672
21
-70.688345856844663
31
0
0
LINE
5
343
100
AcDbEntity
8
0
100
AcDbLine
10
-7.2870000000000008
20
-96.200000014901178
30
0
11
7.2869999999999999
21
-96.200000014901178
31
0
0
LINE
5
344
100
AcDbEntity
8
0
100
AcDbLine
10
55.405510422594745
20
-82.950735128774028
30
0
11
22.287000014901164
21
-96.200000014901178
31
0
0
LINE
5
345
100
AcDbEntity
8
0
100
AcDbLine
10
-55.40551053471782
20
-82.950735410068845
30
0
11
-22.287000014901164
21
-96.200000014901178
31
0
0
LINE
5
346
100
AcDbEntity
8
0
100
AcDbLine
10
0
20
3.0000000000000004
30
0
11
-7.0000000000000009
21
3.0000000000000004
31
0
0
LINE
5
347
100
AcDbEntity
8
0
100
AcDbLine
10
0
20
3.0000000000000004
30
0
11
7.0000000000000009
21
3.0000000000000004
31
0
0
LINE
5
348
100
AcDbEntity
8
0
100
AcDbLine
10
7.0000000000000009
20
3.0000000000000004
30
0
11
57.916443491642553
21
3.0000000000000004
31
0
0
LINE
5
349
100
AcDbEntity
8
0
100
AcDbLine
10
-7.0000000000000009
20
3.0000000000000004
30
0
11
-57.916443491642497
21
3.0000000000000004
31
0
0
LINE
5
350
100
AcDbEntity
8
0
100
AcDbLine
10
98.710835783982574
20
-71.352468043251363
30
0
11
112.65756155726703
21
-70.132287644784142
31
0
0
LINE
5
351
100
AcDbEntity
8
0
100
AcDbLine
10
105.68419867062481
20
-70.742377844017753
30
0
11
105.94566589886779
21
-73.730961938292992
31
0
0
LINE
5
352
100
AcDbEntity
8
0
100
AcDbLine
10
105.94566589886779
20
-73.730961938292992
30
0
11
106.20713312711075
21
-76.719546032568232
31
0
0
CIRCLE
5
353
100
AcDbEntity
8
0
100
AcDbCircle
10
106.20713312711075
20
-76.719546032568232
30
0
40
2.9999999999999956
210
0
220
0
230
1
0
CIRCLE
5
354
100
AcDbEntity
8
0
100
AcDbCircle
10
106.20713312711075
20
-76.719546032568232
30
0
40
1.8500000000000003
210
0
220
0
230
1
0
LINE
5
355
100
AcDbEntity
8
0
100
AcDbLine
10
106.20713312711075
20
-76.719546032568232
30
0
11
108.05009331858048
21
-76.558307908485062
31
0
0
LINE
5
356
100
AcDbEntity
8
0
100
AcDbLine
10
106.20713312711075
20
-76.719546032568232
30
0
11
104.36417293564102
21
-76.880784156651387
31
0
0
LINE
5
357
100
AcDbEntity
8
0
100
AcDbLine
10
104.36417293564102
20
-76.880784156651387
30
0
11
104.62564016388399
21
-79.869368250926627
31
0
0
LINE
5
358
100
AcDbEntity
8
0
100
AcDbLine
10
108.05009331858048
20
-76.558307908485062
30
0
11
108.31156054682347
21
-79.546892002760302
31
0
0
LINE
5
359
100
AcDbEntity
8
0
100
AcDbLine
10
108.31156054682347
20
-79.546892002760302
30
0
11
110.30394994300696
21
-79.372580517264964
31
0
0
LINE
5
360
100
AcDbEntity
8
0
100
AcDbLine
10
104.62564016388399
20
-79.869368250926627
30
0
11
102.6332507677005
21
-80.04367973642195
31
0
0
LINE
5
361
100
AcDbEntity
8
0
100
AcDbLine
10
99.005889882585478
20
5.5910408972622641
30
0
11
98.744422654342515
21
8.5796249915375018
31
0
0
LINE
5
362
100
AcDbEntity
8
0
100
AcDbLine
10
98.744422654342515
20
8.5796249915375018
30
0
11
98.482955426099537
21
11.56820908581274
31
0
0
CIRCLE
5
363
100
AcDbEntity
8
0
100
AcDbCircle
10
98.482955426099537
20
11.56820908581274
30
0
40
2.9999999999999978
210
0
220
0
230
1
0
CIRCLE
5
364
100
AcDbEntity
8
0
100
AcDbCircle
10
98.482955426099537
20
11.56820908581274
30
0
40
1.8500000000000003
210
0
220
0
230
1
0
LINE
5
365
100
AcDbEntity
8
0
100
AcDbLine
10
98.482955426099537
20
11.56820908581274
30
0
11
100.32591561756928
21
11.729447209895906
31
0
0
LINE
5
366
100
AcDbEntity
8
0
100
AcDbLine
10
98.482955426099537
20
11.56820908581274
30
0
11
96.639995234629794
21
11.406970961729572
31
0
0
LINE
5
367
100
AcDbEntity
8
0
100
AcDbLine
10
96.639995234629794
20
11.406970961729572
30
0
11
96.378528006386816
21
14.39555505600481
31
0
0
LINE
5
368
100
AcDbEntity
8
0
100
AcDbLine
10
96.378528006386816
20
14.39555505600481
30
0
11
94.386138610203318
21
14.221243570509483
31
0
0
LINE
5
369
100
AcDbEntity
8
0
100
AcDbLine
10
100.32591561756928
20
11.729447209895906
30
0
11
100.0644483893263
21
14.718031304171141
31
0
0
LINE
5
370
100
AcDbEntity
8
0
100
AcDbLine
10
100.0644483893263
20
14.718031304171141
30
0
11
102.05683778550979
21
14.892342789666458
31
0
0
LINE
5
371
100
AcDbEntity
8
0
100
AcDbLine
10
-99.005889882585478
20
5.5910408972622827
30
0
11
-98.744422654342515
21
8.5796249915375196
31
0
0
LINE
5
372
100
AcDbEntity
8
0
100
AcDbLine
10
-98.744422654342515
20
8.5796249915375196
30
0
11
-98.482955426099537
21
11.568209085812757
31
0
0
CIRCLE
5
373
100
AcDbEntity
8
0
100
AcDbCircle
10
-98.482955426099537
20
11.568209085812757
30
0
40
3.0000000000000004
210
0
220
0
230
1
0
CIRCLE
5
374
100
AcDbEntity
8
0
100
AcDbCircle
10
-98.482955426099537
20
11.568209085812757
30
0
40
1.8500000000000008
210
0
220
0
230
1
0
LINE
5
375
100
AcDbEntity
8
0
100
AcDbLine
10
-98.482955426099537
20
11.568209085812757
30
0
11
-96.639995234629794
21
11.406970961729591
31
0
0
LINE
5
376
100
AcDbEntity
8
0
100
AcDbLine
10
-96.639995234629794
20
11.406970961729591
30
0
11
-96.37852800638683
21
14.395555056004829
31
0
0
LINE
5
377
100
AcDbEntity
8
0
100
AcDbLine
10
-98.482955426099537
20
11.568209085812757
30
0
11
-100.32591561756928
21
11.729447209895923
31
0
0
LINE
5
378
100
AcDbEntity
8
0
100
AcDbLine
10
-100.32591561756928
20
11.729447209895923
30
0
11
-100.0644483893263
21
14.718031304171159
31
0
0
LINE
5
379
100
AcDbEntity
8
0
100
AcDbLine
10
-100.0644483893263
20
14.718031304171159
30
0
11
-102.05683778550979
21
14.892342789666472
31
0
0
LINE
5
380
100
AcDbEntity
8
0
100
AcDbLine
10
-96.37852800638683
20
14.395555056004829
30
0
11
-94.386138610203346
21
14.221243570509516
31
0
0
LINE
5
381
100
AcDbEntity
8
0
100
AcDbLine
10
-105.68419867062491
20
-70.742377844017767
30
0
11
-105.94566589886789
21
-73.730961938293007
31
0
0
LINE
5
382
100
AcDbEntity
8
0
100
AcDbLine
10
-105.94566589886789
20
-73.730961938293007
30
0
11
-106.20713312711088
21
-76.719546032568246
31
0
0
CIRCLE
5
383
100
AcDbEntity
8
0
100
AcDbCircle
10
-106.20713312711088
20
-76.719546032568246
30
0
40
3.0000000000000027
210
0
220
0
230
1
0
CIRCLE
5
384
100
AcDbEntity
8
0
100
AcDbCircle
10
-106.20713312711088
20
-76.719546032568246
30
0
40
1.8499999999999972
210
0
220
0
230
1
0
LINE
5
385
100
AcDbEntity
8
0
100
AcDbLine
10
-106.20713312711088
20
-76.719546032568246
30
0
11
-104.36417293564116
21
-76.88078415665143
31
0
0
LINE
5
386
100
AcDbEntity
8
0
100
AcDbLine
10
-106.20713312711088
20
-76.719546032568246
30
0
11
-108.05009331858059
21
-76.558307908485077
31
0
0
LINE
5
387
100
AcDbEntity
8
0
100
AcDbLine
10
-108.05009331858059
20
-76.558307908485077
30
0
11
-108.31156054682359
21
-79.546892002760316
31
0
0
LINE
5
388
100
AcDbEntity
8
0
100
AcDbLine
10
-108.31156054682359
20
-79.546892002760316
30
0
11
-110.30394994300707
21
-79.372580517264993
31
0
0
LINE
5
389
100
AcDbEntity
8
0
100
AcDbLine
10
-104.36417293564116
20
-76.88078415665143
30
0
11
-104.62564016388414
21
-79.869368250926669
31
0
0
LINE
5
390
100
AcDbEntity
8
0
100
AcDbLine
10
-104.62564016388414
20
-79.869368250926669
30
0
11
-102.63325076770066
21
-80.043679736422007
31
0
0
LINE
5
391
100
AcDbEntity
8
0
100
AcDbLine
10
-102.63325076770066
20
-80.043679736422007
30
0
11
-98.797991528029087
21
-72.348662756187608
31
0
0
LINE
5
392
100
AcDbEntity
8
0
100
AcDbLine
10
-110.30394994300707
20
-79.372580517264993
30
0
11
-112.74471730131351
21
-71.128482357720358
31
0
0
LINE
5
393
100
AcDbEntity
8
0
100
AcDbLine
10
-102.05683778550979
20
14.892342789666472
30
0
11
-105.89209702518136
21
7.1973258094321011
31
0
0
LINE
5
394
100
AcDbEntity
8
0
100
AcDbLine
10
-94.386138610203346
20
14.221243570509516
30
0
11
-91.945371251896901
21
5.9771454109648827
31
0
0
LINE
5
395
100
AcDbEntity
8
0
100
AcDbLine
10
94.386138610203318
20
14.221243570509483
30
0
11
91.945371251896887
21
5.9771454109648587
31
0
0
LINE
5
396
100
AcDbEntity
8
0
100
AcDbLine
10
102.05683778550979
20
14.892342789666458
30
0
11
105.89209702518133
21
7.1973258094320745
31
0
0
LINE
5
397
100
AcDbEntity
8
0
100
AcDbLine
10
110.30394994300696
20
-79.372580517264964
30
0
11
112.7447173013134
21
-71.128482357720344
31
0
0
LINE
5
398
100
AcDbEntity
8
0
100
AcDbLine
10
102.6332507677005
20
-80.04367973642195
30
0
11
98.797991528028959
21
-72.348662756187565
31
0
0
LINE
5
399
100
AcDbEntity
8
0
100
AcDbLine
10
0
20
-96.200000014901178
30
0
11
0
21
3.0000000000000004
31
0
0
LINE
5
400
100
AcDbEntity
8
0
100
AcDbLine
10
63.430904958615969
20
-64.067063796423554
30
0
11
0
21
-64.067063796423554
31
0
0
LINE
5
401
100
AcDbEntity
8
0
100
AcDbLine
10
0
20
-64.067063796423554
30
0
11
0
21
-39.067063796423547
31
0
0
CIRCLE
5
402
100
AcDbEntity
8
0
100
AcDbCircle
10
0
20
-39.067063796423547
30
0
40
21.5
210
0
220
0
230
1
0
CIRCLE
5
403
100
AcDbEntity
8
0
100
AcDbCircle
10
0
20
-39.067063796423547
30
0
40
23.000000000000004
210
0
220
0
230
1
0
LINE
5
404
100
AcDbEntity
8
0
100
AcDbLine
10
-7.2870000000000008
20
-81.200000000000017
30
0
11
7.2870000000000008
21
-81.200000000000017
31
0
0
CIRCLE
5
405
100
AcDbEntity
8
0
100
AcDbCircle
10
0
20
-81.200000000000017
30
0
40
10
210
0
220
0
230
1
0
ENDSEC
0
SECTION
2
OBJECTS
0
DICTIONARY
5
C
100
AcDbDictionary
3
ACAD_GROUP
350
D
3
ACAD_MLINESTYLE
350
17
0
DICTIONARY
5
D
100
AcDbDictionary
0
DICTIONARY
5
1A
330
C
100
AcDbDictionary
0
DICTIONARY
5
17
100
AcDbDictionary
0
ENDSEC
0
EOF
