0
SECTION
2
HEADER
9
$INSUNITS
70
4
9
$ACADVER
1
AC1014
9
$HANDSEED
5
FFFF
0
ENDSEC
0
SECTION
2
TABLES
0
TABLE
2
VPORT
5
8
100
AcDbSymbolTable
0
ENDTAB
0
TABLE
2
LTYPE
5
5
100
AcDbSymbolTable
0
LTYPE
5
14
100
AcDbSymbolTableRecord
100
AcDbLinetypeTableRecord
2
BYBLOCK
70
0
0
LTYPE
5
15
100
AcDbSymbolTableRecord
100
AcDbLinetypeTableRecord
2
BYLAYER
70
0
0
ENDTAB
0
TABLE
2
LAYER
5
2
100
AcDbSymbolTable
70
2
0
LAYER
5
50
100
AcDbSymbolTableRecord
100
AcDbLayerTableRecord
2
0
70
0
6
CONTINUOUS
0
ENDTAB
0
TABLE
2
STYLE
5
3
100
AcDbSymbolTable
70
1
0
STYLE
5
11
100
AcDbSymbolTableRecord
100
AcDbTextStyleTableRecord
2
STANDARD
70
0
0
ENDTAB
0
TABLE
2
VIEW
5
6
100
AcDbSymbolTable
70
0
0
ENDTAB
0
TABLE
2
UCS
5
7
100
AcDbSymbolTable
70
0
0
ENDTAB
0
TABLE
2
APPID
5
9
100
AcDbSymbolTable
70
2
0
APPID
5
12
100
AcDbSymbolTableRecord
100
AcDbRegAppTableRecord
2
ACAD
70
0
0
ENDTAB
0
TABLE
2
DIMSTYLE
5
A
100
AcDbSymbolTable
70
1
0
ENDTAB
0
TABLE
2
BLOCK_RECORD
5
1
100
AcDbSymbolTable
70
1
0
BLOCK_RECORD
5
1F
100
AcDbSymbolTableRecord
100
AcDbBlockTableRecord
2
*MODEL_SPACE
0
BLOCK_RECORD
5
1B
100
AcDbSymbolTableRecord
100
AcDbBlockTableRecord
2
*PAPER_SPACE
0
ENDTAB
0
ENDSEC
0
SECTION
2
BLOCKS
0
BLOCK
5
20
100
AcDbEntity
100
AcDbBlockBegin
2
*MODEL_SPACE
0
ENDBLK
5
21
100
AcDbEntity
100
AcDbBlockEnd
0
BLOCK
5
1C
100
AcDbEntity
100
AcDbBlockBegin
2
*PAPER_SPACE
0
ENDBLK
5
1D
100
AcDbEntity
100
AcDbBlockEnd
0
ENDSEC
0
SECTION
2
ENTITIES
0
LINE
5
100
100
AcDbEntity
8
0
100
AcDbLine
10
-125.86580073676529
20
8.9447984528213738
30
0
11
-127.1731368792789
21
-5.9981220333992695
31
0
0
LINE
5
101
100
AcDbEntity
8
0
100
AcDbLine
10
-127.1731368792789
20
-5.9981220333992695
30
0
11
-129.27359027949745
21
-30.006414257410327
31
0
0
LINE
5
102
100
AcDbEntity
8
0
100
AcDbLine
10
-129.27359027949745
20
-30.00641425741032
30
0
11
-130.49377067796468
21
-43.953140030694762
31
0
0
LINE
5
103
100
AcDbEntity
8
0
100
AcDbLine
10
-130.49377067796468
20
-43.953140030694762
30
0
11
-131.41108487038383
21
-54.438089228110378
31
0
0
LINE
5
104
100
AcDbEntity
8
0
100
AcDbLine
10
-132.71842101289747
20
-69.381009714331029
30
0
11
-131.41108487038383
21
-54.438089228110378
31
0
0
LINE
5
105
100
AcDbEntity
8
0
100
AcDbLine
10
-117.77550052667684
20
-70.688345856844663
30
0
11
-132.71842101289747
21
-69.381009714331029
31
0
0
LINE
5
106
100
AcDbEntity
8
0
100
AcDbLine
10
-112.74471730131351
20
-71.128482357720358
30
0
11
-117.77550052667684
21
-70.688345856844663
31
0
0
LINE
5
107
100
AcDbEntity
8
0
100
AcDbLine
10
-110.92288025054465
20
7.6374623103077734
30
0
11
-125.86580073676529
21
8.9447984528213738
31
0
0
LINE
5
108
100
AcDbEntity
8
0
100
AcDbLine
10
-7.0000000000000009
20
3.0000000000000004
30
0
11
-57.916443491642497
21
3.0000000000000004
31
0
0
LINE
5
109
100
AcDbEntity
8
0
100
AcDbLine
10
7.0000000000000009
20
3.0000000000000004
30
0
11
57.916443491642553
21
3.0000000000000004
31
0
0
LINE
5
110
100
AcDbEntity
8
0
100
AcDbLine
10
0
20
3.0000000000000004
30
0
11
7.0000000000000009
21
3.0000000000000004
31
0
0
LINE
5
111
100
AcDbEntity
8
0
100
AcDbLine
10
0
20
3.0000000000000004
30
0
11
-7.0000000000000009
21
3.0000000000000004
31
0
0
LINE
5
112
100
AcDbEntity
8
0
100
AcDbLine
10
110.92288025054465
20
7.6374623103077477
30
0
11
125.86580073676529
21
8.9447984528213418
31
0
0
LINE
5
113
100
AcDbEntity
8
0
100
AcDbLine
10
125.86580073676529
20
8.9447984528213418
30
0
11
127.1731368792789
21
-5.9981220333993024
31
0
0
LINE
5
114
100
AcDbEntity
8
0
100
AcDbLine
10
127.1731368792789
20
-5.9981220333993024
30
0
11
131.41108487038377
21
-54.438089228110407
31
0
0
LINE
5
115
100
AcDbEntity
8
0
100
AcDbLine
10
117.77550052667672
20
-70.688345856844663
30
0
11
132.71842101289738
21
-69.381009714331057
31
0
0
LINE
5
116
100
AcDbEntity
8
0
100
AcDbLine
10
132.71842101289738
20
-69.381009714331057
30
0
11
131.41108487038377
21
-54.438089228110414
31
0
0
LINE
5
117
100
AcDbEntity
8
0
100
AcDbLine
10
110.30394994300696
20
-79.372580517264964
30
0
11
112.7447173013134
21
-71.128482357720344
31
0
0
LINE
5
118
100
AcDbEntity
8
0
100
AcDbLine
10
112.7447173013134
20
-71.128482357720344
30
0
11
117.77550052667672
21
-70.688345856844663
31
0
0
LINE
5
119
100
AcDbEntity
8
0
100
AcDbLine
10
108.31156054682347
20
-79.546892002760302
30
0
11
110.30394994300696
21
-79.372580517264964
31
0
0
LINE
5
120
100
AcDbEntity
8
0
100
AcDbLine
10
108.05009331858048
20
-76.558307908485062
30
0
11
108.31156054682347
21
-79.546892002760302
31
0
0
LINE
5
121
100
AcDbEntity
8
0
100
AcDbLine
10
104.36417293564102
20
-76.880784156651387
30
0
11
104.62564016388399
21
-79.869368250926627
31
0
0
LINE
5
122
100
AcDbEntity
8
0
100
AcDbLine
10
102.6332507677005
20
-80.04367973642195
30
0
11
98.797991528028959
21
-72.348662756187565
31
0
0
LINE
5
123
100
AcDbEntity
8
0
100
AcDbLine
10
91.671669980844953
20
-73.198869231806327
30
0
11
98.797991528028959
21
-72.348662756187565
31
0
0
LINE
5
124
100
AcDbEntity
8
0
100
AcDbLine
10
91.671669980844953
20
-73.198869231806327
30
0
11
77.88436143867402
21
-75.62994371914327
31
0
0
LINE
5
125
100
AcDbEntity
8
0
100
AcDbLine
10
68.561207113597476
20
-78.1624531222147
30
0
11
77.88436143867402
21
-75.62994371914327
31
0
0
LINE
5
126
100
AcDbEntity
8
0
100
AcDbLine
10
68.561207113597476
20
-78.1624531222147
30
0
11
55.405510422594745
21
-82.950735128774028
31
0
0
LINE
5
127
100
AcDbEntity
8
0
100
AcDbLine
10
55.405510422594745
20
-82.950735128774028
30
0
11
22.287000014901164
21
-96.200000014901178
31
0
0
LINE
5
128
100
AcDbEntity
8
0
100
AcDbLine
10
7.2869999999999999
20
-96.200000014901178
30
0
11
22.287000014901164
21
-96.200000014901178
31
0
0
LINE
5
129
100
AcDbEntity
8
0
100
AcDbLine
10
-7.2870000000000008
20
-96.200000014901178
30
0
11
7.2870000000000008
21
-96.200000014901178
31
0
0
LINE
5
130
100
AcDbEntity
8
0
100
AcDbLine
10
-7.2870000000000008
20
-96.200000014901178
30
0
11
-22.287000014901164
21
-96.200000014901178
31
0
0
LINE
5
131
100
AcDbEntity
8
0
100
AcDbLine
10
-55.40551053471782
20
-82.950735410068845
30
0
11
-22.287000014901164
21
-96.200000014901178
31
0
0
LINE
5
132
100
AcDbEntity
8
0
100
AcDbLine
10
-68.561207154375154
20
-78.162453207489676
30
0
11
-55.40551053471782
21
-82.950735410068845
31
0
0
LINE
5
133
100
AcDbEntity
8
0
100
AcDbLine
10
-77.884361438673309
20
-75.629943719144123
30
0
11
-68.561207154375154
21
-78.162453207489676
31
0
0
LINE
5
134
100
AcDbEntity
8
0
100
AcDbLine
10
-91.671669980844257
20
-73.198869231807336
30
0
11
-77.884361438673309
21
-75.629943719144123
31
0
0
LINE
5
135
100
AcDbEntity
8
0
100
AcDbLine
10
-98.797991528029087
20
-72.348662756187608
30
0
11
-91.671669980844257
21
-73.198869231807336
31
0
0
LINE
5
136
100
AcDbEntity
8
0
100
AcDbLine
10
-102.63325076770066
20
-80.043679736422007
30
0
11
-98.797991528029087
21
-72.348662756187608
31
0
0
LINE
5
137
100
AcDbEntity
8
0
100
AcDbLine
10
-104.36417293564116
20
-76.88078415665143
30
0
11
-104.62564016388414
21
-79.869368250926669
31
0
0
LINE
5
138
100
AcDbEntity
8
0
100
AcDbLine
10
-104.62564016388414
20
-79.869368250926669
30
0
11
-102.63325076770066
21
-80.043679736422007
31
0
0
LINE
5
139
100
AcDbEntity
8
0
100
AcDbLine
10
-110.30394994300707
20
-79.372580517264993
30
0
11
-112.74471730131351
21
-71.128482357720358
31
0
0
LINE
5
140
100
AcDbEntity
8
0
100
AcDbLine
10
-108.31156054682359
20
-79.546892002760316
30
0
11
-110.30394994300707
21
-79.372580517264993
31
0
0
LINE
5
141
100
AcDbEntity
8
0
100
AcDbLine
10
-96.639995234629794
20
11.406970961729591
30
0
11
-96.37852800638683
21
14.395555056004829
31
0
0
LINE
5
142
100
AcDbEntity
8
0
100
AcDbLine
10
-94.386138610203346
20
14.221243570509516
30
0
11
-91.945371251896901
21
5.9771454109648827
31
0
0
LINE
5
143
100
AcDbEntity
8
0
100
AcDbLine
10
-96.37852800638683
20
14.395555056004829
30
0
11
-94.386138610203346
21
14.221243570509516
31
0
0
LINE
5
144
100
AcDbEntity
8
0
100
AcDbLine
10
-100.0644483893263
20
14.718031304171159
30
0
11
-102.05683778550979
21
14.892342789666472
31
0
0
LINE
5
145
100
AcDbEntity
8
0
100
AcDbLine
10
-102.05683778550979
20
14.892342789666472
30
0
11
-105.89209702518136
21
7.1973258094321011
31
0
0
LINE
5
146
100
AcDbEntity
8
0
100
AcDbLine
10
-100.32591561756928
20
11.729447209895923
30
0
11
-100.0644483893263
21
14.718031304171159
31
0
0
LINE
5
147
100
AcDbEntity
8
0
100
AcDbLine
10
100.32591561756928
20
11.729447209895906
30
0
11
100.0644483893263
21
14.718031304171141
31
0
0
LINE
5
148
100
AcDbEntity
8
0
100
AcDbLine
10
100.0644483893263
20
14.718031304171141
30
0
11
102.05683778550979
21
14.892342789666458
31
0
0
LINE
5
149
100
AcDbEntity
8
0
100
AcDbLine
10
102.05683778550979
20
14.892342789666458
30
0
11
105.89209702518133
21
7.1973258094320745
31
0
0
LINE
5
150
100
AcDbEntity
8
0
100
AcDbLine
10
94.386138610203318
20
14.221243570509483
30
0
11
91.945371251896887
21
5.9771454109648587
31
0
0
LINE
5
151
100
AcDbEntity
8
0
100
AcDbLine
10
96.378528006386816
20
14.39555505600481
30
0
11
94.386138610203318
21
14.221243570509483
31
0
0
LINE
5
152
100
AcDbEntity
8
0
100
AcDbLine
10
96.639995234629794
20
11.406970961729572
30
0
11
96.378528006386816
21
14.39555505600481
31
0
0
LINE
5
153
100
AcDbEntity
8
0
100
AcDbLine
10
57.916443491642553
20
3.0000000000000004
30
0
11
91.945371251896887
21
5.9771454109648587
31
0
0
LINE
5
154
100
AcDbEntity
8
0
100
AcDbLine
10
110.92288025054465
20
7.6374623103077477
30
0
11
105.89209702518133
21
7.1973258094320745
31
0
0
LINE
5
155
100
AcDbEntity
8
0
100
AcDbLine
10
102.6332507677005
20
-80.04367973642195
30
0
11
104.62564016388399
21
-79.869368250926627
31
0
0
LINE
5
156
100
AcDbEntity
8
0
100
AcDbLine
10
-108.31156054682359
20
-79.546892002760316
30
0
11
-108.05009331858065
21
-76.558307908485531
31
0
0
LINE
5
157
100
AcDbEntity
8
0
100
AcDbLine
10
-91.945371251896901
20
5.9771454109648827
30
0
11
-57.916443491642497
21
3.0000000000000004
31
0
0
LINE
5
158
100
AcDbEntity
8
0
100
AcDbLine
10
-105.89209702518136
20
7.1973258094321011
30
0
11
-110.92288025054465
21
7.6374623103077734
31
0
0
ARC
5
159
100
AcDbEntity
8
0
100
AcDbCircle
10
-106.20713312711091
20
-76.719546032568687
30
0
40
1.8499999999999872
210
0
220
0
230
1
100
AcDbArc
50
-4.9999999999868647
51
175.00000000000045
0
ARC
5
160
100
AcDbEntity
8
0
100
AcDbCircle
10
106.20713312711075
20
-76.719546032568203
30
0
40
1.8500000000000059
210
0
220
-0
230
1
100
AcDbArc
50
4.9999999999991154
51
185.00000000000043
0
ARC
5
161
100
AcDbEntity
8
0
100
AcDbCircle
10
98.482955426099537
20
11.56820908581274
30
0
40
1.8500000000000061
210
0
220
0
230
1
100
AcDbArc
50
-175.00000000000009
51
4.9999999999999183
0
ARC
5
162
100
AcDbEntity
8
0
100
AcDbCircle
10
-98.482955426099537
20
11.568209085812756
30
0
40
1.8500000000000061
210
0
220
0
230
1
100
AcDbArc
50
175.00000000000009
51
355.00000000000011
0
ENDSEC
0
SECTION
2
OBJECTS
0
DICTIONARY
5
C
100
AcDbDictionary
3
ACAD_GROUP
350
D
3
ACAD_MLINESTYLE
350
17
0
DICTIONARY
5
D
100
AcDbDictionary
0
DICTIONARY
5
1A
330
C
100
AcDbDictionary
0
DICTIONARY
5
17
100
AcDbDictionary
0
ENDSEC
0
EOF
