%TF.GenerationSoftware,KiCad,Pcbnew,7.0.9*%
%TF.CreationDate,2024-01-06T21:29:47+01:00*%
%TF.ProjectId,rp2040_base,72703230-3430-45f6-9261-73652e6b6963,rev?*%
%TF.SameCoordinates,Original*%
%TF.FileFunction,Paste,Bot*%
%TF.FilePolarity,Positive*%
%FSLAX46Y46*%
G04 Gerber Fmt 4.6, Leading zero omitted, Abs format (unit mm)*
G04 Created by KiCad (PCBNEW 7.0.9) date 2024-01-06 21:29:47*
%MOMM*%
%LPD*%
G01*
G04 APERTURE LIST*
G04 Aperture macros list*
%AMRoundRect*
0 Rectangle with rounded corners*
0 $1 Rounding radius*
0 $2 $3 $4 $5 $6 $7 $8 $9 X,Y pos of 4 corners*
0 Add a 4 corners polygon primitive as box body*
4,1,4,$2,$3,$4,$5,$6,$7,$8,$9,$2,$3,0*
0 Add four circle primitives for the rounded corners*
1,1,$1+$1,$2,$3*
1,1,$1+$1,$4,$5*
1,1,$1+$1,$6,$7*
1,1,$1+$1,$8,$9*
0 Add four rect primitives between the rounded corners*
20,1,$1+$1,$2,$3,$4,$5,0*
20,1,$1+$1,$4,$5,$6,$7,0*
20,1,$1+$1,$6,$7,$8,$9,0*
20,1,$1+$1,$8,$9,$2,$3,0*%
%AMRotRect*
0 Rectangle, with rotation*
0 The origin of the aperture is its center*
0 $1 length*
0 $2 width*
0 $3 Rotation angle, in degrees counterclockwise*
0 Add horizontal line*
21,1,$1,$2,0,0,$3*%
%AMFreePoly0*
4,1,18,-0.410000,0.593000,-0.403758,0.624380,-0.385983,0.650983,-0.359380,0.668758,-0.328000,0.675000,0.328000,0.675000,0.359380,0.668758,0.385983,0.650983,0.403758,0.624380,0.410000,0.593000,0.410000,-0.593000,0.403758,-0.624380,0.385983,-0.650983,0.359380,-0.668758,0.328000,-0.675000,0.000000,-0.675000,-0.410000,-0.265000,-0.410000,0.593000,-0.410000,0.593000,$1*%
G04 Aperture macros list end*
%ADD10RoundRect,0.250000X1.305205X0.589122X-0.621165X1.290263X-1.305205X-0.589122X0.621165X-1.290263X0*%
%ADD11RoundRect,0.250000X0.933944X1.085529X-1.108255X0.906860X-0.933944X-1.085529X1.108255X-0.906860X0*%
%ADD12RoundRect,0.250000X-1.025000X-1.000000X1.025000X-1.000000X1.025000X1.000000X-1.025000X1.000000X0*%
%ADD13RoundRect,0.082000X0.619331X-0.275069X0.562156X0.378435X-0.619331X0.275069X-0.562156X-0.378435X0*%
%ADD14FreePoly0,95.000000*%
%ADD15RoundRect,0.082000X-0.619331X0.275069X-0.562156X-0.378435X0.619331X-0.275069X0.562156X0.378435X0*%
%ADD16FreePoly0,275.000000*%
%ADD17RotRect,0.900000X0.800000X315.000000*%
%ADD18RoundRect,0.250000X0.250000X0.475000X-0.250000X0.475000X-0.250000X-0.475000X0.250000X-0.475000X0*%
%ADD19RoundRect,0.082000X0.527034X-0.425990X0.640948X0.220044X-0.527034X0.425990X-0.640948X-0.220044X0*%
%ADD20FreePoly0,80.000000*%
%ADD21RoundRect,0.082000X-0.593000X0.328000X-0.593000X-0.328000X0.593000X-0.328000X0.593000X0.328000X0*%
%ADD22FreePoly0,270.000000*%
%ADD23RoundRect,0.250000X1.025000X1.000000X-1.025000X1.000000X-1.025000X-1.000000X1.025000X-1.000000X0*%
%ADD24RoundRect,0.250000X-0.475000X0.250000X-0.475000X-0.250000X0.475000X-0.250000X0.475000X0.250000X0*%
%ADD25R,0.800000X0.900000*%
%ADD26RotRect,0.900000X0.800000X290.000000*%
%ADD27RoundRect,0.082000X-0.562156X0.378435X-0.619331X-0.275069X0.562156X-0.378435X0.619331X0.275069X0*%
%ADD28FreePoly0,265.000000*%
%ADD29RotRect,0.900000X0.800000X250.000000*%
%ADD30RoundRect,0.250000X-0.450000X0.262500X-0.450000X-0.262500X0.450000X-0.262500X0.450000X0.262500X0*%
%ADD31RoundRect,0.150000X0.150000X0.775000X-0.150000X0.775000X-0.150000X-0.775000X0.150000X-0.775000X0*%
%ADD32RoundRect,0.332800X0.467200X0.567200X-0.467200X0.567200X-0.467200X-0.567200X0.467200X-0.567200X0*%
%ADD33RoundRect,0.250000X-1.108255X-0.906860X0.933944X-1.085529X1.108255X0.906860X-0.933944X1.085529X0*%
%ADD34RoundRect,0.082000X0.562156X-0.378435X0.619331X0.275069X-0.562156X0.378435X-0.619331X-0.275069X0*%
%ADD35FreePoly0,85.000000*%
%ADD36R,1.000000X1.700000*%
%ADD37RoundRect,0.150000X0.512500X0.150000X-0.512500X0.150000X-0.512500X-0.150000X0.512500X-0.150000X0*%
%ADD38RoundRect,0.250000X-0.933944X-1.085529X1.108255X-0.906860X0.933944X1.085529X-1.108255X0.906860X0*%
%ADD39RoundRect,0.082000X0.640948X-0.220044X0.527034X0.425990X-0.640948X0.220044X-0.527034X-0.425990X0*%
%ADD40FreePoly0,100.000000*%
%ADD41RoundRect,0.250000X1.108255X0.906860X-0.933944X1.085529X-1.108255X-0.906860X0.933944X-1.085529X0*%
%ADD42RoundRect,0.082000X0.669420X-0.105401X0.445055X0.511037X-0.669420X0.105401X-0.445055X-0.511037X0*%
%ADD43FreePoly0,110.000000*%
%ADD44RotRect,1.400000X1.200000X315.000000*%
%ADD45RoundRect,0.250000X1.183076X0.806818X-0.835780X1.162797X-1.183076X-0.806818X0.835780X-1.162797X0*%
%ADD46RoundRect,0.250000X0.159099X-0.512652X0.512652X-0.159099X-0.159099X0.512652X-0.512652X0.159099X0*%
%ADD47RoundRect,0.250000X0.835780X1.162797X-1.183076X0.806818X-0.835780X-1.162797X1.183076X-0.806818X0*%
%ADD48RoundRect,0.250000X0.621165X1.290263X-1.305205X0.589122X-0.621165X-1.290263X1.305205X-0.589122X0*%
%ADD49RotRect,0.900000X0.800000X45.000000*%
%ADD50R,0.600000X1.450000*%
%ADD51R,0.300000X1.450000*%
%ADD52RoundRect,0.250000X-0.262500X-0.450000X0.262500X-0.450000X0.262500X0.450000X-0.262500X0.450000X0*%
%ADD53RoundRect,0.250000X-0.494981X0.207650X-0.451404X-0.290448X0.494981X-0.207650X0.451404X0.290448X0*%
%ADD54RoundRect,0.250000X0.413257X0.000000X0.000000X0.413257X-0.413257X0.000000X0.000000X-0.413257X0*%
%ADD55RoundRect,0.050000X0.309359X-0.238649X-0.238649X0.309359X-0.309359X0.238649X0.238649X-0.309359X0*%
%ADD56RoundRect,0.050000X0.309359X0.238649X0.238649X0.309359X-0.309359X-0.238649X-0.238649X-0.309359X0*%
%ADD57RotRect,0.900000X0.800000X225.000000*%
%ADD58RoundRect,0.250000X-0.451404X0.290448X-0.494981X-0.207650X0.451404X-0.290448X0.494981X0.207650X0*%
%ADD59RoundRect,0.082000X0.445055X-0.511037X0.669420X0.105401X-0.445055X0.511037X-0.669420X-0.105401X0*%
%ADD60FreePoly0,70.000000*%
%ADD61R,1.700000X1.000000*%
%ADD62RoundRect,0.150000X0.150000X-0.650000X0.150000X0.650000X-0.150000X0.650000X-0.150000X-0.650000X0*%
%ADD63RoundRect,0.082000X0.593000X-0.328000X0.593000X0.328000X-0.593000X0.328000X-0.593000X-0.328000X0*%
%ADD64FreePoly0,90.000000*%
%ADD65RoundRect,0.250000X-0.625000X0.375000X-0.625000X-0.375000X0.625000X-0.375000X0.625000X0.375000X0*%
%ADD66RoundRect,0.250000X-0.250000X-0.475000X0.250000X-0.475000X0.250000X0.475000X-0.250000X0.475000X0*%
%ADD67RoundRect,0.250000X-0.132583X0.503814X-0.503814X0.132583X0.132583X-0.503814X0.503814X-0.132583X0*%
G04 APERTURE END LIST*
D10*
%TO.C,K43*%
X84815396Y-118855535D03*
X98322993Y-121068887D03*
%TD*%
D11*
%TO.C,K25*%
X243832928Y-69191532D03*
X257010372Y-65488952D03*
%TD*%
D12*
%TO.C,K34*%
X176520000Y-98360569D03*
X163070000Y-100900569D03*
%TD*%
D11*
%TO.C,K24*%
X224855419Y-70851849D03*
X238032863Y-67149269D03*
%TD*%
D13*
%TO.C,LED43*%
X231731859Y-96269248D03*
X231862592Y-97763540D03*
X237161120Y-95794250D03*
D14*
X237291853Y-97288542D03*
%TD*%
D15*
%TO.C,LED41*%
X233085717Y-49212186D03*
X232954984Y-47717894D03*
X227656456Y-49687184D03*
D16*
X227525723Y-48192892D03*
%TD*%
D17*
%TO.C,D11*%
X139221142Y-83804645D03*
X140564645Y-82461142D03*
X141307107Y-84547107D03*
%TD*%
D13*
%TO.C,LED38*%
X211094033Y-78952056D03*
X211224766Y-80446348D03*
X216523294Y-78477058D03*
D14*
X216654027Y-79971350D03*
%TD*%
D18*
%TO.C,C6*%
X192000000Y-117230000D03*
X190100000Y-117230000D03*
%TD*%
D19*
%TO.C,LED17*%
X63725054Y-121105386D03*
X63464582Y-122582598D03*
X69092256Y-122051768D03*
D20*
X68831784Y-123528980D03*
%TD*%
D15*
%TO.C,LED45*%
X252063226Y-47551869D03*
X251932493Y-46057577D03*
X246633965Y-48026867D03*
D16*
X246503232Y-46532575D03*
%TD*%
D21*
%TO.C,LED24*%
X133785000Y-72440569D03*
X133785000Y-70940569D03*
X128335000Y-72440569D03*
D22*
X128335000Y-70940569D03*
%TD*%
D23*
%TO.C,K44*%
X128462500Y-136143069D03*
X141912500Y-133603069D03*
%TD*%
D24*
%TO.C,C11*%
X124460000Y-66270000D03*
X124460000Y-68170000D03*
%TD*%
D25*
%TO.C,D13*%
X204440000Y-107990000D03*
X202540000Y-107990000D03*
X203490000Y-105990000D03*
%TD*%
D26*
%TO.C,D27*%
X201145272Y-116365227D03*
X202930688Y-115715388D03*
X202722020Y-117919693D03*
%TD*%
D27*
%TO.C,LED4*%
X91541053Y-51347501D03*
X91671786Y-49853209D03*
X86111792Y-50872503D03*
D28*
X86242525Y-49378211D03*
%TD*%
D12*
%TO.C,K46*%
X157470000Y-117410569D03*
X144020000Y-119950569D03*
%TD*%
D29*
%TO.C,D22*%
X100649312Y-116925388D03*
X102434728Y-117575227D03*
X100857980Y-119129693D03*
%TD*%
D25*
%TO.C,D17*%
X101260000Y-107990000D03*
X99360000Y-107990000D03*
X100310000Y-105990000D03*
%TD*%
D23*
%TO.C,K48*%
X157037500Y-136143069D03*
X170487500Y-133603069D03*
%TD*%
D30*
%TO.C,R8*%
X111890000Y-127767500D03*
X111890000Y-129592500D03*
%TD*%
D31*
%TO.C,JST_connector2*%
X161139000Y-65845800D03*
X160139000Y-65845800D03*
X159139000Y-65845800D03*
X158139000Y-65845800D03*
D32*
X162639000Y-69870800D03*
X156639000Y-69870800D03*
%TD*%
D25*
%TO.C,D26*%
X222280000Y-107990000D03*
X220380000Y-107990000D03*
X221330000Y-105990000D03*
%TD*%
D13*
%TO.C,LED52*%
X271824372Y-117380289D03*
X271955105Y-118874581D03*
X277253633Y-116905291D03*
D14*
X277384366Y-118399583D03*
%TD*%
D26*
%TO.C,D28*%
X197805272Y-117575227D03*
X199590688Y-116925388D03*
X199382020Y-119129693D03*
%TD*%
D25*
%TO.C,D16*%
X112030000Y-107990000D03*
X110130000Y-107990000D03*
X111080000Y-105990000D03*
%TD*%
D33*
%TO.C,K4*%
X95559655Y-58595326D03*
X81939461Y-59953416D03*
%TD*%
D34*
%TO.C,LED8*%
X64719197Y-76816741D03*
X64588464Y-78311033D03*
X70148458Y-77291739D03*
D35*
X70017725Y-78786031D03*
%TD*%
D24*
%TO.C,C9*%
X122410000Y-66270000D03*
X122410000Y-68170000D03*
%TD*%
D36*
%TO.C,SW0*%
X191900000Y-130860569D03*
X191900000Y-124560569D03*
X188100000Y-130860569D03*
X188100000Y-124560569D03*
%TD*%
D24*
%TO.C,C14*%
X130560000Y-66270000D03*
X130560000Y-68170000D03*
%TD*%
D37*
%TO.C,U44*%
X151247500Y-67011579D03*
X151247500Y-67961579D03*
X151247500Y-68911579D03*
X148972500Y-68911579D03*
X148972500Y-67961579D03*
X148972500Y-67011579D03*
%TD*%
D38*
%TO.C,K13*%
X276256858Y-52331442D03*
X263079414Y-56034022D03*
%TD*%
D34*
%TO.C,LED12*%
X44081371Y-94133933D03*
X43950638Y-95628225D03*
X49510632Y-94608931D03*
D35*
X49379899Y-96103223D03*
%TD*%
D39*
%TO.C,LED44*%
X231567126Y-121993923D03*
X231827598Y-123471135D03*
X236934328Y-121047541D03*
D40*
X237194800Y-122524753D03*
%TD*%
D41*
%TO.C,K14*%
X22745577Y-66248282D03*
X36365771Y-64890192D03*
%TD*%
D18*
%TO.C,C7*%
X192000000Y-119240000D03*
X190100000Y-119240000D03*
%TD*%
D25*
%TO.C,D5*%
X218720000Y-107990000D03*
X216820000Y-107990000D03*
X217770000Y-105990000D03*
%TD*%
D41*
%TO.C,K18*%
X98655613Y-72889550D03*
X112275807Y-71531460D03*
%TD*%
D42*
%TO.C,LED40*%
X208301864Y-128702453D03*
X208814894Y-130111992D03*
X213423188Y-126838444D03*
D43*
X213936218Y-128247983D03*
%TD*%
D12*
%TO.C,K47*%
X176520000Y-117341579D03*
X163070000Y-119881579D03*
%TD*%
D33*
%TO.C,K1*%
X38627128Y-53614375D03*
X25006934Y-54972465D03*
%TD*%
D44*
%TO.C,Y0*%
X148723223Y-135901142D03*
X150278858Y-137456777D03*
X149076777Y-138658858D03*
X147521142Y-137103223D03*
%TD*%
D13*
%TO.C,LED48*%
X252846863Y-119040606D03*
X252977596Y-120534898D03*
X258276124Y-118565608D03*
D14*
X258406857Y-120059900D03*
%TD*%
D41*
%TO.C,K16*%
X60700595Y-69568916D03*
X74320789Y-68210826D03*
%TD*%
D11*
%TO.C,K37*%
X226515736Y-89829358D03*
X239693180Y-86126778D03*
%TD*%
D34*
%TO.C,LED7*%
X45741688Y-75156424D03*
X45610955Y-76650716D03*
X51170949Y-75631422D03*
D35*
X51040216Y-77125714D03*
%TD*%
D12*
%TO.C,K45*%
X138420000Y-117410569D03*
X124970000Y-119950569D03*
%TD*%
D33*
%TO.C,K5*%
X114537164Y-60255643D03*
X100916970Y-61613733D03*
%TD*%
D34*
%TO.C,LED14*%
X82036389Y-97454567D03*
X81905656Y-98948859D03*
X87465650Y-97929565D03*
D35*
X87334917Y-99423857D03*
%TD*%
D33*
%TO.C,K2*%
X57604637Y-55274692D03*
X43984443Y-56632782D03*
%TD*%
D27*
%TO.C,LED1*%
X34608526Y-46366550D03*
X34739259Y-44872258D03*
X29179265Y-45891552D03*
D28*
X29309998Y-44397260D03*
%TD*%
D12*
%TO.C,K20*%
X157470000Y-79310569D03*
X144020000Y-81850569D03*
%TD*%
D25*
%TO.C,D8*%
X90540000Y-107990000D03*
X88640000Y-107990000D03*
X89590000Y-105990000D03*
%TD*%
D11*
%TO.C,K36*%
X207538227Y-91489675D03*
X220715671Y-87787095D03*
%TD*%
D25*
%TO.C,D3*%
X79820000Y-107990000D03*
X77920000Y-107990000D03*
X78870000Y-105990000D03*
%TD*%
%TO.C,D12*%
X200860000Y-107990000D03*
X198960000Y-107990000D03*
X199910000Y-105990000D03*
%TD*%
D38*
%TO.C,K12*%
X257279349Y-53991759D03*
X244101905Y-57694339D03*
%TD*%
D21*
%TO.C,LED32*%
X171885000Y-110471579D03*
X171885000Y-108971579D03*
X166435000Y-110471579D03*
D22*
X166435000Y-108971579D03*
%TD*%
D45*
%TO.C,K42*%
X59914051Y-113477052D03*
X73600782Y-113311208D03*
%TD*%
D21*
%TO.C,LED26*%
X171885000Y-72611579D03*
X171885000Y-71111579D03*
X166435000Y-72611579D03*
D22*
X166435000Y-71111579D03*
%TD*%
D24*
%TO.C,C5*%
X185510000Y-123800000D03*
X185510000Y-125700000D03*
%TD*%
D46*
%TO.C,C2*%
X150468249Y-140191751D03*
X151811751Y-138848249D03*
%TD*%
D12*
%TO.C,K32*%
X138420000Y-98360569D03*
X124970000Y-100900569D03*
%TD*%
D21*
%TO.C,LED23*%
X171885000Y-53390569D03*
X171885000Y-51890569D03*
X166435000Y-53390569D03*
D22*
X166435000Y-51890569D03*
%TD*%
D38*
%TO.C,K10*%
X219324331Y-57312393D03*
X206146887Y-61014973D03*
%TD*%
D47*
%TO.C,K50*%
X225809579Y-116033153D03*
X238614176Y-111196173D03*
%TD*%
D25*
%TO.C,D1*%
X86970000Y-107990000D03*
X85070000Y-107990000D03*
X86020000Y-105990000D03*
%TD*%
%TO.C,D20*%
X193670000Y-107990000D03*
X191770000Y-107990000D03*
X192720000Y-105990000D03*
%TD*%
%TO.C,D19*%
X190110000Y-107990000D03*
X188210000Y-107990000D03*
X189160000Y-105990000D03*
%TD*%
D48*
%TO.C,K49*%
X201596710Y-123832028D03*
X213366845Y-116845038D03*
%TD*%
D11*
%TO.C,K35*%
X188560718Y-93149992D03*
X201738162Y-89447412D03*
%TD*%
D49*
%TO.C,D18*%
X140564645Y-90168858D03*
X139221142Y-88825355D03*
X141307107Y-88082893D03*
%TD*%
D50*
%TO.C,J0*%
X146851579Y-53856579D03*
X147651579Y-53856579D03*
D51*
X148851579Y-53856579D03*
X149851579Y-53856579D03*
X150351579Y-53856579D03*
X151351579Y-53856579D03*
D50*
X152551579Y-53856579D03*
X153351579Y-53856579D03*
X153351579Y-53856579D03*
X152551579Y-53856579D03*
D51*
X151851579Y-53856579D03*
X150851579Y-53856579D03*
X149351579Y-53856579D03*
X148351579Y-53856579D03*
D50*
X147651579Y-53856579D03*
X146851579Y-53856579D03*
%TD*%
D52*
%TO.C,R4*%
X165914700Y-68656200D03*
X167739700Y-68656200D03*
%TD*%
D11*
%TO.C,K23*%
X205877910Y-72512166D03*
X219055354Y-68809586D03*
%TD*%
D53*
%TO.C,C18*%
X278427202Y-92223615D03*
X278592798Y-94116385D03*
%TD*%
D24*
%TO.C,C13*%
X128520000Y-66270000D03*
X128520000Y-68170000D03*
%TD*%
D25*
%TO.C,D6*%
X215160000Y-107990000D03*
X213260000Y-107990000D03*
X214210000Y-105990000D03*
%TD*%
D34*
%TO.C,LED13*%
X63058880Y-95794250D03*
X62928147Y-97288542D03*
X68488141Y-96269248D03*
D35*
X68357408Y-97763540D03*
%TD*%
D41*
%TO.C,K27*%
X21085260Y-85225791D03*
X34705454Y-83867701D03*
%TD*%
D21*
%TO.C,LED21*%
X133785000Y-53390569D03*
X133785000Y-51890569D03*
X128335000Y-53390569D03*
D22*
X128335000Y-51890569D03*
%TD*%
D41*
%TO.C,K30*%
X78017787Y-90206742D03*
X91637981Y-88848652D03*
%TD*%
D15*
%TO.C,LED37*%
X214108208Y-50872503D03*
X213977475Y-49378211D03*
X208678947Y-51347501D03*
D16*
X208548214Y-49853209D03*
%TD*%
D13*
%TO.C,LED46*%
X249049051Y-75631422D03*
X249179784Y-77125714D03*
X254478312Y-75156424D03*
D14*
X254609045Y-76650716D03*
%TD*%
D21*
%TO.C,LED29*%
X171885000Y-91490569D03*
X171885000Y-89990569D03*
X166435000Y-91490569D03*
D22*
X166435000Y-89990569D03*
%TD*%
D13*
%TO.C,LED34*%
X192116524Y-80612373D03*
X192247257Y-82106665D03*
X197545785Y-80137375D03*
D14*
X197676518Y-81631667D03*
%TD*%
D12*
%TO.C,K19*%
X138420000Y-79310569D03*
X124970000Y-81850569D03*
%TD*%
%TO.C,K33*%
X157470000Y-98360569D03*
X144020000Y-100900569D03*
%TD*%
%TO.C,K7*%
X157470000Y-60260569D03*
X144020000Y-62800569D03*
%TD*%
D15*
%TO.C,LED49*%
X271040735Y-45891552D03*
X270910002Y-44397260D03*
X265611474Y-46366550D03*
D16*
X265480741Y-44872258D03*
%TD*%
D12*
%TO.C,K6*%
X138420000Y-60260569D03*
X124970000Y-62800569D03*
%TD*%
D24*
%TO.C,C12*%
X126490000Y-66270000D03*
X126490000Y-68170000D03*
%TD*%
D21*
%TO.C,LED25*%
X152835000Y-72440569D03*
X152835000Y-70940569D03*
X147385000Y-72440569D03*
D22*
X147385000Y-70940569D03*
%TD*%
D54*
%TO.C,U3*%
X150101579Y-128612130D03*
X151003140Y-127710569D03*
X149200018Y-127710569D03*
X150101579Y-126809008D03*
D55*
X154370736Y-128302771D03*
X154087893Y-128585614D03*
X153805051Y-128868456D03*
X153522208Y-129151299D03*
X153239365Y-129434142D03*
X152956523Y-129716984D03*
X152673680Y-129999827D03*
X152390837Y-130282670D03*
X152107994Y-130565513D03*
X151825152Y-130848355D03*
X151542309Y-131131198D03*
X151259466Y-131414041D03*
X150976624Y-131696883D03*
X150693781Y-131979726D03*
D56*
X149509377Y-131979726D03*
X149226534Y-131696883D03*
X148943692Y-131414041D03*
X148660849Y-131131198D03*
X148378006Y-130848355D03*
X148095164Y-130565513D03*
X147812321Y-130282670D03*
X147529478Y-129999827D03*
X147246635Y-129716984D03*
X146963793Y-129434142D03*
X146680950Y-129151299D03*
X146398107Y-128868456D03*
X146115265Y-128585614D03*
X145832422Y-128302771D03*
D55*
X145832422Y-127118367D03*
X146115265Y-126835524D03*
X146398107Y-126552682D03*
X146680950Y-126269839D03*
X146963793Y-125986996D03*
X147246635Y-125704154D03*
X147529478Y-125421311D03*
X147812321Y-125138468D03*
X148095164Y-124855625D03*
X148378006Y-124572783D03*
X148660849Y-124289940D03*
X148943692Y-124007097D03*
X149226534Y-123724255D03*
X149509377Y-123441412D03*
D56*
X150693781Y-123441412D03*
X150976624Y-123724255D03*
X151259466Y-124007097D03*
X151542309Y-124289940D03*
X151825152Y-124572783D03*
X152107994Y-124855625D03*
X152390837Y-125138468D03*
X152673680Y-125421311D03*
X152956523Y-125704154D03*
X153239365Y-125986996D03*
X153522208Y-126269839D03*
X153805051Y-126552682D03*
X154087893Y-126835524D03*
X154370736Y-127118367D03*
%TD*%
D11*
%TO.C,K39*%
X264470754Y-86508724D03*
X277648198Y-82806144D03*
%TD*%
D41*
%TO.C,K31*%
X96995296Y-91867059D03*
X110615490Y-90508969D03*
%TD*%
D25*
%TO.C,D7*%
X211600000Y-107990000D03*
X209700000Y-107990000D03*
X210650000Y-105990000D03*
%TD*%
D13*
%TO.C,LED39*%
X212754350Y-97929565D03*
X212885083Y-99423857D03*
X218183611Y-97454567D03*
D14*
X218314344Y-98948859D03*
%TD*%
D33*
%TO.C,K3*%
X76582146Y-56935009D03*
X62961952Y-58293099D03*
%TD*%
D57*
%TO.C,D4*%
X159655355Y-82461142D03*
X160998858Y-83804645D03*
X158912893Y-84547107D03*
%TD*%
D41*
%TO.C,K41*%
X37925275Y-111317783D03*
X51545469Y-109959693D03*
%TD*%
D11*
%TO.C,K22*%
X186900401Y-74172483D03*
X200077845Y-70469903D03*
%TD*%
D13*
%TO.C,LED47*%
X250709368Y-94608931D03*
X250840101Y-96103223D03*
X256138629Y-94133933D03*
D14*
X256269362Y-95628225D03*
%TD*%
D30*
%TO.C,R7*%
X143761579Y-49459079D03*
X143761579Y-51284079D03*
%TD*%
D58*
%TO.C,C16*%
X23450000Y-73240000D03*
X23284404Y-75132770D03*
%TD*%
D17*
%TO.C,D25*%
X158241142Y-88754645D03*
X159584645Y-87411142D03*
X160327107Y-89497107D03*
%TD*%
D27*
%TO.C,LED5*%
X110518562Y-53007818D03*
X110649295Y-51513526D03*
X105089301Y-52532820D03*
D28*
X105220034Y-51038528D03*
%TD*%
D41*
%TO.C,K40*%
X18960962Y-109669778D03*
X32581156Y-108311688D03*
%TD*%
D25*
%TO.C,D2*%
X83390000Y-107990000D03*
X81490000Y-107990000D03*
X82440000Y-105990000D03*
%TD*%
D18*
%TO.C,C10*%
X147130000Y-122870000D03*
X145230000Y-122870000D03*
%TD*%
D24*
%TO.C,C1*%
X140270000Y-66270000D03*
X140270000Y-68170000D03*
%TD*%
D41*
%TO.C,K15*%
X41723086Y-67908599D03*
X55343280Y-66550509D03*
%TD*%
D21*
%TO.C,LED31*%
X152835000Y-110540569D03*
X152835000Y-109040569D03*
X147385000Y-110540569D03*
D22*
X147385000Y-109040569D03*
%TD*%
D59*
%TO.C,LED16*%
X86821194Y-126896488D03*
X86308164Y-128306027D03*
X91942518Y-128760497D03*
D60*
X91429488Y-130170036D03*
%TD*%
D61*
%TO.C,SW2*%
X120370000Y-125810569D03*
X114070000Y-125810569D03*
X120370000Y-129610569D03*
X114070000Y-129610569D03*
%TD*%
D30*
%TO.C,R6*%
X156451579Y-49459079D03*
X156451579Y-51284079D03*
%TD*%
D13*
%TO.C,LED51*%
X269686877Y-92948614D03*
X269817610Y-94442906D03*
X275116138Y-92473616D03*
D14*
X275246871Y-93967908D03*
%TD*%
D25*
%TO.C,D9*%
X94110000Y-107990000D03*
X92210000Y-107990000D03*
X93160000Y-105990000D03*
%TD*%
D34*
%TO.C,LED6*%
X26764179Y-73496107D03*
X26633446Y-74990399D03*
X32193440Y-73971105D03*
D35*
X32062707Y-75465397D03*
%TD*%
D24*
%TO.C,C17*%
X132620000Y-66270000D03*
X132620000Y-68170000D03*
%TD*%
D30*
%TO.C,R1*%
X185480000Y-129767500D03*
X185480000Y-131592500D03*
%TD*%
D34*
%TO.C,LED11*%
X25103862Y-92473616D03*
X24973129Y-93967908D03*
X30533123Y-92948614D03*
D35*
X30402390Y-94442906D03*
%TD*%
D27*
%TO.C,LED2*%
X53586035Y-48026867D03*
X53716768Y-46532575D03*
X48156774Y-47551869D03*
D28*
X48287507Y-46057577D03*
%TD*%
D41*
%TO.C,K17*%
X79678104Y-71229233D03*
X93298298Y-69871143D03*
%TD*%
D53*
%TO.C,C19*%
X276757202Y-73243615D03*
X276922798Y-75136385D03*
%TD*%
D25*
%TO.C,D15*%
X108440000Y-107990000D03*
X106540000Y-107990000D03*
X107490000Y-105990000D03*
%TD*%
D52*
%TO.C,R3*%
X170131100Y-68656200D03*
X171956100Y-68656200D03*
%TD*%
D62*
%TO.C,U2*%
X183485000Y-131310569D03*
X182215000Y-131310569D03*
X180945000Y-131310569D03*
X179675000Y-131310569D03*
X179675000Y-124110569D03*
X180945000Y-124110569D03*
X182215000Y-124110569D03*
X183485000Y-124110569D03*
%TD*%
D27*
%TO.C,LED3*%
X72563544Y-49687184D03*
X72694277Y-48192892D03*
X67134283Y-49212186D03*
D28*
X67265016Y-47717894D03*
%TD*%
D12*
%TO.C,K21*%
X176520000Y-79481579D03*
X163070000Y-82021579D03*
%TD*%
D34*
%TO.C,LED19*%
X22979564Y-116917603D03*
X22848831Y-118411895D03*
X28408825Y-117392601D03*
D35*
X28278092Y-118886893D03*
%TD*%
D34*
%TO.C,LED9*%
X83696706Y-78477058D03*
X83565973Y-79971350D03*
X89125967Y-78952056D03*
D35*
X88995234Y-80446348D03*
%TD*%
D11*
%TO.C,K52*%
X266608249Y-110940399D03*
X279785693Y-107237819D03*
%TD*%
D46*
%TO.C,C3*%
X145988249Y-135711751D03*
X147331751Y-134368249D03*
%TD*%
D11*
%TO.C,K38*%
X245493245Y-88169041D03*
X258670689Y-84466461D03*
%TD*%
D25*
%TO.C,U4*%
X136500000Y-66220000D03*
X138400000Y-66220000D03*
X137450000Y-68220000D03*
%TD*%
D63*
%TO.C,LED36*%
X161672500Y-143013069D03*
X161672500Y-144513069D03*
X167122500Y-143013069D03*
D64*
X167122500Y-144513069D03*
%TD*%
D65*
%TO.C,F0*%
X141861579Y-56320569D03*
X141861579Y-59120569D03*
%TD*%
D63*
%TO.C,LED20*%
X133097500Y-143013069D03*
X133097500Y-144513069D03*
X138547500Y-143013069D03*
D64*
X138547500Y-144513069D03*
%TD*%
D11*
%TO.C,K51*%
X247630740Y-112600716D03*
X260808184Y-108898136D03*
%TD*%
D34*
%TO.C,LED18*%
X41943877Y-118565608D03*
X41813144Y-120059900D03*
X47373138Y-119040606D03*
D35*
X47242405Y-120534898D03*
%TD*%
D13*
%TO.C,LED42*%
X230071542Y-77291739D03*
X230202275Y-78786031D03*
X235500803Y-76816741D03*
D14*
X235631536Y-78311033D03*
%TD*%
D34*
%TO.C,LED15*%
X101013898Y-99114884D03*
X100883165Y-100609176D03*
X106443159Y-99589882D03*
D35*
X106312426Y-101084174D03*
%TD*%
D21*
%TO.C,LED28*%
X152835000Y-91490569D03*
X152835000Y-89990569D03*
X147385000Y-91490569D03*
D22*
X147385000Y-89990569D03*
%TD*%
D15*
%TO.C,LED33*%
X195108825Y-52532820D03*
X194978092Y-51038528D03*
X189679564Y-53007818D03*
D16*
X189548831Y-51513526D03*
%TD*%
D25*
%TO.C,D24*%
X104850000Y-107990000D03*
X102950000Y-107990000D03*
X103900000Y-105990000D03*
%TD*%
D66*
%TO.C,C8*%
X152950000Y-121720000D03*
X154850000Y-121720000D03*
%TD*%
D41*
%TO.C,K29*%
X59040278Y-88546425D03*
X72660472Y-87188335D03*
%TD*%
D21*
%TO.C,LED27*%
X133785000Y-91490569D03*
X133785000Y-89990569D03*
X128335000Y-91490569D03*
D22*
X128335000Y-89990569D03*
%TD*%
D25*
%TO.C,D10*%
X97680000Y-107990000D03*
X95780000Y-107990000D03*
X96730000Y-105990000D03*
%TD*%
D13*
%TO.C,LED35*%
X193776841Y-99589882D03*
X193907574Y-101084174D03*
X199206102Y-99114884D03*
D14*
X199336835Y-100609176D03*
%TD*%
D25*
%TO.C,D21*%
X197250000Y-107990000D03*
X195350000Y-107990000D03*
X196300000Y-105990000D03*
%TD*%
D13*
%TO.C,LED50*%
X268026560Y-73971105D03*
X268157293Y-75465397D03*
X273455821Y-73496107D03*
D14*
X273586554Y-74990399D03*
%TD*%
D12*
%TO.C,K8*%
X176520000Y-60260569D03*
X163070000Y-62800569D03*
%TD*%
D41*
%TO.C,K28*%
X40062769Y-86886108D03*
X53682963Y-85528018D03*
%TD*%
D38*
%TO.C,K11*%
X238301840Y-55652076D03*
X225124396Y-59354656D03*
%TD*%
D21*
%TO.C,LED30*%
X133785000Y-110540569D03*
X133785000Y-109040569D03*
X128335000Y-110540569D03*
D22*
X128335000Y-109040569D03*
%TD*%
D24*
%TO.C,C4*%
X134630000Y-66270000D03*
X134630000Y-68170000D03*
%TD*%
D67*
%TO.C,R5*%
X145885235Y-132974765D03*
X144594765Y-134265235D03*
%TD*%
D11*
%TO.C,K26*%
X262810437Y-67531215D03*
X275987881Y-63828635D03*
%TD*%
D29*
%TO.C,D23*%
X97279312Y-115695388D03*
X99064728Y-116345227D03*
X97487980Y-117899693D03*
%TD*%
D34*
%TO.C,LED10*%
X102674215Y-80137375D03*
X102543482Y-81631667D03*
X108103476Y-80612373D03*
D35*
X107972743Y-82106665D03*
%TD*%
D38*
%TO.C,K9*%
X200324948Y-58972710D03*
X187147504Y-62675290D03*
%TD*%
D58*
%TO.C,C15*%
X21802798Y-92223615D03*
X21637202Y-94116385D03*
%TD*%
D25*
%TO.C,D14*%
X208040000Y-107990000D03*
X206140000Y-107990000D03*
X207090000Y-105990000D03*
%TD*%
M02*
