%TF.GenerationSoftware,KiCad,Pcbnew,7.0.9*%
%TF.CreationDate,2024-01-06T21:29:47+01:00*%
%TF.ProjectId,rp2040_base,72703230-3430-45f6-9261-73652e6b6963,rev?*%
%TF.SameCoordinates,Original*%
%TF.FileFunction,Soldermask,Top*%
%TF.FilePolarity,Negative*%
%FSLAX46Y46*%
G04 Gerber Fmt 4.6, Leading zero omitted, Abs format (unit mm)*
G04 Created by KiCad (PCBNEW 7.0.9) date 2024-01-06 21:29:47*
%MOMM*%
%LPD*%
G01*
G04 APERTURE LIST*
G04 Aperture macros list*
%AMRoundRect*
0 Rectangle with rounded corners*
0 $1 Rounding radius*
0 $2 $3 $4 $5 $6 $7 $8 $9 X,Y pos of 4 corners*
0 Add a 4 corners polygon primitive as box body*
4,1,4,$2,$3,$4,$5,$6,$7,$8,$9,$2,$3,0*
0 Add four circle primitives for the rounded corners*
1,1,$1+$1,$2,$3*
1,1,$1+$1,$4,$5*
1,1,$1+$1,$6,$7*
1,1,$1+$1,$8,$9*
0 Add four rect primitives between the rounded corners*
20,1,$1+$1,$2,$3,$4,$5,0*
20,1,$1+$1,$4,$5,$6,$7,0*
20,1,$1+$1,$6,$7,$8,$9,0*
20,1,$1+$1,$8,$9,$2,$3,0*%
%AMHorizOval*
0 Thick line with rounded ends*
0 $1 width*
0 $2 $3 position (X,Y) of the first rounded end (center of the circle)*
0 $4 $5 position (X,Y) of the second rounded end (center of the circle)*
0 Add line between two ends*
20,1,$1,$2,$3,$4,$5,0*
0 Add two circle primitives to create the rounded ends*
1,1,$1,$2,$3*
1,1,$1,$4,$5*%
%AMRotRect*
0 Rectangle, with rotation*
0 The origin of the aperture is its center*
0 $1 length*
0 $2 width*
0 $3 Rotation angle, in degrees counterclockwise*
0 Add horizontal line*
21,1,$1,$2,0,0,$3*%
G04 Aperture macros list end*
%ADD10R,1.700000X1.700000*%
%ADD11O,1.700000X1.700000*%
%ADD12C,1.750000*%
%ADD13C,3.987800*%
%ADD14C,3.600000*%
%ADD15C,1.400000*%
%ADD16RoundRect,0.500000X0.500000X-0.500000X0.500000X0.500000X-0.500000X0.500000X-0.500000X-0.500000X0*%
%ADD17RoundRect,0.550000X0.550000X-1.150000X0.550000X1.150000X-0.550000X1.150000X-0.550000X-1.150000X0*%
%ADD18C,2.000000*%
%ADD19RotRect,1.700000X1.700000X160.000000*%
%ADD20HorizOval,1.700000X0.000000X0.000000X0.000000X0.000000X0*%
%ADD21C,0.650000*%
%ADD22O,1.000000X1.600000*%
%ADD23O,1.000000X2.100000*%
G04 APERTURE END LIST*
D10*
%TO.C,pinout_cirque1*%
X146314000Y-105130600D03*
D11*
X148854000Y-105130600D03*
X151394000Y-105130600D03*
X153934000Y-105130600D03*
%TD*%
D12*
%TO.C,K43*%
X95636442Y-125497085D03*
D13*
X90862803Y-123759623D03*
D12*
X86089164Y-122022161D03*
D14*
X88151305Y-120069707D03*
X94987085Y-119854716D03*
%TD*%
D12*
%TO.C,K25*%
X256446966Y-70637649D03*
D13*
X251386297Y-71080400D03*
D12*
X246325628Y-71523151D03*
D14*
X247369420Y-68882129D03*
X253473880Y-65798355D03*
%TD*%
D12*
%TO.C,K34*%
X164080000Y-95820569D03*
D13*
X169160000Y-95820569D03*
D12*
X174240000Y-95820569D03*
D14*
X172970000Y-98360569D03*
X166620000Y-100900569D03*
%TD*%
D12*
%TO.C,K24*%
X237469457Y-72297966D03*
D13*
X232408788Y-72740717D03*
D12*
X227348119Y-73183468D03*
D14*
X228391911Y-70542446D03*
X234496371Y-67458672D03*
%TD*%
D12*
%TO.C,K44*%
X140902500Y-138683069D03*
D13*
X135822500Y-138683069D03*
D12*
X130742500Y-138683069D03*
D14*
X132012500Y-136143069D03*
X138362500Y-133603069D03*
%TD*%
D12*
%TO.C,K46*%
X145030000Y-114870569D03*
D13*
X150110000Y-114870569D03*
D12*
X155190000Y-114870569D03*
D14*
X153920000Y-117410569D03*
X147570000Y-119950569D03*
%TD*%
D12*
%TO.C,K48*%
X169477500Y-138683069D03*
D13*
X164397500Y-138683069D03*
D12*
X159317500Y-138683069D03*
D14*
X160587500Y-136143069D03*
X166937500Y-133603069D03*
%TD*%
D10*
%TO.C,J4*%
X194580000Y-120585000D03*
D11*
X194580000Y-118045000D03*
%TD*%
D12*
%TO.C,K4*%
X83388369Y-54980774D03*
D13*
X88449038Y-55423525D03*
D12*
X93509707Y-55866276D03*
D14*
X92023164Y-58285923D03*
X85475952Y-60262818D03*
%TD*%
D12*
%TO.C,K13*%
X263642820Y-50885325D03*
D13*
X268703489Y-50442574D03*
D12*
X273764158Y-49999823D03*
D14*
X272720366Y-52640845D03*
X266615906Y-55724619D03*
%TD*%
D12*
%TO.C,K14*%
X34916863Y-69862834D03*
D13*
X29856194Y-69420083D03*
D12*
X24795525Y-68977332D03*
D14*
X26282068Y-66557685D03*
X32829280Y-64580790D03*
%TD*%
D12*
%TO.C,K18*%
X110826899Y-76504102D03*
D13*
X105766230Y-76061351D03*
D12*
X100705561Y-75618600D03*
D14*
X102192104Y-73198953D03*
X108739316Y-71222058D03*
%TD*%
D12*
%TO.C,K47*%
X164080000Y-114801579D03*
D13*
X169160000Y-114801579D03*
D12*
X174240000Y-114801579D03*
D14*
X172970000Y-117341579D03*
X166620000Y-119881579D03*
%TD*%
D12*
%TO.C,K1*%
X26455842Y-49999823D03*
D13*
X31516511Y-50442574D03*
D12*
X36577180Y-50885325D03*
D14*
X35090637Y-53304972D03*
X28543425Y-55281867D03*
%TD*%
D15*
%TO.C,SW3*%
X166897500Y-146183069D03*
X161897500Y-146183069D03*
D16*
X164397500Y-146183069D03*
D17*
X169997500Y-138683069D03*
X158797500Y-138683069D03*
D18*
X161897500Y-131683069D03*
X166897500Y-131683069D03*
%TD*%
D12*
%TO.C,K16*%
X72871881Y-73183468D03*
D13*
X67811212Y-72740717D03*
D12*
X62750543Y-72297966D03*
D14*
X64237086Y-69878319D03*
X70784298Y-67901424D03*
%TD*%
D12*
%TO.C,K37*%
X239129774Y-91275475D03*
D13*
X234069105Y-91718226D03*
D12*
X229008436Y-92160977D03*
D14*
X230052228Y-89519955D03*
X236156688Y-86436181D03*
%TD*%
D19*
%TO.C,J1*%
X103294925Y-122882723D03*
D20*
X102426194Y-125269542D03*
X101557463Y-127656362D03*
X100688732Y-130043181D03*
X99820000Y-132430000D03*
%TD*%
D12*
%TO.C,K45*%
X125980000Y-114870569D03*
D13*
X131060000Y-114870569D03*
D12*
X136140000Y-114870569D03*
D14*
X134870000Y-117410569D03*
X128520000Y-119950569D03*
%TD*%
D12*
%TO.C,K5*%
X102365878Y-56641091D03*
D13*
X107426547Y-57083842D03*
D12*
X112487216Y-57526593D03*
D14*
X111000673Y-59946240D03*
X104453461Y-61923135D03*
%TD*%
D12*
%TO.C,K2*%
X45433351Y-51660140D03*
D13*
X50494020Y-52102891D03*
D12*
X55554689Y-52545642D03*
D14*
X54068146Y-54965289D03*
X47520934Y-56942184D03*
%TD*%
D12*
%TO.C,K20*%
X145030000Y-76770569D03*
D13*
X150110000Y-76770569D03*
D12*
X155190000Y-76770569D03*
D14*
X153920000Y-79310569D03*
X147570000Y-81850569D03*
%TD*%
D12*
%TO.C,K36*%
X220152265Y-92935792D03*
D13*
X215091596Y-93378543D03*
D12*
X210030927Y-93821294D03*
D14*
X211074719Y-91180272D03*
X217179179Y-88096498D03*
%TD*%
D12*
%TO.C,K12*%
X244665311Y-52545642D03*
D13*
X249725980Y-52102891D03*
D12*
X254786649Y-51660140D03*
D14*
X253742857Y-54301162D03*
X247638397Y-57384936D03*
%TD*%
D12*
%TO.C,K42*%
X71723993Y-118138647D03*
D13*
X66721170Y-117256514D03*
D12*
X61718347Y-116374381D03*
D14*
X63410119Y-114093503D03*
X70104714Y-112694757D03*
%TD*%
D12*
%TO.C,K32*%
X125980000Y-95820569D03*
D13*
X131060000Y-95820569D03*
D12*
X136140000Y-95820569D03*
D14*
X134870000Y-98360569D03*
X128520000Y-100900569D03*
%TD*%
D12*
%TO.C,K10*%
X206710293Y-55866276D03*
D13*
X211770962Y-55423525D03*
D12*
X216831631Y-54980774D03*
D14*
X215787839Y-57621796D03*
X209683379Y-60705570D03*
%TD*%
D12*
%TO.C,K50*%
X238501653Y-116374381D03*
D13*
X233498830Y-117256514D03*
D12*
X228496007Y-118138647D03*
D14*
X229305646Y-115416702D03*
X235118109Y-111812624D03*
%TD*%
D12*
%TO.C,K49*%
X214155218Y-121964117D03*
D13*
X209381579Y-123701579D03*
D12*
X204607940Y-125439041D03*
D14*
X204932619Y-122617856D03*
X210030936Y-118059209D03*
%TD*%
D12*
%TO.C,K35*%
X201174756Y-94596109D03*
D13*
X196114087Y-95038860D03*
D12*
X191053418Y-95481611D03*
D14*
X192097210Y-92840589D03*
X198201670Y-89756815D03*
%TD*%
D21*
%TO.C,J0*%
X147211579Y-52411579D03*
X152991579Y-52411579D03*
D22*
X145781579Y-48761579D03*
D23*
X145781579Y-52941579D03*
D22*
X154421579Y-48761579D03*
D23*
X154421579Y-52941579D03*
%TD*%
D12*
%TO.C,K23*%
X218491948Y-73958283D03*
D13*
X213431279Y-74401034D03*
D12*
X208370610Y-74843785D03*
D14*
X209414402Y-72202763D03*
X215518862Y-69118989D03*
%TD*%
D12*
%TO.C,K27*%
X33256546Y-88840343D03*
D13*
X28195877Y-88397592D03*
D12*
X23135208Y-87954841D03*
D14*
X24621751Y-85535194D03*
X31168963Y-83558299D03*
%TD*%
D12*
%TO.C,K30*%
X90189073Y-93821294D03*
D13*
X85128404Y-93378543D03*
D12*
X80067735Y-92935792D03*
D14*
X81554278Y-90516145D03*
X88101490Y-88539250D03*
%TD*%
D10*
%TO.C,USB_breakout1*%
X160800000Y-60530000D03*
D11*
X160800000Y-57990000D03*
X160800000Y-55450000D03*
X160800000Y-52910000D03*
%TD*%
D12*
%TO.C,K19*%
X125980000Y-76770569D03*
D13*
X131060000Y-76770569D03*
D12*
X136140000Y-76770569D03*
D14*
X134870000Y-79310569D03*
X128520000Y-81850569D03*
%TD*%
D12*
%TO.C,K33*%
X145030000Y-95820569D03*
D13*
X150110000Y-95820569D03*
D12*
X155190000Y-95820569D03*
D14*
X153920000Y-98360569D03*
X147570000Y-100900569D03*
%TD*%
D12*
%TO.C,K7*%
X145030000Y-57720569D03*
D13*
X150110000Y-57720569D03*
D12*
X155190000Y-57720569D03*
D14*
X153920000Y-60260569D03*
X147570000Y-62800569D03*
%TD*%
D12*
%TO.C,K6*%
X125980000Y-57720569D03*
D13*
X131060000Y-57720569D03*
D12*
X136140000Y-57720569D03*
D14*
X134870000Y-60260569D03*
X128520000Y-62800569D03*
%TD*%
D12*
%TO.C,K39*%
X277084792Y-87954841D03*
D13*
X272024123Y-88397592D03*
D12*
X266963454Y-88840343D03*
D14*
X268007246Y-86199321D03*
X274111706Y-83115547D03*
%TD*%
D12*
%TO.C,K31*%
X109166582Y-95481611D03*
D13*
X104105913Y-95038860D03*
D12*
X99045244Y-94596109D03*
D14*
X100531787Y-92176462D03*
X107078999Y-90199567D03*
%TD*%
D12*
%TO.C,K3*%
X64410860Y-53320457D03*
D13*
X69471529Y-53763208D03*
D12*
X74532198Y-54205959D03*
D14*
X73045655Y-56625606D03*
X66498443Y-58602501D03*
%TD*%
D12*
%TO.C,K41*%
X50096561Y-114932335D03*
D13*
X45035892Y-114489584D03*
D12*
X39975223Y-114046833D03*
D14*
X41461766Y-111627186D03*
X48008978Y-109650291D03*
%TD*%
D12*
%TO.C,K22*%
X199514439Y-75618600D03*
D13*
X194453770Y-76061351D03*
D12*
X189393101Y-76504102D03*
D14*
X190436893Y-73863080D03*
X196541353Y-70779306D03*
%TD*%
D12*
%TO.C,K40*%
X31132248Y-113284330D03*
D13*
X26071579Y-112841579D03*
D12*
X21010910Y-112398828D03*
D14*
X22497453Y-109979181D03*
X29044665Y-108002286D03*
%TD*%
D12*
%TO.C,K15*%
X53894372Y-71523151D03*
D13*
X48833703Y-71080400D03*
D12*
X43773034Y-70637649D03*
D14*
X45259577Y-68218002D03*
X51806789Y-66241107D03*
%TD*%
D12*
%TO.C,K17*%
X91849390Y-74843785D03*
D13*
X86788721Y-74401034D03*
D12*
X81728052Y-73958283D03*
D14*
X83214595Y-71538636D03*
X89761807Y-69561741D03*
%TD*%
D12*
%TO.C,K21*%
X164080000Y-76941579D03*
D13*
X169160000Y-76941579D03*
D12*
X174240000Y-76941579D03*
D14*
X172970000Y-79481579D03*
X166620000Y-82021579D03*
%TD*%
D12*
%TO.C,K52*%
X279222287Y-112386516D03*
D13*
X274161618Y-112829267D03*
D12*
X269100949Y-113272018D03*
D14*
X270144741Y-110630996D03*
X276249201Y-107547222D03*
%TD*%
D12*
%TO.C,K38*%
X258107283Y-89615158D03*
D13*
X253046614Y-90057909D03*
D12*
X247985945Y-90500660D03*
D14*
X249029737Y-87859638D03*
X255134197Y-84775864D03*
%TD*%
D15*
%TO.C,SW1*%
X138322500Y-146183069D03*
X133322500Y-146183069D03*
D16*
X135822500Y-146183069D03*
D17*
X141422500Y-138683069D03*
X130222500Y-138683069D03*
D18*
X133322500Y-131683069D03*
X138322500Y-131683069D03*
%TD*%
D12*
%TO.C,K51*%
X260244778Y-114046833D03*
D13*
X255184109Y-114489584D03*
D12*
X250123440Y-114932335D03*
D14*
X251167232Y-112291313D03*
X257271692Y-109207539D03*
%TD*%
D12*
%TO.C,K29*%
X71211564Y-92160977D03*
D13*
X66150895Y-91718226D03*
D12*
X61090226Y-91275475D03*
D14*
X62576769Y-88855828D03*
X69123981Y-86878933D03*
%TD*%
D12*
%TO.C,K8*%
X164080000Y-57720569D03*
D13*
X169160000Y-57720569D03*
D12*
X174240000Y-57720569D03*
D14*
X172970000Y-60260569D03*
X166620000Y-62800569D03*
%TD*%
D12*
%TO.C,K28*%
X52234055Y-90500660D03*
D13*
X47173386Y-90057909D03*
D12*
X42112717Y-89615158D03*
D14*
X43599260Y-87195511D03*
X50146472Y-85218616D03*
%TD*%
D12*
%TO.C,K11*%
X225687802Y-54205959D03*
D13*
X230748471Y-53763208D03*
D12*
X235809140Y-53320457D03*
D14*
X234765348Y-55961479D03*
X228660888Y-59045253D03*
%TD*%
D12*
%TO.C,K26*%
X275424475Y-68977332D03*
D13*
X270363806Y-69420083D03*
D12*
X265303137Y-69862834D03*
D14*
X266346929Y-67221812D03*
X272451389Y-64138038D03*
%TD*%
D12*
%TO.C,K9*%
X187710910Y-57526593D03*
D13*
X192771579Y-57083842D03*
D12*
X197832248Y-56641091D03*
D14*
X196788456Y-59282113D03*
X190683996Y-62365887D03*
%TD*%
M02*
