M48
; DRILL file {KiCad 7.0.9} date Sat 06 Jan 2024 21:29:53 CET
; FORMAT={-:-/ absolute / metric / decimal}
; #@! TF.CreationDate,2024-01-06T21:29:53+01:00
; #@! TF.GenerationSoftware,Kicad,Pcbnew,7.0.9
; #@! TF.FileFunction,NonPlated,1,2,NPTH
FMAT,2
METRIC
; #@! TA.AperFunction,NonPlated,NPTH,ComponentDrill
T1C0.650
; #@! TA.AperFunction,NonPlated,NPTH,ComponentDrill
T2C1.750
; #@! TA.AperFunction,NonPlated,NPTH,ComponentDrill
T3C3.988
%
G90
G05
T1
X147.212Y-52.412
X152.992Y-52.412
T2
X21.011Y-112.399
X23.135Y-87.955
X24.796Y-68.977
X26.456Y-50.0
X31.132Y-113.284
X33.257Y-88.84
X34.917Y-69.863
X36.577Y-50.885
X39.975Y-114.047
X42.113Y-89.615
X43.773Y-70.638
X45.433Y-51.66
X50.097Y-114.932
X52.234Y-90.501
X53.894Y-71.523
X55.555Y-52.546
X61.09Y-91.275
X61.718Y-116.374
X62.751Y-72.298
X64.411Y-53.32
X71.212Y-92.161
X71.724Y-118.139
X72.872Y-73.183
X74.532Y-54.206
X80.068Y-92.936
X81.728Y-73.958
X83.388Y-54.981
X86.089Y-122.022
X90.189Y-93.821
X91.849Y-74.844
X93.51Y-55.866
X95.636Y-125.497
X99.045Y-94.596
X100.706Y-75.619
X102.366Y-56.641
X109.167Y-95.482
X110.827Y-76.504
X112.487Y-57.527
X125.98Y-57.721
X125.98Y-76.771
X125.98Y-95.821
X125.98Y-114.871
X130.743Y-138.683
X136.14Y-57.721
X136.14Y-76.771
X136.14Y-95.821
X136.14Y-114.871
X140.903Y-138.683
X145.03Y-57.721
X145.03Y-76.771
X145.03Y-95.821
X145.03Y-114.871
X155.19Y-57.721
X155.19Y-76.771
X155.19Y-95.821
X155.19Y-114.871
X159.317Y-138.683
X164.08Y-57.721
X164.08Y-76.942
X164.08Y-95.821
X164.08Y-114.802
X169.477Y-138.683
X174.24Y-57.721
X174.24Y-76.942
X174.24Y-95.821
X174.24Y-114.802
X187.711Y-57.527
X189.393Y-76.504
X191.053Y-95.482
X197.832Y-56.641
X199.514Y-75.619
X201.175Y-94.596
X204.608Y-125.439
X206.71Y-55.866
X208.371Y-74.844
X210.031Y-93.821
X214.155Y-121.964
X216.832Y-54.981
X218.492Y-73.958
X220.152Y-92.936
X225.688Y-54.206
X227.348Y-73.183
X228.496Y-118.139
X229.008Y-92.161
X235.809Y-53.32
X237.469Y-72.298
X238.502Y-116.374
X239.13Y-91.275
X244.665Y-52.546
X246.326Y-71.523
X247.986Y-90.501
X250.123Y-114.932
X254.787Y-51.66
X256.447Y-70.638
X258.107Y-89.615
X260.245Y-114.047
X263.643Y-50.885
X265.303Y-69.863
X266.963Y-88.84
X269.101Y-113.272
X273.764Y-50.0
X275.424Y-68.977
X277.085Y-87.955
X279.222Y-112.387
T3
X26.072Y-112.842
X28.196Y-88.398
X29.856Y-69.42
X31.517Y-50.443
X45.036Y-114.49
X47.173Y-90.058
X48.834Y-71.08
X50.494Y-52.103
X66.151Y-91.718
X66.721Y-117.257
X67.811Y-72.741
X69.472Y-53.763
X85.128Y-93.379
X86.789Y-74.401
X88.449Y-55.424
X90.863Y-123.76
X104.106Y-95.039
X105.766Y-76.061
X107.427Y-57.084
X131.06Y-57.721
X131.06Y-76.771
X131.06Y-95.821
X131.06Y-114.871
X135.822Y-138.683
X150.11Y-57.721
X150.11Y-76.771
X150.11Y-95.821
X150.11Y-114.871
X164.397Y-138.683
X169.16Y-57.721
X169.16Y-76.942
X169.16Y-95.821
X169.16Y-114.802
X192.772Y-57.084
X194.454Y-76.061
X196.114Y-95.039
X209.382Y-123.702
X211.771Y-55.424
X213.431Y-74.401
X215.092Y-93.379
X230.748Y-53.763
X232.409Y-72.741
X233.499Y-117.257
X234.069Y-91.718
X249.726Y-52.103
X251.386Y-71.08
X253.047Y-90.058
X255.184Y-114.49
X268.703Y-50.443
X270.364Y-69.42
X272.024Y-88.398
X274.162Y-112.829
T0
M30
