M48
; DRILL file {KiCad 7.0.9} date Sat 06 Jan 2024 21:29:53 CET
; FORMAT={-:-/ absolute / metric / decimal}
; #@! TF.CreationDate,2024-01-06T21:29:53+01:00
; #@! TF.GenerationSoftware,Kicad,Pcbnew,7.0.9
; #@! TF.FileFunction,Plated,1,2,PTH
FMAT,2
METRIC
; #@! TA.AperFunction,Plated,PTH,ComponentDrill
T1C0.350
; #@! TA.AperFunction,Plated,PTH,ViaDrill
T2C0.400
; #@! TA.AperFunction,Plated,PTH,ComponentDrill
T3C0.600
; #@! TA.AperFunction,Plated,PTH,ComponentDrill
T4C1.000
; #@! TA.AperFunction,Plated,PTH,ComponentDrill
T5C1.500
; #@! TA.AperFunction,Plated,PTH,ComponentDrill
T6C3.000
%
G90
G05
T1
X148.298Y-127.711
X149.2Y-126.809
X149.2Y-128.612
X150.102Y-125.907
X150.102Y-127.711
X150.102Y-129.514
X151.003Y-126.809
X151.003Y-128.612
X151.905Y-127.711
T2
X21.748Y-93.016
X21.84Y-116.64
X22.78Y-94.92
X22.94Y-113.25
X24.45Y-92.474
X24.86Y-90.44
X25.095Y-82.042
X27.479Y-106.184
X29.48Y-47.99
X29.552Y-117.359
X31.34Y-56.12
X31.678Y-98.159
X32.692Y-96.579
X32.98Y-61.69
X35.944Y-46.853
X35.96Y-48.251
X36.303Y-79.98
X36.443Y-55.647
X36.555Y-75.071
X36.703Y-79.013
X38.17Y-113.85
X40.218Y-118.259
X42.959Y-93.648
X44.149Y-74.671
X44.57Y-91.93
X47.75Y-113.94
X55.064Y-48.513
X55.1Y-49.912
X61.648Y-95.199
X62.19Y-121.34
X62.58Y-76.331
X62.81Y-86.1
X63.72Y-93.41
X70.63Y-73.05
X73.686Y-50.173
X73.686Y-51.572
X75.71Y-108.551
X75.81Y-106.221
X76.71Y-108.551
X76.81Y-106.221
X80.609Y-96.951
X81.56Y-77.991
X81.8Y-87.71
X82.68Y-94.98
X85.2Y-126.9
X87.35Y-106.17
X90.7Y-105.64
X92.84Y-51.833
X92.85Y-53.232
X95.28Y-106.89
X97.85Y-106.191
X99.078Y-98.629
X101.0Y-79.652
X101.59Y-96.25
X104.732Y-115.839
X105.76Y-109.24
X107.27Y-87.34
X110.6Y-55.239
X111.462Y-63.0
X111.49Y-54.24
X111.54Y-52.6
X111.798Y-100.385
X111.86Y-51.5
X112.47Y-68.01
X112.785Y-100.69
X113.25Y-83.087
X114.288Y-67.999
X115.177Y-68.457
X115.986Y-69.627
X115.986Y-70.627
X116.036Y-115.714
X116.75Y-115.015
X117.549Y-114.217
X118.543Y-114.317
X119.049Y-112.845
X119.318Y-111.883
X119.98Y-113.209
X119.983Y-66.194
X120.21Y-110.99
X122.334Y-100.577
X122.518Y-102.371
X122.758Y-82.9
X124.841Y-128.524
X126.08Y-128.663
X126.96Y-54.24
X128.22Y-49.63
X128.23Y-128.663
X128.35Y-70.72
X129.23Y-128.663
X130.145Y-128.262
X130.74Y-123.57
X131.31Y-146.12
X131.313Y-130.862
X132.443Y-142.219
X132.83Y-74.25
X133.177Y-143.464
X134.916Y-111.161
X134.93Y-112.559
X135.152Y-92.151
X135.16Y-93.549
X135.31Y-73.55
X135.6Y-71.01
X136.35Y-55.66
X137.16Y-119.507
X137.577Y-127.463
X137.93Y-57.17
X138.493Y-127.063
X139.457Y-126.663
X139.805Y-56.75
X140.081Y-130.862
X140.388Y-126.263
X140.45Y-123.3
X141.51Y-67.32
X141.566Y-57.74
X141.86Y-89.34
X143.01Y-57.78
X143.11Y-52.8
X144.42Y-122.85
X146.63Y-137.1
X146.83Y-134.37
X148.152Y-51.81
X149.731Y-64.22
X150.87Y-66.08
X151.82Y-63.88
X152.55Y-55.39
X152.578Y-68.971
X153.841Y-143.414
X153.93Y-112.559
X153.94Y-93.549
X153.966Y-111.161
X154.004Y-92.149
X154.2Y-121.7
X154.315Y-132.81
X154.442Y-73.551
X154.48Y-74.95
X155.079Y-133.603
X155.152Y-132.111
X155.163Y-135.432
X155.237Y-141.135
X155.33Y-127.65
X155.764Y-134.331
X155.94Y-141.957
X156.254Y-129.584
X156.651Y-140.352
X156.694Y-142.614
X156.85Y-141.4
X156.989Y-128.884
X157.11Y-87.529
X157.12Y-84.93
X157.69Y-142.951
X157.87Y-128.194
X158.426Y-87.596
X158.81Y-101.495
X158.97Y-84.6
X159.126Y-88.368
X159.211Y-99.818
X159.69Y-62.802
X159.887Y-63.989
X160.01Y-89.57
X160.02Y-143.65
X160.812Y-75.349
X161.671Y-142.316
X162.609Y-75.349
X162.716Y-91.38
X163.437Y-90.689
X163.999Y-50.403
X164.61Y-90.71
X165.52Y-51.81
X165.527Y-52.822
X172.212Y-121.666
X172.93Y-53.54
X173.19Y-108.97
X173.556Y-122.087
X174.078Y-126.286
X174.466Y-131.142
X174.52Y-122.487
X174.908Y-132.112
X175.021Y-135.938
X175.287Y-133.037
X175.56Y-122.487
X175.61Y-133.983
X176.196Y-127.842
X179.649Y-110.326
X179.649Y-118.041
X180.349Y-118.884
X185.07Y-68.765
X185.07Y-83.232
X185.07Y-84.232
X185.07Y-114.709
X185.46Y-122.7
X185.78Y-100.99
X186.12Y-68.765
X186.396Y-87.146
X186.554Y-55.676
X187.103Y-86.439
X187.554Y-55.676
X187.6Y-68.81
X191.01Y-80.67
X191.94Y-100.385
X194.92Y-116.129
X196.555Y-52.645
X198.44Y-121.474
X198.671Y-114.38
X198.835Y-122.435
X199.15Y-82.7
X200.921Y-77.76
X201.06Y-53.24
X203.607Y-54.773
X207.14Y-128.87
X207.74Y-130.3
X208.208Y-77.759
X210.008Y-96.7
X215.09Y-50.79
X216.03Y-53.359
X217.413Y-111.081
X220.008Y-76.069
X221.489Y-110.681
X221.74Y-103.568
X222.489Y-110.681
X223.19Y-105.83
X223.488Y-110.681
X223.679Y-109.501
X224.488Y-110.681
X225.487Y-110.681
X226.352Y-110.181
X227.598Y-76.069
X228.628Y-120.579
X229.028Y-95.079
X229.83Y-86.84
X234.05Y-64.77
X234.08Y-49.25
X234.58Y-51.689
X238.783Y-74.523
X246.558Y-74.519
X247.8Y-110.16
X247.938Y-93.459
X252.57Y-118.58
X252.87Y-47.44
X254.23Y-50.058
X255.82Y-106.37
X257.88Y-72.84
X267.28Y-74.04
X267.71Y-83.47
X269.83Y-92.11
X270.23Y-60.78
X272.0Y-116.28
X274.547Y-104.028
X275.422Y-105.182
X275.91Y-72.74
X276.085Y-91.49
X276.37Y-104.482
X276.791Y-76.28
X276.9Y-102.96
X277.25Y-116.17
X278.48Y-118.09
T4
X99.82Y-132.43
X100.689Y-130.043
X101.557Y-127.656
X102.426Y-125.27
X103.295Y-122.883
X133.322Y-131.683
X133.322Y-146.183
X135.822Y-146.183
X138.322Y-131.683
X138.322Y-146.183
X146.314Y-105.131
X148.854Y-105.131
X151.394Y-105.131
X153.934Y-105.131
X160.8Y-52.91
X160.8Y-55.45
X160.8Y-57.99
X160.8Y-60.53
X161.897Y-131.683
X161.897Y-146.183
X164.397Y-146.183
X166.897Y-131.683
X166.897Y-146.183
X194.58Y-118.045
X194.58Y-120.585
T6
X22.497Y-109.979
X24.622Y-85.535
X26.282Y-66.558
X28.543Y-55.282
X29.045Y-108.002
X31.169Y-83.558
X32.829Y-64.581
X35.091Y-53.305
X41.462Y-111.627
X43.599Y-87.196
X45.26Y-68.218
X47.521Y-56.942
X48.009Y-109.65
X50.146Y-85.219
X51.807Y-66.241
X54.068Y-54.965
X62.577Y-88.856
X63.41Y-114.094
X64.237Y-69.878
X66.498Y-58.603
X69.124Y-86.879
X70.105Y-112.695
X70.784Y-67.901
X73.046Y-56.626
X81.554Y-90.516
X83.215Y-71.539
X85.476Y-60.263
X88.101Y-88.539
X88.151Y-120.07
X89.762Y-69.562
X92.023Y-58.286
X94.987Y-119.855
X100.532Y-92.176
X102.192Y-73.199
X104.453Y-61.923
X107.079Y-90.2
X108.739Y-71.222
X111.001Y-59.946
X128.52Y-62.801
X128.52Y-81.851
X128.52Y-100.901
X128.52Y-119.951
X132.012Y-136.143
X134.87Y-60.261
X134.87Y-79.311
X134.87Y-98.361
X134.87Y-117.411
X138.362Y-133.603
X147.57Y-62.801
X147.57Y-81.851
X147.57Y-100.901
X147.57Y-119.951
X153.92Y-60.261
X153.92Y-79.311
X153.92Y-98.361
X153.92Y-117.411
X160.588Y-136.143
X166.62Y-62.801
X166.62Y-82.022
X166.62Y-100.901
X166.62Y-119.882
X166.938Y-133.603
X172.97Y-60.261
X172.97Y-79.482
X172.97Y-98.361
X172.97Y-117.342
X190.437Y-73.863
X190.684Y-62.366
X192.097Y-92.841
X196.541Y-70.779
X196.788Y-59.282
X198.202Y-89.757
X204.933Y-122.618
X209.414Y-72.203
X209.683Y-60.706
X210.031Y-118.059
X211.075Y-91.18
X215.519Y-69.119
X215.788Y-57.622
X217.179Y-88.096
X228.392Y-70.542
X228.661Y-59.045
X229.306Y-115.417
X230.052Y-89.52
X234.496Y-67.459
X234.765Y-55.961
X235.118Y-111.813
X236.157Y-86.436
X247.369Y-68.882
X247.638Y-57.385
X249.03Y-87.86
X251.167Y-112.291
X253.474Y-65.798
X253.743Y-54.301
X255.134Y-84.776
X257.272Y-109.208
X266.347Y-67.222
X266.616Y-55.725
X268.007Y-86.199
X270.145Y-110.631
X272.451Y-64.138
X272.72Y-52.641
X274.112Y-83.116
X276.249Y-107.547
T3
G00X145.782Y-48.462
M15
G01X145.782Y-49.062
M16
G05
G00X145.782Y-52.392
M15
G01X145.782Y-53.492
M16
G05
G00X154.422Y-48.462
M15
G01X154.422Y-49.062
M16
G05
G00X154.422Y-52.392
M15
G01X154.422Y-53.492
M16
G05
T5
G00X130.222Y-139.333
M15
G01X130.222Y-138.033
M16
G05
G00X141.422Y-139.333
M15
G01X141.422Y-138.033
M16
G05
G00X158.797Y-139.333
M15
G01X158.797Y-138.033
M16
G05
G00X169.998Y-139.333
M15
G01X169.998Y-138.033
M16
G05
T0
M30
