%TF.GenerationSoftware,KiCad,Pcbnew,7.0.9*%
%TF.CreationDate,2024-01-06T21:29:47+01:00*%
%TF.ProjectId,rp2040_base,72703230-3430-45f6-9261-73652e6b6963,rev?*%
%TF.SameCoordinates,Original*%
%TF.FileFunction,Profile,NP*%
%FSLAX46Y46*%
G04 Gerber Fmt 4.6, Leading zero omitted, Abs format (unit mm)*
G04 Created by KiCad (PCBNEW 7.0.9) date 2024-01-06 21:29:47*
%MOMM*%
%LPD*%
G01*
G04 APERTURE LIST*
%TA.AperFunction,Profile*%
%ADD10C,0.100000*%
%TD*%
G04 APERTURE END LIST*
D10*
X49784084Y-38991122D02*
X50045552Y-36002538D01*
X45745827Y-127601353D02*
X45484360Y-130589937D01*
X72225639Y-126350513D02*
X81548793Y-128883022D01*
X241781670Y-123919438D02*
X248907992Y-123069232D01*
X282828421Y-120101579D02*
X281521085Y-105158658D01*
X53470005Y-39313598D02*
X53731472Y-36325014D01*
X142823000Y-146920569D02*
X157397000Y-146920569D01*
X208026443Y-47720569D02*
X242055371Y-44743424D01*
X277283137Y-56718691D02*
X281521085Y-105158658D01*
X246488528Y-36325014D02*
X244496139Y-36499325D01*
X24244199Y-41775771D02*
X22936863Y-56718691D01*
X37365283Y-121849051D02*
X32334499Y-121408915D01*
X250435916Y-38991122D02*
X250174448Y-36002538D01*
X50045552Y-36002538D02*
X48053162Y-35828226D01*
X58164629Y-44743424D02*
X92193557Y-47720569D01*
X241781670Y-123919438D02*
X227994361Y-126350513D01*
X244496139Y-36499325D02*
X242055371Y-44743424D01*
X218671207Y-128883022D02*
X205515510Y-133671304D01*
X252166838Y-35828226D02*
X256002097Y-43523243D01*
X51312008Y-123069232D02*
X58438330Y-123919438D01*
X49784094Y-38991123D02*
G75*
G03*
X53470004Y-39313598I1842956J-161227D01*
G01*
X44217903Y-43523243D02*
X39187120Y-43083107D01*
X19616229Y-94673709D02*
X18698915Y-105158658D01*
X252743251Y-130764249D02*
X248907992Y-123069232D01*
X246749995Y-39313598D02*
X246488528Y-36325014D01*
X142823000Y-146920569D02*
X127823000Y-146920569D01*
X252743251Y-130764249D02*
X254735640Y-130589937D01*
X47476749Y-130764249D02*
X51312008Y-123069232D01*
X17391579Y-120101579D02*
X18698915Y-105158658D01*
X20836410Y-80726983D02*
X19616229Y-94673709D01*
X261032880Y-43083107D02*
X275975801Y-41775771D01*
X22936863Y-56718691D02*
X20836410Y-80726983D01*
X45745834Y-127601354D02*
G75*
G03*
X42059907Y-127278877I-1842964J161234D01*
G01*
X150110000Y-47720569D02*
X143110000Y-47720569D01*
X41798439Y-130267461D02*
X39806050Y-130093150D01*
X205515510Y-133671304D02*
X172397000Y-146920569D01*
X258160093Y-127278877D02*
X258421561Y-130267461D01*
X258421561Y-130267461D02*
X260413950Y-130093150D01*
X267885501Y-121408915D02*
X282828421Y-120101579D01*
X48053162Y-35828226D02*
X44217903Y-43523243D01*
X150110000Y-47720569D02*
X157110000Y-47720569D01*
X275975801Y-41775771D02*
X277283137Y-56718691D01*
X41798439Y-130267461D02*
X42059907Y-127278877D01*
X246750077Y-39313591D02*
G75*
G03*
X250435916Y-38991122I1842923J161191D01*
G01*
X250174448Y-36002538D02*
X252166838Y-35828226D01*
X261032880Y-43083107D02*
X256002097Y-43523243D01*
X260413950Y-130093150D02*
X262854717Y-121849051D01*
X55723861Y-36499325D02*
X58164629Y-44743424D01*
X53731472Y-36325014D02*
X55723861Y-36499325D01*
X81548793Y-128883022D02*
X94704489Y-133671304D01*
X157110000Y-47720569D02*
X208026443Y-47720569D01*
X143110000Y-47720569D02*
X92193557Y-47720569D01*
X157397000Y-146920569D02*
X172397000Y-146920569D01*
X39806050Y-130093150D02*
X37365283Y-121849051D01*
X45484360Y-130589937D02*
X47476749Y-130764249D01*
X254474173Y-127601353D02*
X254735640Y-130589937D01*
X94704489Y-133671304D02*
X127823000Y-146920569D01*
X218671207Y-128883022D02*
X227994361Y-126350513D01*
X39187120Y-43083107D02*
X24244199Y-41775771D01*
X32334499Y-121408915D02*
X17391579Y-120101579D01*
X262854717Y-121849051D02*
X267885501Y-121408915D01*
X58438330Y-123919438D02*
X72225639Y-126350513D01*
X258160047Y-127278881D02*
G75*
G03*
X254474174Y-127601353I-1842947J-161119D01*
G01*
%TO.C,LED43*%
X236144129Y-95930562D02*
X236266643Y-97330897D01*
X235434018Y-98203945D02*
X233851161Y-98342427D01*
X233589694Y-95353844D02*
X235172552Y-95215362D01*
X232879583Y-97627226D02*
X232757069Y-96226891D01*
X236266642Y-97330897D02*
G75*
G03*
X236334841Y-97542637I498088J43575D01*
G01*
X235691270Y-98249998D02*
G75*
G03*
X236334841Y-97542636I213674J452043D01*
G01*
X236174525Y-95710196D02*
G75*
G03*
X236144130Y-95930561I467682J-176786D01*
G01*
X236174522Y-95710195D02*
G75*
G03*
X235417898Y-95125337I-467701J176787D01*
G01*
X235172552Y-95215361D02*
G75*
G03*
X235417897Y-95125336I-43581J498105D01*
G01*
X235691270Y-98249999D02*
G75*
G03*
X235434018Y-98203946I-213675J-452052D01*
G01*
X233332442Y-95307789D02*
G75*
G03*
X233589692Y-95353843I213675J452052D01*
G01*
X233851161Y-98342429D02*
G75*
G03*
X233605816Y-98432453I43580J-498106D01*
G01*
X232849193Y-97847594D02*
G75*
G03*
X233605814Y-98432449I467697J-176789D01*
G01*
X232849186Y-97847591D02*
G75*
G03*
X232879583Y-97627227I-468129J176851D01*
G01*
X233332442Y-95307790D02*
G75*
G03*
X232688870Y-96015151I-213674J-452043D01*
G01*
X232757081Y-96226890D02*
G75*
G03*
X232688870Y-96015151I-498596J-43765D01*
G01*
%TO.C,LED41*%
X228673447Y-49550872D02*
X228550933Y-48150537D01*
X229383558Y-47277489D02*
X230966415Y-47139007D01*
X231227882Y-50127590D02*
X229645024Y-50266072D01*
X231937993Y-47854208D02*
X232060507Y-49254543D01*
X228550934Y-48150537D02*
G75*
G03*
X228482735Y-47938797I-498088J-43575D01*
G01*
X229126306Y-47231436D02*
G75*
G03*
X228482735Y-47938798I-213674J-452043D01*
G01*
X228643051Y-49771238D02*
G75*
G03*
X228673446Y-49550873I-467682J176786D01*
G01*
X228643054Y-49771239D02*
G75*
G03*
X229399678Y-50356097I467701J-176787D01*
G01*
X229645024Y-50266073D02*
G75*
G03*
X229399679Y-50356098I43581J-498105D01*
G01*
X229126306Y-47231435D02*
G75*
G03*
X229383558Y-47277488I213675J452052D01*
G01*
X231485134Y-50173645D02*
G75*
G03*
X231227884Y-50127591I-213675J-452052D01*
G01*
X230966415Y-47139005D02*
G75*
G03*
X231211760Y-47048981I-43580J498106D01*
G01*
X231968383Y-47633840D02*
G75*
G03*
X231211762Y-47048985I-467697J176789D01*
G01*
X231968390Y-47633843D02*
G75*
G03*
X231937993Y-47854207I468129J-176851D01*
G01*
X231485134Y-50173644D02*
G75*
G03*
X232128706Y-49466283I213674J452043D01*
G01*
X232060495Y-49254544D02*
G75*
G03*
X232128706Y-49466283I498596J43765D01*
G01*
%TO.C,LED38*%
X215506303Y-78613370D02*
X215628817Y-80013705D01*
X214796192Y-80886753D02*
X213213335Y-81025235D01*
X212951868Y-78036652D02*
X214534726Y-77898170D01*
X212241757Y-80310034D02*
X212119243Y-78909699D01*
X215628816Y-80013705D02*
G75*
G03*
X215697015Y-80225445I498088J43575D01*
G01*
X215053444Y-80932806D02*
G75*
G03*
X215697015Y-80225444I213674J452043D01*
G01*
X215536699Y-78393004D02*
G75*
G03*
X215506304Y-78613369I467682J-176786D01*
G01*
X215536696Y-78393003D02*
G75*
G03*
X214780072Y-77808145I-467701J176787D01*
G01*
X214534726Y-77898169D02*
G75*
G03*
X214780071Y-77808144I-43581J498105D01*
G01*
X215053444Y-80932807D02*
G75*
G03*
X214796192Y-80886754I-213675J-452052D01*
G01*
X212694616Y-77990597D02*
G75*
G03*
X212951866Y-78036651I213675J452052D01*
G01*
X213213335Y-81025237D02*
G75*
G03*
X212967990Y-81115261I43580J-498106D01*
G01*
X212211367Y-80530402D02*
G75*
G03*
X212967988Y-81115257I467697J-176789D01*
G01*
X212211360Y-80530399D02*
G75*
G03*
X212241757Y-80310035I-468129J176851D01*
G01*
X212694616Y-77990598D02*
G75*
G03*
X212051044Y-78697959I-213674J-452043D01*
G01*
X212119255Y-78909698D02*
G75*
G03*
X212051044Y-78697959I-498596J-43765D01*
G01*
%TO.C,LED17*%
X68074639Y-121920219D02*
X67830544Y-123304548D01*
X66800329Y-123932349D02*
X65235564Y-123656439D01*
X65756509Y-120702016D02*
X67321275Y-120977927D01*
X64482200Y-122714145D02*
X64726294Y-121329816D01*
X67830544Y-123304548D02*
G75*
G03*
X67841617Y-123526724I492394J-86824D01*
G01*
X67036896Y-124043414D02*
G75*
G03*
X67841617Y-123526723I323391J381337D01*
G01*
X68161033Y-121715229D02*
G75*
G03*
X68074639Y-121920219I405991J-291807D01*
G01*
X68161032Y-121715229D02*
G75*
G03*
X67581560Y-120954469I-406010J291814D01*
G01*
X67321275Y-120977926D02*
G75*
G03*
X67581560Y-120954469I86823J492404D01*
G01*
X67036895Y-124043415D02*
G75*
G03*
X66800329Y-123932349I-323393J-381346D01*
G01*
X65519943Y-120590949D02*
G75*
G03*
X65756508Y-120702014I323394J381346D01*
G01*
X65235564Y-123656437D02*
G75*
G03*
X64975279Y-123679896I-86817J-492438D01*
G01*
X64395810Y-122919138D02*
G75*
G03*
X64975278Y-123679894I406005J-291814D01*
G01*
X64395806Y-122919135D02*
G75*
G03*
X64482199Y-122714146I-406342J291955D01*
G01*
X65519942Y-120590950D02*
G75*
G03*
X64715222Y-121107640I-323390J-381337D01*
G01*
X64726305Y-121329818D02*
G75*
G03*
X64715220Y-121107640I-492933J86772D01*
G01*
%TO.C,LED45*%
X247650956Y-47890555D02*
X247528442Y-46490220D01*
X248361067Y-45617172D02*
X249943924Y-45478690D01*
X250205391Y-48467273D02*
X248622533Y-48605755D01*
X250915502Y-46193891D02*
X251038016Y-47594226D01*
X247528443Y-46490220D02*
G75*
G03*
X247460244Y-46278480I-498088J-43575D01*
G01*
X248103815Y-45571119D02*
G75*
G03*
X247460244Y-46278481I-213674J-452043D01*
G01*
X247620560Y-48110921D02*
G75*
G03*
X247650955Y-47890556I-467682J176786D01*
G01*
X247620563Y-48110922D02*
G75*
G03*
X248377187Y-48695780I467701J-176787D01*
G01*
X248622533Y-48605756D02*
G75*
G03*
X248377188Y-48695781I43581J-498105D01*
G01*
X248103815Y-45571118D02*
G75*
G03*
X248361067Y-45617171I213675J452052D01*
G01*
X250462643Y-48513328D02*
G75*
G03*
X250205393Y-48467274I-213675J-452052D01*
G01*
X249943924Y-45478688D02*
G75*
G03*
X250189269Y-45388664I-43580J498106D01*
G01*
X250945892Y-45973523D02*
G75*
G03*
X250189271Y-45388668I-467697J176789D01*
G01*
X250945899Y-45973526D02*
G75*
G03*
X250915502Y-46193890I468129J-176851D01*
G01*
X250462643Y-48513327D02*
G75*
G03*
X251106215Y-47805966I213674J452043D01*
G01*
X251038004Y-47594227D02*
G75*
G03*
X251106215Y-47805966I498596J43765D01*
G01*
%TO.C,LED24*%
X129360001Y-72393412D02*
X129360001Y-70987728D01*
X130265548Y-70190570D02*
X131854452Y-70190570D01*
X131854452Y-73190569D02*
X130265547Y-73190569D01*
X132759999Y-70987728D02*
X132759999Y-72393412D01*
X129360000Y-70987728D02*
G75*
G03*
X129310515Y-70770850I-499989J2D01*
G01*
X130013289Y-70122271D02*
G75*
G03*
X129310517Y-70770851I-252259J-431700D01*
G01*
X129310516Y-72610290D02*
G75*
G03*
X129360001Y-72393413I-450505J216876D01*
G01*
X129310518Y-72610291D02*
G75*
G03*
X130013289Y-73258867I450513J-216877D01*
G01*
X130265547Y-73190569D02*
G75*
G03*
X130013289Y-73258868I3J-500009D01*
G01*
X130013289Y-70122271D02*
G75*
G03*
X130265548Y-70190570I252261J431710D01*
G01*
X132106711Y-73258869D02*
G75*
G03*
X131854453Y-73190570I-252261J-431710D01*
G01*
X131854452Y-70190569D02*
G75*
G03*
X132106710Y-70122271I-2J500010D01*
G01*
X132809480Y-70770848D02*
G75*
G03*
X132106711Y-70122273I-450510J216879D01*
G01*
X132809484Y-70770850D02*
G75*
G03*
X132759999Y-70987727I450866J-216959D01*
G01*
X132106711Y-73258869D02*
G75*
G03*
X132809484Y-72610290I252259J431700D01*
G01*
X132759987Y-72393412D02*
G75*
G03*
X132809484Y-72610290I500513J143D01*
G01*
%TO.C,LED4*%
X87137002Y-50914860D02*
X87259516Y-49514525D01*
X88231094Y-48799324D02*
X89813951Y-48937806D01*
X89552484Y-51926389D02*
X87969626Y-51787907D01*
X90646576Y-49810854D02*
X90524062Y-51211189D01*
X87259515Y-49514525D02*
G75*
G03*
X87229121Y-49294159I-498087J43579D01*
G01*
X87985747Y-48709299D02*
G75*
G03*
X87229122Y-49294160I-288924J-408071D01*
G01*
X87068803Y-51126600D02*
G75*
G03*
X87137002Y-50914861I-429880J255312D01*
G01*
X87068803Y-51126600D02*
G75*
G03*
X87712375Y-51833959I429899J-255316D01*
G01*
X87969626Y-51787907D02*
G75*
G03*
X87712375Y-51833961I-43576J-498106D01*
G01*
X87985748Y-48709298D02*
G75*
G03*
X88231094Y-48799323I288926J408080D01*
G01*
X89797830Y-52016416D02*
G75*
G03*
X89552485Y-51926391I-288926J-408080D01*
G01*
X89813951Y-48937805D02*
G75*
G03*
X90071202Y-48891753I43577J498107D01*
G01*
X90714770Y-49599112D02*
G75*
G03*
X90071203Y-48891756I-429893J255318D01*
G01*
X90714775Y-49599115D02*
G75*
G03*
X90646576Y-49810853I430241J-255428D01*
G01*
X89797831Y-52016415D02*
G75*
G03*
X90554457Y-51431555I288924J408071D01*
G01*
X90524050Y-51211188D02*
G75*
G03*
X90554457Y-51431555I498621J-43480D01*
G01*
%TO.C,LED52*%
X276236642Y-117041603D02*
X276359156Y-118441938D01*
X275526531Y-119314986D02*
X273943674Y-119453468D01*
X273682207Y-116464885D02*
X275265065Y-116326403D01*
X272972096Y-118738267D02*
X272849582Y-117337932D01*
X276359155Y-118441938D02*
G75*
G03*
X276427354Y-118653678I498088J43575D01*
G01*
X275783783Y-119361039D02*
G75*
G03*
X276427354Y-118653677I213674J452043D01*
G01*
X276267038Y-116821237D02*
G75*
G03*
X276236643Y-117041602I467682J-176786D01*
G01*
X276267035Y-116821236D02*
G75*
G03*
X275510411Y-116236378I-467701J176787D01*
G01*
X275265065Y-116326402D02*
G75*
G03*
X275510410Y-116236377I-43581J498105D01*
G01*
X275783783Y-119361040D02*
G75*
G03*
X275526531Y-119314987I-213675J-452052D01*
G01*
X273424955Y-116418830D02*
G75*
G03*
X273682205Y-116464884I213675J452052D01*
G01*
X273943674Y-119453470D02*
G75*
G03*
X273698329Y-119543494I43580J-498106D01*
G01*
X272941706Y-118958635D02*
G75*
G03*
X273698327Y-119543490I467697J-176789D01*
G01*
X272941699Y-118958632D02*
G75*
G03*
X272972096Y-118738268I-468129J176851D01*
G01*
X273424955Y-116418831D02*
G75*
G03*
X272781383Y-117126192I-213674J-452043D01*
G01*
X272849594Y-117337931D02*
G75*
G03*
X272781383Y-117126192I-498596J-43765D01*
G01*
%TO.C,LED8*%
X69123248Y-77249382D02*
X69000734Y-78649717D01*
X68029156Y-79364918D02*
X66446299Y-79226436D01*
X66707766Y-76237853D02*
X68290624Y-76376335D01*
X65613674Y-78353388D02*
X65736188Y-76953053D01*
X69000735Y-78649717D02*
G75*
G03*
X69031129Y-78870083I498087J-43579D01*
G01*
X68274503Y-79454943D02*
G75*
G03*
X69031128Y-78870082I288924J408071D01*
G01*
X69191447Y-77037642D02*
G75*
G03*
X69123248Y-77249381I429880J-255312D01*
G01*
X69191447Y-77037642D02*
G75*
G03*
X68547875Y-76330283I-429899J255316D01*
G01*
X68290624Y-76376335D02*
G75*
G03*
X68547875Y-76330281I43576J498106D01*
G01*
X68274502Y-79454944D02*
G75*
G03*
X68029156Y-79364919I-288926J-408080D01*
G01*
X66462420Y-76147826D02*
G75*
G03*
X66707765Y-76237851I288926J408080D01*
G01*
X66446299Y-79226437D02*
G75*
G03*
X66189048Y-79272489I-43577J-498107D01*
G01*
X65545480Y-78565130D02*
G75*
G03*
X66189047Y-79272486I429893J-255318D01*
G01*
X65545475Y-78565127D02*
G75*
G03*
X65613674Y-78353389I-430241J255428D01*
G01*
X66462419Y-76147827D02*
G75*
G03*
X65705793Y-76732687I-288924J-408071D01*
G01*
X65736200Y-76953054D02*
G75*
G03*
X65705793Y-76732687I-498621J43480D01*
G01*
%TO.C,LED12*%
X48485422Y-94566574D02*
X48362908Y-95966909D01*
X47391330Y-96682110D02*
X45808473Y-96543628D01*
X46069940Y-93555045D02*
X47652798Y-93693527D01*
X44975848Y-95670580D02*
X45098362Y-94270245D01*
X48362909Y-95966909D02*
G75*
G03*
X48393303Y-96187275I498087J-43579D01*
G01*
X47636677Y-96772135D02*
G75*
G03*
X48393302Y-96187274I288924J408071D01*
G01*
X48553621Y-94354834D02*
G75*
G03*
X48485422Y-94566573I429880J-255312D01*
G01*
X48553621Y-94354834D02*
G75*
G03*
X47910049Y-93647475I-429899J255316D01*
G01*
X47652798Y-93693527D02*
G75*
G03*
X47910049Y-93647473I43576J498106D01*
G01*
X47636676Y-96772136D02*
G75*
G03*
X47391330Y-96682111I-288926J-408080D01*
G01*
X45824594Y-93465018D02*
G75*
G03*
X46069939Y-93555043I288926J408080D01*
G01*
X45808473Y-96543629D02*
G75*
G03*
X45551222Y-96589681I-43577J-498107D01*
G01*
X44907654Y-95882322D02*
G75*
G03*
X45551221Y-96589678I429893J-255318D01*
G01*
X44907649Y-95882319D02*
G75*
G03*
X44975848Y-95670581I-430241J255428D01*
G01*
X45824593Y-93465019D02*
G75*
G03*
X45067967Y-94049879I-288924J-408071D01*
G01*
X45098374Y-94270246D02*
G75*
G03*
X45067967Y-94049879I-498621J43480D01*
G01*
%TO.C,LED44*%
X235933088Y-121271971D02*
X236177182Y-122656300D01*
X235423818Y-123598594D02*
X233859053Y-123874504D01*
X233338108Y-120920082D02*
X234902874Y-120644171D01*
X232828838Y-123246703D02*
X232584743Y-121862374D01*
X236177183Y-122656300D02*
G75*
G03*
X236263576Y-122861290I492394J86821D01*
G01*
X235684104Y-123622050D02*
G75*
G03*
X236263575Y-122861290I173463J468945D01*
G01*
X235944161Y-121049795D02*
G75*
G03*
X235933088Y-121271970I481311J-135351D01*
G01*
X235944158Y-121049794D02*
G75*
G03*
X235139440Y-120533106I-481329J135351D01*
G01*
X234902874Y-120644171D02*
G75*
G03*
X235139440Y-120533106I-86828J492412D01*
G01*
X235684104Y-123622052D02*
G75*
G03*
X235423818Y-123598595I-173463J-468962D01*
G01*
X233077821Y-120896623D02*
G75*
G03*
X233338107Y-120920080I173463J468956D01*
G01*
X233859053Y-123874505D02*
G75*
G03*
X233622487Y-123985570I86828J-492413D01*
G01*
X232817769Y-123468880D02*
G75*
G03*
X233622486Y-123985567I481327J-135354D01*
G01*
X232817765Y-123468879D02*
G75*
G03*
X232828838Y-123246704I-481691J135371D01*
G01*
X233077821Y-120896623D02*
G75*
G03*
X232498350Y-121657384I-173462J-468946D01*
G01*
X232584755Y-121862372D02*
G75*
G03*
X232498350Y-121657384I-492884J-87054D01*
G01*
%TO.C,LED40*%
X212476131Y-127233328D02*
X212956903Y-128554239D01*
X212378612Y-129613037D02*
X210885530Y-130156475D01*
X209859470Y-127337398D02*
X211352552Y-126793960D01*
X209761950Y-129717106D02*
X209281178Y-128396196D01*
X212956904Y-128554239D02*
G75*
G03*
X213077581Y-128741112I469837J171005D01*
G01*
X212639017Y-129590939D02*
G75*
G03*
X213077579Y-128741112I89396J491942D01*
G01*
X212448456Y-127012604D02*
G75*
G03*
X212476132Y-127233327I497502J-49716D01*
G01*
X212448455Y-127012604D02*
G75*
G03*
X211566238Y-126643503I-497522J49712D01*
G01*
X211352552Y-126793961D02*
G75*
G03*
X211566238Y-126643503I-171016J469855D01*
G01*
X212639017Y-129590940D02*
G75*
G03*
X212378612Y-129613037I-89394J-491960D01*
G01*
X209599064Y-127359494D02*
G75*
G03*
X209859469Y-127337397I89394J491953D01*
G01*
X210885530Y-130156476D02*
G75*
G03*
X210671845Y-130306932I171016J-469855D01*
G01*
X209789633Y-129937831D02*
G75*
G03*
X210671842Y-130306929I497516J-49716D01*
G01*
X209789626Y-129937830D02*
G75*
G03*
X209761950Y-129717107I-497880J49670D01*
G01*
X209599064Y-127359495D02*
G75*
G03*
X209160501Y-128209322I-89396J-491942D01*
G01*
X209281189Y-128396192D02*
G75*
G03*
X209160500Y-128209323I-470279J-171319D01*
G01*
%TO.C,LED48*%
X257259133Y-118701920D02*
X257381647Y-120102255D01*
X256549022Y-120975303D02*
X254966165Y-121113785D01*
X254704698Y-118125202D02*
X256287556Y-117986720D01*
X253994587Y-120398584D02*
X253872073Y-118998249D01*
X257381646Y-120102255D02*
G75*
G03*
X257449845Y-120313995I498088J43575D01*
G01*
X256806274Y-121021356D02*
G75*
G03*
X257449845Y-120313994I213674J452043D01*
G01*
X257289529Y-118481554D02*
G75*
G03*
X257259134Y-118701919I467682J-176786D01*
G01*
X257289526Y-118481553D02*
G75*
G03*
X256532902Y-117896695I-467701J176787D01*
G01*
X256287556Y-117986719D02*
G75*
G03*
X256532901Y-117896694I-43581J498105D01*
G01*
X256806274Y-121021357D02*
G75*
G03*
X256549022Y-120975304I-213675J-452052D01*
G01*
X254447446Y-118079147D02*
G75*
G03*
X254704696Y-118125201I213675J452052D01*
G01*
X254966165Y-121113787D02*
G75*
G03*
X254720820Y-121203811I43580J-498106D01*
G01*
X253964197Y-120618952D02*
G75*
G03*
X254720818Y-121203807I467697J-176789D01*
G01*
X253964190Y-120618949D02*
G75*
G03*
X253994587Y-120398585I-468129J176851D01*
G01*
X254447446Y-118079148D02*
G75*
G03*
X253803874Y-118786509I-213674J-452043D01*
G01*
X253872085Y-118998248D02*
G75*
G03*
X253803874Y-118786509I-498596J-43765D01*
G01*
%TO.C,LED7*%
X50145739Y-75589065D02*
X50023225Y-76989400D01*
X49051647Y-77704601D02*
X47468790Y-77566119D01*
X47730257Y-74577536D02*
X49313115Y-74716018D01*
X46636165Y-76693071D02*
X46758679Y-75292736D01*
X50023226Y-76989400D02*
G75*
G03*
X50053620Y-77209766I498087J-43579D01*
G01*
X49296994Y-77794626D02*
G75*
G03*
X50053619Y-77209765I288924J408071D01*
G01*
X50213938Y-75377325D02*
G75*
G03*
X50145739Y-75589064I429880J-255312D01*
G01*
X50213938Y-75377325D02*
G75*
G03*
X49570366Y-74669966I-429899J255316D01*
G01*
X49313115Y-74716018D02*
G75*
G03*
X49570366Y-74669964I43576J498106D01*
G01*
X49296993Y-77794627D02*
G75*
G03*
X49051647Y-77704602I-288926J-408080D01*
G01*
X47484911Y-74487509D02*
G75*
G03*
X47730256Y-74577534I288926J408080D01*
G01*
X47468790Y-77566120D02*
G75*
G03*
X47211539Y-77612172I-43577J-498107D01*
G01*
X46567971Y-76904813D02*
G75*
G03*
X47211538Y-77612169I429893J-255318D01*
G01*
X46567966Y-76904810D02*
G75*
G03*
X46636165Y-76693072I-430241J255428D01*
G01*
X47484910Y-74487510D02*
G75*
G03*
X46728284Y-75072370I-288924J-408071D01*
G01*
X46758691Y-75292737D02*
G75*
G03*
X46728284Y-75072370I-498621J43480D01*
G01*
%TO.C,LED14*%
X86440440Y-97887208D02*
X86317926Y-99287543D01*
X85346348Y-100002744D02*
X83763491Y-99864262D01*
X84024958Y-96875679D02*
X85607816Y-97014161D01*
X82930866Y-98991214D02*
X83053380Y-97590879D01*
X86317927Y-99287543D02*
G75*
G03*
X86348321Y-99507909I498087J-43579D01*
G01*
X85591695Y-100092769D02*
G75*
G03*
X86348320Y-99507908I288924J408071D01*
G01*
X86508639Y-97675468D02*
G75*
G03*
X86440440Y-97887207I429880J-255312D01*
G01*
X86508639Y-97675468D02*
G75*
G03*
X85865067Y-96968109I-429899J255316D01*
G01*
X85607816Y-97014161D02*
G75*
G03*
X85865067Y-96968107I43576J498106D01*
G01*
X85591694Y-100092770D02*
G75*
G03*
X85346348Y-100002745I-288926J-408080D01*
G01*
X83779612Y-96785652D02*
G75*
G03*
X84024957Y-96875677I288926J408080D01*
G01*
X83763491Y-99864263D02*
G75*
G03*
X83506240Y-99910315I-43577J-498107D01*
G01*
X82862672Y-99202956D02*
G75*
G03*
X83506239Y-99910312I429893J-255318D01*
G01*
X82862667Y-99202953D02*
G75*
G03*
X82930866Y-98991215I-430241J255428D01*
G01*
X83779611Y-96785653D02*
G75*
G03*
X83022985Y-97370513I-288924J-408071D01*
G01*
X83053392Y-97590880D02*
G75*
G03*
X83022985Y-97370513I-498621J43480D01*
G01*
%TO.C,LED1*%
X30204475Y-45933909D02*
X30326989Y-44533574D01*
X31298567Y-43818373D02*
X32881424Y-43956855D01*
X32619957Y-46945438D02*
X31037099Y-46806956D01*
X33714049Y-44829903D02*
X33591535Y-46230238D01*
X30326988Y-44533574D02*
G75*
G03*
X30296594Y-44313208I-498087J43579D01*
G01*
X31053220Y-43728348D02*
G75*
G03*
X30296595Y-44313209I-288924J-408071D01*
G01*
X30136276Y-46145649D02*
G75*
G03*
X30204474Y-45933910I-429888J255315D01*
G01*
X30136276Y-46145649D02*
G75*
G03*
X30779848Y-46853008I429899J-255316D01*
G01*
X31037099Y-46806956D02*
G75*
G03*
X30779848Y-46853010I-43576J-498106D01*
G01*
X31053221Y-43728347D02*
G75*
G03*
X31298567Y-43818372I288926J408080D01*
G01*
X32865303Y-47035465D02*
G75*
G03*
X32619958Y-46945440I-288926J-408080D01*
G01*
X32881424Y-43956854D02*
G75*
G03*
X33138675Y-43910802I43577J498107D01*
G01*
X33782243Y-44618161D02*
G75*
G03*
X33138676Y-43910805I-429893J255318D01*
G01*
X33782247Y-44618163D02*
G75*
G03*
X33714049Y-44829902I430252J-255430D01*
G01*
X32865304Y-47035464D02*
G75*
G03*
X33621930Y-46450604I288924J408071D01*
G01*
X33591561Y-46230240D02*
G75*
G03*
X33621930Y-46450604I498068J-43633D01*
G01*
%TO.C,LED32*%
X167460001Y-110424422D02*
X167460001Y-109018738D01*
X168365548Y-108221580D02*
X169954452Y-108221580D01*
X169954452Y-111221579D02*
X168365547Y-111221579D01*
X170859999Y-109018738D02*
X170859999Y-110424422D01*
X167460000Y-109018738D02*
G75*
G03*
X167410515Y-108801860I-499989J2D01*
G01*
X168113289Y-108153281D02*
G75*
G03*
X167410517Y-108801861I-252259J-431700D01*
G01*
X167410516Y-110641300D02*
G75*
G03*
X167460001Y-110424423I-450505J216876D01*
G01*
X167410518Y-110641301D02*
G75*
G03*
X168113289Y-111289877I450513J-216877D01*
G01*
X168365547Y-111221579D02*
G75*
G03*
X168113289Y-111289878I3J-500009D01*
G01*
X168113289Y-108153281D02*
G75*
G03*
X168365548Y-108221580I252261J431710D01*
G01*
X170206711Y-111289879D02*
G75*
G03*
X169954453Y-111221580I-252261J-431710D01*
G01*
X169954452Y-108221579D02*
G75*
G03*
X170206710Y-108153281I-2J500010D01*
G01*
X170909480Y-108801858D02*
G75*
G03*
X170206711Y-108153283I-450510J216879D01*
G01*
X170909484Y-108801860D02*
G75*
G03*
X170859999Y-109018737I450866J-216959D01*
G01*
X170206711Y-111289879D02*
G75*
G03*
X170909484Y-110641300I252259J431700D01*
G01*
X170859987Y-110424422D02*
G75*
G03*
X170909484Y-110641300I500513J143D01*
G01*
%TO.C,LED26*%
X167460001Y-72564422D02*
X167460001Y-71158738D01*
X168365548Y-70361580D02*
X169954452Y-70361580D01*
X169954452Y-73361579D02*
X168365547Y-73361579D01*
X170859999Y-71158738D02*
X170859999Y-72564422D01*
X167460000Y-71158738D02*
G75*
G03*
X167410515Y-70941860I-499989J2D01*
G01*
X168113289Y-70293281D02*
G75*
G03*
X167410517Y-70941861I-252259J-431700D01*
G01*
X167410516Y-72781300D02*
G75*
G03*
X167460001Y-72564423I-450505J216876D01*
G01*
X167410518Y-72781301D02*
G75*
G03*
X168113289Y-73429877I450513J-216877D01*
G01*
X168365547Y-73361579D02*
G75*
G03*
X168113289Y-73429878I3J-500009D01*
G01*
X168113289Y-70293281D02*
G75*
G03*
X168365548Y-70361580I252261J431710D01*
G01*
X170206711Y-73429879D02*
G75*
G03*
X169954453Y-73361580I-252261J-431710D01*
G01*
X169954452Y-70361579D02*
G75*
G03*
X170206710Y-70293281I-2J500010D01*
G01*
X170909480Y-70941858D02*
G75*
G03*
X170206711Y-70293283I-450510J216879D01*
G01*
X170909484Y-70941860D02*
G75*
G03*
X170859999Y-71158737I450866J-216959D01*
G01*
X170206711Y-73429879D02*
G75*
G03*
X170909484Y-72781300I252259J431700D01*
G01*
X170859987Y-72564422D02*
G75*
G03*
X170909484Y-72781300I500513J143D01*
G01*
%TO.C,LED23*%
X167460001Y-53343412D02*
X167460001Y-51937728D01*
X168365548Y-51140570D02*
X169954452Y-51140570D01*
X169954452Y-54140569D02*
X168365547Y-54140569D01*
X170859999Y-51937728D02*
X170859999Y-53343412D01*
X167460000Y-51937728D02*
G75*
G03*
X167410515Y-51720850I-499989J2D01*
G01*
X168113289Y-51072271D02*
G75*
G03*
X167410517Y-51720851I-252259J-431700D01*
G01*
X167410516Y-53560290D02*
G75*
G03*
X167460001Y-53343413I-450505J216876D01*
G01*
X167410518Y-53560291D02*
G75*
G03*
X168113289Y-54208867I450513J-216877D01*
G01*
X168365547Y-54140569D02*
G75*
G03*
X168113289Y-54208868I3J-500009D01*
G01*
X168113289Y-51072271D02*
G75*
G03*
X168365548Y-51140570I252261J431710D01*
G01*
X170206711Y-54208869D02*
G75*
G03*
X169954453Y-54140570I-252261J-431710D01*
G01*
X169954452Y-51140569D02*
G75*
G03*
X170206710Y-51072271I-2J500010D01*
G01*
X170909480Y-51720848D02*
G75*
G03*
X170206711Y-51072273I-450510J216879D01*
G01*
X170909484Y-51720850D02*
G75*
G03*
X170859999Y-51937727I450866J-216959D01*
G01*
X170206711Y-54208869D02*
G75*
G03*
X170909484Y-53560290I252259J431700D01*
G01*
X170859987Y-53343412D02*
G75*
G03*
X170909484Y-53560290I500513J143D01*
G01*
%TO.C,LED13*%
X67462931Y-96226891D02*
X67340417Y-97627226D01*
X66368839Y-98342427D02*
X64785982Y-98203945D01*
X65047449Y-95215362D02*
X66630307Y-95353844D01*
X63953357Y-97330897D02*
X64075871Y-95930562D01*
X67340418Y-97627226D02*
G75*
G03*
X67370812Y-97847592I498087J-43579D01*
G01*
X66614186Y-98432452D02*
G75*
G03*
X67370811Y-97847591I288924J408071D01*
G01*
X67531130Y-96015151D02*
G75*
G03*
X67462931Y-96226890I429880J-255312D01*
G01*
X67531130Y-96015151D02*
G75*
G03*
X66887558Y-95307792I-429899J255316D01*
G01*
X66630307Y-95353844D02*
G75*
G03*
X66887558Y-95307790I43576J498106D01*
G01*
X66614185Y-98432453D02*
G75*
G03*
X66368839Y-98342428I-288926J-408080D01*
G01*
X64802103Y-95125335D02*
G75*
G03*
X65047448Y-95215360I288926J408080D01*
G01*
X64785982Y-98203946D02*
G75*
G03*
X64528731Y-98249998I-43577J-498107D01*
G01*
X63885163Y-97542639D02*
G75*
G03*
X64528730Y-98249995I429893J-255318D01*
G01*
X63885158Y-97542636D02*
G75*
G03*
X63953357Y-97330898I-430241J255428D01*
G01*
X64802102Y-95125336D02*
G75*
G03*
X64045476Y-95710196I-288924J-408071D01*
G01*
X64075883Y-95930563D02*
G75*
G03*
X64045476Y-95710196I-498621J43480D01*
G01*
%TO.C,LED21*%
X129360001Y-53343412D02*
X129360001Y-51937728D01*
X130265548Y-51140570D02*
X131854452Y-51140570D01*
X131854452Y-54140569D02*
X130265547Y-54140569D01*
X132759999Y-51937728D02*
X132759999Y-53343412D01*
X129360000Y-51937728D02*
G75*
G03*
X129310515Y-51720850I-499989J2D01*
G01*
X130013289Y-51072271D02*
G75*
G03*
X129310517Y-51720851I-252259J-431700D01*
G01*
X129310516Y-53560290D02*
G75*
G03*
X129360001Y-53343413I-450505J216876D01*
G01*
X129310518Y-53560291D02*
G75*
G03*
X130013289Y-54208867I450513J-216877D01*
G01*
X130265547Y-54140569D02*
G75*
G03*
X130013289Y-54208868I3J-500009D01*
G01*
X130013289Y-51072271D02*
G75*
G03*
X130265548Y-51140570I252261J431710D01*
G01*
X132106711Y-54208869D02*
G75*
G03*
X131854453Y-54140570I-252261J-431710D01*
G01*
X131854452Y-51140569D02*
G75*
G03*
X132106710Y-51072271I-2J500010D01*
G01*
X132809480Y-51720848D02*
G75*
G03*
X132106711Y-51072273I-450510J216879D01*
G01*
X132809484Y-51720850D02*
G75*
G03*
X132759999Y-51937727I450866J-216959D01*
G01*
X132106711Y-54208869D02*
G75*
G03*
X132809484Y-53560290I252259J431700D01*
G01*
X132759987Y-53343412D02*
G75*
G03*
X132809484Y-53560290I500513J143D01*
G01*
%TO.C,LED37*%
X209695938Y-51211189D02*
X209573424Y-49810854D01*
X210406049Y-48937806D02*
X211988906Y-48799324D01*
X212250373Y-51787907D02*
X210667515Y-51926389D01*
X212960484Y-49514525D02*
X213082998Y-50914860D01*
X209573425Y-49810854D02*
G75*
G03*
X209505226Y-49599114I-498088J-43575D01*
G01*
X210148797Y-48891753D02*
G75*
G03*
X209505226Y-49599115I-213674J-452043D01*
G01*
X209665542Y-51431555D02*
G75*
G03*
X209695937Y-51211190I-467682J176786D01*
G01*
X209665545Y-51431556D02*
G75*
G03*
X210422169Y-52016414I467701J-176787D01*
G01*
X210667515Y-51926390D02*
G75*
G03*
X210422170Y-52016415I43581J-498105D01*
G01*
X210148797Y-48891752D02*
G75*
G03*
X210406049Y-48937805I213675J452052D01*
G01*
X212507625Y-51833962D02*
G75*
G03*
X212250375Y-51787908I-213675J-452052D01*
G01*
X211988906Y-48799322D02*
G75*
G03*
X212234251Y-48709298I-43580J498106D01*
G01*
X212990874Y-49294157D02*
G75*
G03*
X212234253Y-48709302I-467697J176789D01*
G01*
X212990881Y-49294160D02*
G75*
G03*
X212960484Y-49514524I468129J-176851D01*
G01*
X212507625Y-51833961D02*
G75*
G03*
X213151197Y-51126600I213674J452043D01*
G01*
X213082986Y-50914861D02*
G75*
G03*
X213151197Y-51126600I498596J43765D01*
G01*
%TO.C,LED46*%
X253461321Y-75292736D02*
X253583835Y-76693071D01*
X252751210Y-77566119D02*
X251168353Y-77704601D01*
X250906886Y-74716018D02*
X252489744Y-74577536D01*
X250196775Y-76989400D02*
X250074261Y-75589065D01*
X253583834Y-76693071D02*
G75*
G03*
X253652033Y-76904811I498088J43575D01*
G01*
X253008462Y-77612172D02*
G75*
G03*
X253652033Y-76904810I213674J452043D01*
G01*
X253491717Y-75072370D02*
G75*
G03*
X253461322Y-75292735I467682J-176786D01*
G01*
X253491714Y-75072369D02*
G75*
G03*
X252735090Y-74487511I-467701J176787D01*
G01*
X252489744Y-74577535D02*
G75*
G03*
X252735089Y-74487510I-43581J498105D01*
G01*
X253008462Y-77612173D02*
G75*
G03*
X252751210Y-77566120I-213675J-452052D01*
G01*
X250649634Y-74669963D02*
G75*
G03*
X250906884Y-74716017I213675J452052D01*
G01*
X251168353Y-77704603D02*
G75*
G03*
X250923008Y-77794627I43580J-498106D01*
G01*
X250166385Y-77209768D02*
G75*
G03*
X250923006Y-77794623I467697J-176789D01*
G01*
X250166378Y-77209765D02*
G75*
G03*
X250196775Y-76989401I-468129J176851D01*
G01*
X250649634Y-74669964D02*
G75*
G03*
X250006062Y-75377325I-213674J-452043D01*
G01*
X250074273Y-75589064D02*
G75*
G03*
X250006062Y-75377325I-498596J-43765D01*
G01*
%TO.C,LED29*%
X167460001Y-91443412D02*
X167460001Y-90037728D01*
X168365548Y-89240570D02*
X169954452Y-89240570D01*
X169954452Y-92240569D02*
X168365547Y-92240569D01*
X170859999Y-90037728D02*
X170859999Y-91443412D01*
X167460000Y-90037728D02*
G75*
G03*
X167410515Y-89820850I-499989J2D01*
G01*
X168113289Y-89172271D02*
G75*
G03*
X167410517Y-89820851I-252259J-431700D01*
G01*
X167410516Y-91660290D02*
G75*
G03*
X167460001Y-91443413I-450505J216876D01*
G01*
X167410518Y-91660291D02*
G75*
G03*
X168113289Y-92308867I450513J-216877D01*
G01*
X168365547Y-92240569D02*
G75*
G03*
X168113289Y-92308868I3J-500009D01*
G01*
X168113289Y-89172271D02*
G75*
G03*
X168365548Y-89240570I252261J431710D01*
G01*
X170206711Y-92308869D02*
G75*
G03*
X169954453Y-92240570I-252261J-431710D01*
G01*
X169954452Y-89240569D02*
G75*
G03*
X170206710Y-89172271I-2J500010D01*
G01*
X170909480Y-89820848D02*
G75*
G03*
X170206711Y-89172273I-450510J216879D01*
G01*
X170909484Y-89820850D02*
G75*
G03*
X170859999Y-90037727I450866J-216959D01*
G01*
X170206711Y-92308869D02*
G75*
G03*
X170909484Y-91660290I252259J431700D01*
G01*
X170859987Y-91443412D02*
G75*
G03*
X170909484Y-91660290I500513J143D01*
G01*
%TO.C,LED34*%
X196528794Y-80273687D02*
X196651308Y-81674022D01*
X195818683Y-82547070D02*
X194235826Y-82685552D01*
X193974359Y-79696969D02*
X195557217Y-79558487D01*
X193264248Y-81970351D02*
X193141734Y-80570016D01*
X196651307Y-81674022D02*
G75*
G03*
X196719506Y-81885762I498088J43575D01*
G01*
X196075935Y-82593123D02*
G75*
G03*
X196719506Y-81885761I213674J452043D01*
G01*
X196559190Y-80053321D02*
G75*
G03*
X196528795Y-80273686I467682J-176786D01*
G01*
X196559187Y-80053320D02*
G75*
G03*
X195802563Y-79468462I-467701J176787D01*
G01*
X195557217Y-79558486D02*
G75*
G03*
X195802562Y-79468461I-43581J498105D01*
G01*
X196075935Y-82593124D02*
G75*
G03*
X195818683Y-82547071I-213675J-452052D01*
G01*
X193717107Y-79650914D02*
G75*
G03*
X193974357Y-79696968I213675J452052D01*
G01*
X194235826Y-82685554D02*
G75*
G03*
X193990481Y-82775578I43580J-498106D01*
G01*
X193233858Y-82190719D02*
G75*
G03*
X193990479Y-82775574I467697J-176789D01*
G01*
X193233851Y-82190716D02*
G75*
G03*
X193264248Y-81970352I-468129J176851D01*
G01*
X193717107Y-79650915D02*
G75*
G03*
X193073535Y-80358276I-213674J-452043D01*
G01*
X193141746Y-80570015D02*
G75*
G03*
X193073535Y-80358276I-498596J-43765D01*
G01*
%TO.C,LED49*%
X266628465Y-46230238D02*
X266505951Y-44829903D01*
X267338576Y-43956855D02*
X268921433Y-43818373D01*
X269182900Y-46806956D02*
X267600042Y-46945438D01*
X269893011Y-44533574D02*
X270015525Y-45933909D01*
X266505952Y-44829903D02*
G75*
G03*
X266437753Y-44618163I-498088J-43575D01*
G01*
X267081324Y-43910802D02*
G75*
G03*
X266437753Y-44618164I-213674J-452043D01*
G01*
X266598069Y-46450604D02*
G75*
G03*
X266628464Y-46230239I-467682J176786D01*
G01*
X266598072Y-46450605D02*
G75*
G03*
X267354696Y-47035463I467701J-176787D01*
G01*
X267600042Y-46945439D02*
G75*
G03*
X267354697Y-47035464I43581J-498105D01*
G01*
X267081324Y-43910801D02*
G75*
G03*
X267338576Y-43956854I213675J452052D01*
G01*
X269440152Y-46853011D02*
G75*
G03*
X269182902Y-46806957I-213675J-452052D01*
G01*
X268921433Y-43818371D02*
G75*
G03*
X269166778Y-43728347I-43580J498106D01*
G01*
X269923401Y-44313206D02*
G75*
G03*
X269166780Y-43728351I-467697J176789D01*
G01*
X269923408Y-44313209D02*
G75*
G03*
X269893011Y-44533573I468129J-176851D01*
G01*
X269440152Y-46853010D02*
G75*
G03*
X270083724Y-46145649I213674J452043D01*
G01*
X270015513Y-45933910D02*
G75*
G03*
X270083724Y-46145649I498596J43765D01*
G01*
%TO.C,LED25*%
X148410001Y-72393412D02*
X148410001Y-70987728D01*
X149315548Y-70190570D02*
X150904452Y-70190570D01*
X150904452Y-73190569D02*
X149315547Y-73190569D01*
X151809999Y-70987728D02*
X151809999Y-72393412D01*
X148410000Y-70987728D02*
G75*
G03*
X148360515Y-70770850I-499989J2D01*
G01*
X149063289Y-70122271D02*
G75*
G03*
X148360517Y-70770851I-252259J-431700D01*
G01*
X148360516Y-72610290D02*
G75*
G03*
X148410001Y-72393413I-450505J216876D01*
G01*
X148360518Y-72610291D02*
G75*
G03*
X149063289Y-73258867I450513J-216877D01*
G01*
X149315547Y-73190569D02*
G75*
G03*
X149063289Y-73258868I3J-500009D01*
G01*
X149063289Y-70122271D02*
G75*
G03*
X149315548Y-70190570I252261J431710D01*
G01*
X151156711Y-73258869D02*
G75*
G03*
X150904453Y-73190570I-252261J-431710D01*
G01*
X150904452Y-70190569D02*
G75*
G03*
X151156710Y-70122271I-2J500010D01*
G01*
X151859480Y-70770848D02*
G75*
G03*
X151156711Y-70122273I-450510J216879D01*
G01*
X151859484Y-70770850D02*
G75*
G03*
X151809999Y-70987727I450866J-216959D01*
G01*
X151156711Y-73258869D02*
G75*
G03*
X151859484Y-72610290I252259J431700D01*
G01*
X151809987Y-72393412D02*
G75*
G03*
X151859484Y-72610290I500513J143D01*
G01*
%TO.C,LED39*%
X217166620Y-97590879D02*
X217289134Y-98991214D01*
X216456509Y-99864262D02*
X214873652Y-100002744D01*
X214612185Y-97014161D02*
X216195043Y-96875679D01*
X213902074Y-99287543D02*
X213779560Y-97887208D01*
X217289133Y-98991214D02*
G75*
G03*
X217357332Y-99202954I498088J43575D01*
G01*
X216713761Y-99910315D02*
G75*
G03*
X217357332Y-99202953I213674J452043D01*
G01*
X217197016Y-97370513D02*
G75*
G03*
X217166621Y-97590878I467682J-176786D01*
G01*
X217197013Y-97370512D02*
G75*
G03*
X216440389Y-96785654I-467701J176787D01*
G01*
X216195043Y-96875678D02*
G75*
G03*
X216440388Y-96785653I-43581J498105D01*
G01*
X216713761Y-99910316D02*
G75*
G03*
X216456509Y-99864263I-213675J-452052D01*
G01*
X214354933Y-96968106D02*
G75*
G03*
X214612183Y-97014160I213675J452052D01*
G01*
X214873652Y-100002746D02*
G75*
G03*
X214628307Y-100092770I43580J-498106D01*
G01*
X213871684Y-99507911D02*
G75*
G03*
X214628305Y-100092766I467697J-176789D01*
G01*
X213871677Y-99507908D02*
G75*
G03*
X213902074Y-99287544I-468129J176851D01*
G01*
X214354933Y-96968107D02*
G75*
G03*
X213711361Y-97675468I-213674J-452043D01*
G01*
X213779572Y-97887207D02*
G75*
G03*
X213711361Y-97675468I-498596J-43765D01*
G01*
%TO.C,LED47*%
X255121638Y-94270245D02*
X255244152Y-95670580D01*
X254411527Y-96543628D02*
X252828670Y-96682110D01*
X252567203Y-93693527D02*
X254150061Y-93555045D01*
X251857092Y-95966909D02*
X251734578Y-94566574D01*
X255244151Y-95670580D02*
G75*
G03*
X255312350Y-95882320I498088J43575D01*
G01*
X254668779Y-96589681D02*
G75*
G03*
X255312350Y-95882319I213674J452043D01*
G01*
X255152034Y-94049879D02*
G75*
G03*
X255121639Y-94270244I467682J-176786D01*
G01*
X255152031Y-94049878D02*
G75*
G03*
X254395407Y-93465020I-467701J176787D01*
G01*
X254150061Y-93555044D02*
G75*
G03*
X254395406Y-93465019I-43581J498105D01*
G01*
X254668779Y-96589682D02*
G75*
G03*
X254411527Y-96543629I-213675J-452052D01*
G01*
X252309951Y-93647472D02*
G75*
G03*
X252567201Y-93693526I213675J452052D01*
G01*
X252828670Y-96682112D02*
G75*
G03*
X252583325Y-96772136I43580J-498106D01*
G01*
X251826702Y-96187277D02*
G75*
G03*
X252583323Y-96772132I467697J-176789D01*
G01*
X251826695Y-96187274D02*
G75*
G03*
X251857092Y-95966910I-468129J176851D01*
G01*
X252309951Y-93647473D02*
G75*
G03*
X251666379Y-94354834I-213674J-452043D01*
G01*
X251734590Y-94566573D02*
G75*
G03*
X251666379Y-94354834I-498596J-43765D01*
G01*
%TO.C,LED5*%
X106114511Y-52575177D02*
X106237025Y-51174842D01*
X107208603Y-50459641D02*
X108791460Y-50598123D01*
X108529993Y-53586706D02*
X106947135Y-53448224D01*
X109624085Y-51471171D02*
X109501571Y-52871506D01*
X106237024Y-51174842D02*
G75*
G03*
X106206630Y-50954476I-498087J43579D01*
G01*
X106963256Y-50369616D02*
G75*
G03*
X106206631Y-50954477I-288924J-408071D01*
G01*
X106046312Y-52786917D02*
G75*
G03*
X106114511Y-52575178I-429880J255312D01*
G01*
X106046312Y-52786917D02*
G75*
G03*
X106689884Y-53494276I429899J-255316D01*
G01*
X106947135Y-53448224D02*
G75*
G03*
X106689884Y-53494278I-43576J-498106D01*
G01*
X106963257Y-50369615D02*
G75*
G03*
X107208603Y-50459640I288926J408080D01*
G01*
X108775339Y-53676733D02*
G75*
G03*
X108529994Y-53586708I-288926J-408080D01*
G01*
X108791460Y-50598122D02*
G75*
G03*
X109048711Y-50552070I43577J498107D01*
G01*
X109692279Y-51259429D02*
G75*
G03*
X109048712Y-50552073I-429893J255318D01*
G01*
X109692284Y-51259432D02*
G75*
G03*
X109624085Y-51471170I430241J-255428D01*
G01*
X108775340Y-53676732D02*
G75*
G03*
X109531966Y-53091872I288924J408071D01*
G01*
X109501559Y-52871505D02*
G75*
G03*
X109531966Y-53091872I498621J-43480D01*
G01*
%TO.C,LED31*%
X148410001Y-110493412D02*
X148410001Y-109087728D01*
X149315548Y-108290570D02*
X150904452Y-108290570D01*
X150904452Y-111290569D02*
X149315547Y-111290569D01*
X151809999Y-109087728D02*
X151809999Y-110493412D01*
X148410000Y-109087728D02*
G75*
G03*
X148360515Y-108870850I-499989J2D01*
G01*
X149063289Y-108222271D02*
G75*
G03*
X148360517Y-108870851I-252259J-431700D01*
G01*
X148360516Y-110710290D02*
G75*
G03*
X148410001Y-110493413I-450505J216876D01*
G01*
X148360518Y-110710291D02*
G75*
G03*
X149063289Y-111358867I450513J-216877D01*
G01*
X149315547Y-111290569D02*
G75*
G03*
X149063289Y-111358868I3J-500009D01*
G01*
X149063289Y-108222271D02*
G75*
G03*
X149315548Y-108290570I252261J431710D01*
G01*
X151156711Y-111358869D02*
G75*
G03*
X150904453Y-111290570I-252261J-431710D01*
G01*
X150904452Y-108290569D02*
G75*
G03*
X151156710Y-108222271I-2J500010D01*
G01*
X151859480Y-108870848D02*
G75*
G03*
X151156711Y-108222273I-450510J216879D01*
G01*
X151859484Y-108870850D02*
G75*
G03*
X151809999Y-109087727I450866J-216959D01*
G01*
X151156711Y-111358869D02*
G75*
G03*
X151859484Y-110710290I252259J431700D01*
G01*
X151809987Y-110493412D02*
G75*
G03*
X151859484Y-110710290I500513J143D01*
G01*
%TO.C,LED16*%
X90963204Y-128454240D02*
X90482432Y-129775150D01*
X89358852Y-130214519D02*
X87865770Y-129671081D01*
X88891831Y-126852004D02*
X90384913Y-127395442D01*
X87287479Y-128612283D02*
X87768251Y-127291372D01*
X90482433Y-129775150D02*
G75*
G03*
X90454757Y-129995874I469835J-171009D01*
G01*
X89572539Y-130364975D02*
G75*
G03*
X90454755Y-129995873I384696J319386D01*
G01*
X91083881Y-128267366D02*
G75*
G03*
X90963204Y-128454239I349153J-357873D01*
G01*
X91083880Y-128267365D02*
G75*
G03*
X90645317Y-127417539I-349168J357883D01*
G01*
X90384913Y-127395442D02*
G75*
G03*
X90645317Y-127417539I171010J469856D01*
G01*
X89572537Y-130364977D02*
G75*
G03*
X89358852Y-130214520I-384704J-319402D01*
G01*
X88678145Y-126701546D02*
G75*
G03*
X88891830Y-126852003I384701J319397D01*
G01*
X87865770Y-129671080D02*
G75*
G03*
X87605366Y-129648985I-171009J-469881D01*
G01*
X87166805Y-128799160D02*
G75*
G03*
X87605366Y-129648981I349163J-357883D01*
G01*
X87166801Y-128799156D02*
G75*
G03*
X87287478Y-128612284I-349471J358080D01*
G01*
X88678145Y-126701546D02*
G75*
G03*
X87795928Y-127070648I-384696J-319387D01*
G01*
X87768262Y-127291376D02*
G75*
G03*
X87795927Y-127070648I-470377J171051D01*
G01*
%TO.C,LED51*%
X274099147Y-92609928D02*
X274221661Y-94010263D01*
X273389036Y-94883311D02*
X271806179Y-95021793D01*
X271544712Y-92033210D02*
X273127570Y-91894728D01*
X270834601Y-94306592D02*
X270712087Y-92906257D01*
X274221660Y-94010263D02*
G75*
G03*
X274289859Y-94222003I498088J43575D01*
G01*
X273646288Y-94929364D02*
G75*
G03*
X274289859Y-94222002I213674J452043D01*
G01*
X274129543Y-92389562D02*
G75*
G03*
X274099148Y-92609927I467682J-176786D01*
G01*
X274129540Y-92389561D02*
G75*
G03*
X273372916Y-91804703I-467701J176787D01*
G01*
X273127570Y-91894727D02*
G75*
G03*
X273372915Y-91804702I-43581J498105D01*
G01*
X273646288Y-94929365D02*
G75*
G03*
X273389036Y-94883312I-213675J-452052D01*
G01*
X271287460Y-91987155D02*
G75*
G03*
X271544710Y-92033209I213675J452052D01*
G01*
X271806179Y-95021795D02*
G75*
G03*
X271560834Y-95111819I43580J-498106D01*
G01*
X270804211Y-94526960D02*
G75*
G03*
X271560832Y-95111815I467697J-176789D01*
G01*
X270804204Y-94526957D02*
G75*
G03*
X270834601Y-94306593I-468129J176851D01*
G01*
X271287460Y-91987156D02*
G75*
G03*
X270643888Y-92694517I-213674J-452043D01*
G01*
X270712099Y-92906256D02*
G75*
G03*
X270643888Y-92694517I-498596J-43765D01*
G01*
%TO.C,LED6*%
X31168230Y-73928748D02*
X31045716Y-75329083D01*
X30074138Y-76044284D02*
X28491281Y-75905802D01*
X28752748Y-72917219D02*
X30335606Y-73055701D01*
X27658656Y-75032754D02*
X27781170Y-73632419D01*
X31045717Y-75329083D02*
G75*
G03*
X31076111Y-75549449I498087J-43579D01*
G01*
X30319485Y-76134309D02*
G75*
G03*
X31076110Y-75549448I288924J408071D01*
G01*
X31236429Y-73717008D02*
G75*
G03*
X31168230Y-73928747I429880J-255312D01*
G01*
X31236429Y-73717008D02*
G75*
G03*
X30592857Y-73009649I-429899J255316D01*
G01*
X30335606Y-73055701D02*
G75*
G03*
X30592857Y-73009647I43576J498106D01*
G01*
X30319484Y-76134310D02*
G75*
G03*
X30074138Y-76044285I-288926J-408080D01*
G01*
X28507402Y-72827192D02*
G75*
G03*
X28752747Y-72917217I288926J408080D01*
G01*
X28491281Y-75905803D02*
G75*
G03*
X28234030Y-75951855I-43577J-498107D01*
G01*
X27590462Y-75244496D02*
G75*
G03*
X28234029Y-75951852I429893J-255318D01*
G01*
X27590457Y-75244493D02*
G75*
G03*
X27658656Y-75032755I-430241J255428D01*
G01*
X28507401Y-72827193D02*
G75*
G03*
X27750775Y-73412053I-288924J-408071D01*
G01*
X27781182Y-73632420D02*
G75*
G03*
X27750775Y-73412053I-498621J43480D01*
G01*
%TO.C,LED11*%
X29507913Y-92906257D02*
X29385399Y-94306592D01*
X28413821Y-95021793D02*
X26830964Y-94883311D01*
X27092431Y-91894728D02*
X28675289Y-92033210D01*
X25998339Y-94010263D02*
X26120853Y-92609928D01*
X29385400Y-94306592D02*
G75*
G03*
X29415794Y-94526958I498087J-43579D01*
G01*
X28659168Y-95111818D02*
G75*
G03*
X29415793Y-94526957I288924J408071D01*
G01*
X29576112Y-92694517D02*
G75*
G03*
X29507913Y-92906256I429880J-255312D01*
G01*
X29576112Y-92694517D02*
G75*
G03*
X28932540Y-91987158I-429899J255316D01*
G01*
X28675289Y-92033210D02*
G75*
G03*
X28932540Y-91987156I43576J498106D01*
G01*
X28659167Y-95111819D02*
G75*
G03*
X28413821Y-95021794I-288926J-408080D01*
G01*
X26847085Y-91804701D02*
G75*
G03*
X27092430Y-91894726I288926J408080D01*
G01*
X26830964Y-94883312D02*
G75*
G03*
X26573713Y-94929364I-43577J-498107D01*
G01*
X25930145Y-94222005D02*
G75*
G03*
X26573712Y-94929361I429893J-255318D01*
G01*
X25930140Y-94222002D02*
G75*
G03*
X25998339Y-94010264I-430241J255428D01*
G01*
X26847084Y-91804702D02*
G75*
G03*
X26090458Y-92389562I-288924J-408071D01*
G01*
X26120865Y-92609929D02*
G75*
G03*
X26090458Y-92389562I-498621J43480D01*
G01*
%TO.C,LED2*%
X49181984Y-47594226D02*
X49304498Y-46193891D01*
X50276076Y-45478690D02*
X51858933Y-45617172D01*
X51597466Y-48605755D02*
X50014608Y-48467273D01*
X52691558Y-46490220D02*
X52569044Y-47890555D01*
X49304497Y-46193891D02*
G75*
G03*
X49274103Y-45973525I-498087J43579D01*
G01*
X50030729Y-45388665D02*
G75*
G03*
X49274104Y-45973526I-288924J-408071D01*
G01*
X49113785Y-47805966D02*
G75*
G03*
X49181984Y-47594227I-429880J255312D01*
G01*
X49113785Y-47805966D02*
G75*
G03*
X49757357Y-48513325I429899J-255316D01*
G01*
X50014608Y-48467273D02*
G75*
G03*
X49757357Y-48513327I-43576J-498106D01*
G01*
X50030730Y-45388664D02*
G75*
G03*
X50276076Y-45478689I288926J408080D01*
G01*
X51842812Y-48695782D02*
G75*
G03*
X51597467Y-48605757I-288926J-408080D01*
G01*
X51858933Y-45617171D02*
G75*
G03*
X52116184Y-45571119I43577J498107D01*
G01*
X52759752Y-46278478D02*
G75*
G03*
X52116185Y-45571122I-429893J255318D01*
G01*
X52759757Y-46278481D02*
G75*
G03*
X52691558Y-46490219I430241J-255428D01*
G01*
X51842813Y-48695781D02*
G75*
G03*
X52599439Y-48110921I288924J408071D01*
G01*
X52569032Y-47890554D02*
G75*
G03*
X52599439Y-48110921I498621J-43480D01*
G01*
%TO.C,LED3*%
X68159493Y-49254543D02*
X68282007Y-47854208D01*
X69253585Y-47139007D02*
X70836442Y-47277489D01*
X70574975Y-50266072D02*
X68992117Y-50127590D01*
X71669067Y-48150537D02*
X71546553Y-49550872D01*
X68282006Y-47854208D02*
G75*
G03*
X68251612Y-47633842I-498087J43579D01*
G01*
X69008238Y-47048982D02*
G75*
G03*
X68251613Y-47633843I-288924J-408071D01*
G01*
X68091294Y-49466283D02*
G75*
G03*
X68159493Y-49254544I-429880J255312D01*
G01*
X68091294Y-49466283D02*
G75*
G03*
X68734866Y-50173642I429899J-255316D01*
G01*
X68992117Y-50127590D02*
G75*
G03*
X68734866Y-50173644I-43576J-498106D01*
G01*
X69008239Y-47048981D02*
G75*
G03*
X69253585Y-47139006I288926J408080D01*
G01*
X70820321Y-50356099D02*
G75*
G03*
X70574976Y-50266074I-288926J-408080D01*
G01*
X70836442Y-47277488D02*
G75*
G03*
X71093693Y-47231436I43577J498107D01*
G01*
X71737261Y-47938795D02*
G75*
G03*
X71093694Y-47231439I-429893J255318D01*
G01*
X71737266Y-47938798D02*
G75*
G03*
X71669067Y-48150536I430241J-255428D01*
G01*
X70820322Y-50356098D02*
G75*
G03*
X71576948Y-49771238I288924J408071D01*
G01*
X71546541Y-49550871D02*
G75*
G03*
X71576948Y-49771238I498621J-43480D01*
G01*
%TO.C,LED19*%
X27383615Y-117350244D02*
X27261101Y-118750579D01*
X26289523Y-119465780D02*
X24706666Y-119327298D01*
X24968133Y-116338715D02*
X26550991Y-116477197D01*
X23874041Y-118454250D02*
X23996555Y-117053915D01*
X27261102Y-118750579D02*
G75*
G03*
X27291496Y-118970945I498087J-43579D01*
G01*
X26534870Y-119555805D02*
G75*
G03*
X27291495Y-118970944I288924J408071D01*
G01*
X27451814Y-117138504D02*
G75*
G03*
X27383615Y-117350243I429880J-255312D01*
G01*
X27451814Y-117138504D02*
G75*
G03*
X26808242Y-116431145I-429899J255316D01*
G01*
X26550991Y-116477197D02*
G75*
G03*
X26808242Y-116431143I43576J498106D01*
G01*
X26534869Y-119555806D02*
G75*
G03*
X26289523Y-119465781I-288926J-408080D01*
G01*
X24722787Y-116248688D02*
G75*
G03*
X24968132Y-116338713I288926J408080D01*
G01*
X24706666Y-119327299D02*
G75*
G03*
X24449415Y-119373351I-43577J-498107D01*
G01*
X23805847Y-118665992D02*
G75*
G03*
X24449414Y-119373348I429893J-255318D01*
G01*
X23805842Y-118665989D02*
G75*
G03*
X23874041Y-118454251I-430241J255428D01*
G01*
X24722786Y-116248689D02*
G75*
G03*
X23966160Y-116833549I-288924J-408071D01*
G01*
X23996567Y-117053916D02*
G75*
G03*
X23966160Y-116833549I-498621J43480D01*
G01*
%TO.C,LED9*%
X88100757Y-78909699D02*
X87978243Y-80310034D01*
X87006665Y-81025235D02*
X85423808Y-80886753D01*
X85685275Y-77898170D02*
X87268133Y-78036652D01*
X84591183Y-80013705D02*
X84713697Y-78613370D01*
X87978244Y-80310034D02*
G75*
G03*
X88008638Y-80530400I498087J-43579D01*
G01*
X87252012Y-81115260D02*
G75*
G03*
X88008637Y-80530399I288924J408071D01*
G01*
X88168956Y-78697959D02*
G75*
G03*
X88100757Y-78909698I429880J-255312D01*
G01*
X88168956Y-78697959D02*
G75*
G03*
X87525384Y-77990600I-429899J255316D01*
G01*
X87268133Y-78036652D02*
G75*
G03*
X87525384Y-77990598I43576J498106D01*
G01*
X87252011Y-81115261D02*
G75*
G03*
X87006665Y-81025236I-288926J-408080D01*
G01*
X85439929Y-77808143D02*
G75*
G03*
X85685274Y-77898168I288926J408080D01*
G01*
X85423808Y-80886754D02*
G75*
G03*
X85166557Y-80932806I-43577J-498107D01*
G01*
X84522989Y-80225447D02*
G75*
G03*
X85166556Y-80932803I429893J-255318D01*
G01*
X84522984Y-80225444D02*
G75*
G03*
X84591183Y-80013706I-430241J255428D01*
G01*
X85439928Y-77808144D02*
G75*
G03*
X84683302Y-78393004I-288924J-408071D01*
G01*
X84713709Y-78613371D02*
G75*
G03*
X84683302Y-78393004I-498621J43480D01*
G01*
%TO.C,LED36*%
X166097499Y-143060226D02*
X166097499Y-144465910D01*
X165191952Y-145263068D02*
X163603048Y-145263068D01*
X163603048Y-142263069D02*
X165191953Y-142263069D01*
X162697501Y-144465910D02*
X162697501Y-143060226D01*
X166097500Y-144465910D02*
G75*
G03*
X166146985Y-144682788I499989J-2D01*
G01*
X165444211Y-145331367D02*
G75*
G03*
X166146983Y-144682787I252259J431700D01*
G01*
X166146984Y-142843348D02*
G75*
G03*
X166097499Y-143060225I450505J-216876D01*
G01*
X166146982Y-142843347D02*
G75*
G03*
X165444211Y-142194771I-450513J216877D01*
G01*
X165191953Y-142263069D02*
G75*
G03*
X165444211Y-142194770I-3J500009D01*
G01*
X165444211Y-145331367D02*
G75*
G03*
X165191952Y-145263068I-252261J-431710D01*
G01*
X163350789Y-142194769D02*
G75*
G03*
X163603047Y-142263068I252261J431710D01*
G01*
X163603048Y-145263069D02*
G75*
G03*
X163350790Y-145331367I2J-500010D01*
G01*
X162648020Y-144682790D02*
G75*
G03*
X163350789Y-145331365I450510J-216879D01*
G01*
X162648016Y-144682788D02*
G75*
G03*
X162697501Y-144465911I-450866J216959D01*
G01*
X163350789Y-142194769D02*
G75*
G03*
X162648016Y-142843348I-252259J-431700D01*
G01*
X162697513Y-143060226D02*
G75*
G03*
X162648016Y-142843348I-500513J-143D01*
G01*
%TO.C,LED20*%
X137522499Y-143060226D02*
X137522499Y-144465910D01*
X136616952Y-145263068D02*
X135028048Y-145263068D01*
X135028048Y-142263069D02*
X136616953Y-142263069D01*
X134122501Y-144465910D02*
X134122501Y-143060226D01*
X137522500Y-144465910D02*
G75*
G03*
X137571985Y-144682788I499989J-2D01*
G01*
X136869211Y-145331367D02*
G75*
G03*
X137571983Y-144682787I252259J431700D01*
G01*
X137571984Y-142843348D02*
G75*
G03*
X137522499Y-143060225I450505J-216876D01*
G01*
X137571982Y-142843347D02*
G75*
G03*
X136869211Y-142194771I-450513J216877D01*
G01*
X136616953Y-142263069D02*
G75*
G03*
X136869211Y-142194770I-3J500009D01*
G01*
X136869211Y-145331367D02*
G75*
G03*
X136616952Y-145263068I-252261J-431710D01*
G01*
X134775789Y-142194769D02*
G75*
G03*
X135028047Y-142263068I252261J431710D01*
G01*
X135028048Y-145263069D02*
G75*
G03*
X134775790Y-145331367I2J-500010D01*
G01*
X134073020Y-144682790D02*
G75*
G03*
X134775789Y-145331365I450510J-216879D01*
G01*
X134073016Y-144682788D02*
G75*
G03*
X134122501Y-144465911I-450866J216959D01*
G01*
X134775789Y-142194769D02*
G75*
G03*
X134073016Y-142843348I-252259J-431700D01*
G01*
X134122513Y-143060226D02*
G75*
G03*
X134073016Y-142843348I-500513J-143D01*
G01*
%TO.C,LED18*%
X46347928Y-118998249D02*
X46225414Y-120398584D01*
X45253836Y-121113785D02*
X43670979Y-120975303D01*
X43932446Y-117986720D02*
X45515304Y-118125202D01*
X42838354Y-120102255D02*
X42960868Y-118701920D01*
X46225415Y-120398584D02*
G75*
G03*
X46255809Y-120618950I498087J-43579D01*
G01*
X45499183Y-121203810D02*
G75*
G03*
X46255808Y-120618949I288924J408071D01*
G01*
X46416127Y-118786509D02*
G75*
G03*
X46347928Y-118998248I429880J-255312D01*
G01*
X46416127Y-118786509D02*
G75*
G03*
X45772555Y-118079150I-429899J255316D01*
G01*
X45515304Y-118125202D02*
G75*
G03*
X45772555Y-118079148I43576J498106D01*
G01*
X45499182Y-121203811D02*
G75*
G03*
X45253836Y-121113786I-288926J-408080D01*
G01*
X43687100Y-117896693D02*
G75*
G03*
X43932445Y-117986718I288926J408080D01*
G01*
X43670979Y-120975304D02*
G75*
G03*
X43413728Y-121021356I-43577J-498107D01*
G01*
X42770160Y-120313997D02*
G75*
G03*
X43413727Y-121021353I429893J-255318D01*
G01*
X42770155Y-120313994D02*
G75*
G03*
X42838354Y-120102256I-430241J255428D01*
G01*
X43687099Y-117896694D02*
G75*
G03*
X42930473Y-118481554I-288924J-408071D01*
G01*
X42960880Y-118701921D02*
G75*
G03*
X42930473Y-118481554I-498621J43480D01*
G01*
%TO.C,LED42*%
X234483812Y-76953053D02*
X234606326Y-78353388D01*
X233773701Y-79226436D02*
X232190844Y-79364918D01*
X231929377Y-76376335D02*
X233512235Y-76237853D01*
X231219266Y-78649717D02*
X231096752Y-77249382D01*
X234606325Y-78353388D02*
G75*
G03*
X234674524Y-78565128I498088J43575D01*
G01*
X234030953Y-79272489D02*
G75*
G03*
X234674524Y-78565127I213674J452043D01*
G01*
X234514208Y-76732687D02*
G75*
G03*
X234483813Y-76953052I467682J-176786D01*
G01*
X234514205Y-76732686D02*
G75*
G03*
X233757581Y-76147828I-467701J176787D01*
G01*
X233512235Y-76237852D02*
G75*
G03*
X233757580Y-76147827I-43581J498105D01*
G01*
X234030953Y-79272490D02*
G75*
G03*
X233773701Y-79226437I-213675J-452052D01*
G01*
X231672125Y-76330280D02*
G75*
G03*
X231929375Y-76376334I213675J452052D01*
G01*
X232190844Y-79364920D02*
G75*
G03*
X231945499Y-79454944I43580J-498106D01*
G01*
X231188876Y-78870085D02*
G75*
G03*
X231945497Y-79454940I467697J-176789D01*
G01*
X231188869Y-78870082D02*
G75*
G03*
X231219266Y-78649718I-468129J176851D01*
G01*
X231672125Y-76330281D02*
G75*
G03*
X231028553Y-77037642I-213674J-452043D01*
G01*
X231096764Y-77249381D02*
G75*
G03*
X231028553Y-77037642I-498596J-43765D01*
G01*
%TO.C,LED15*%
X105417949Y-99547525D02*
X105295435Y-100947860D01*
X104323857Y-101663061D02*
X102741000Y-101524579D01*
X103002467Y-98535996D02*
X104585325Y-98674478D01*
X101908375Y-100651531D02*
X102030889Y-99251196D01*
X105295436Y-100947860D02*
G75*
G03*
X105325830Y-101168226I498087J-43579D01*
G01*
X104569204Y-101753086D02*
G75*
G03*
X105325829Y-101168225I288924J408071D01*
G01*
X105486148Y-99335785D02*
G75*
G03*
X105417949Y-99547524I429880J-255312D01*
G01*
X105486148Y-99335785D02*
G75*
G03*
X104842576Y-98628426I-429899J255316D01*
G01*
X104585325Y-98674478D02*
G75*
G03*
X104842576Y-98628424I43576J498106D01*
G01*
X104569203Y-101753087D02*
G75*
G03*
X104323857Y-101663062I-288926J-408080D01*
G01*
X102757121Y-98445969D02*
G75*
G03*
X103002466Y-98535994I288926J408080D01*
G01*
X102741000Y-101524580D02*
G75*
G03*
X102483749Y-101570632I-43577J-498107D01*
G01*
X101840181Y-100863273D02*
G75*
G03*
X102483748Y-101570629I429893J-255318D01*
G01*
X101840176Y-100863270D02*
G75*
G03*
X101908375Y-100651532I-430241J255428D01*
G01*
X102757120Y-98445970D02*
G75*
G03*
X102000494Y-99030830I-288924J-408071D01*
G01*
X102030901Y-99251197D02*
G75*
G03*
X102000494Y-99030830I-498621J43480D01*
G01*
%TO.C,LED28*%
X148410001Y-91443412D02*
X148410001Y-90037728D01*
X149315548Y-89240570D02*
X150904452Y-89240570D01*
X150904452Y-92240569D02*
X149315547Y-92240569D01*
X151809999Y-90037728D02*
X151809999Y-91443412D01*
X148410000Y-90037728D02*
G75*
G03*
X148360515Y-89820850I-499989J2D01*
G01*
X149063289Y-89172271D02*
G75*
G03*
X148360517Y-89820851I-252259J-431700D01*
G01*
X148360516Y-91660290D02*
G75*
G03*
X148410001Y-91443413I-450505J216876D01*
G01*
X148360518Y-91660291D02*
G75*
G03*
X149063289Y-92308867I450513J-216877D01*
G01*
X149315547Y-92240569D02*
G75*
G03*
X149063289Y-92308868I3J-500009D01*
G01*
X149063289Y-89172271D02*
G75*
G03*
X149315548Y-89240570I252261J431710D01*
G01*
X151156711Y-92308869D02*
G75*
G03*
X150904453Y-92240570I-252261J-431710D01*
G01*
X150904452Y-89240569D02*
G75*
G03*
X151156710Y-89172271I-2J500010D01*
G01*
X151859480Y-89820848D02*
G75*
G03*
X151156711Y-89172273I-450510J216879D01*
G01*
X151859484Y-89820850D02*
G75*
G03*
X151809999Y-90037727I450866J-216959D01*
G01*
X151156711Y-92308869D02*
G75*
G03*
X151859484Y-91660290I252259J431700D01*
G01*
X151809987Y-91443412D02*
G75*
G03*
X151859484Y-91660290I500513J143D01*
G01*
%TO.C,LED33*%
X190696555Y-52871506D02*
X190574041Y-51471171D01*
X191406666Y-50598123D02*
X192989523Y-50459641D01*
X193250990Y-53448224D02*
X191668132Y-53586706D01*
X193961101Y-51174842D02*
X194083615Y-52575177D01*
X190574042Y-51471171D02*
G75*
G03*
X190505843Y-51259431I-498088J-43575D01*
G01*
X191149414Y-50552070D02*
G75*
G03*
X190505843Y-51259432I-213674J-452043D01*
G01*
X190666159Y-53091872D02*
G75*
G03*
X190696554Y-52871507I-467682J176786D01*
G01*
X190666162Y-53091873D02*
G75*
G03*
X191422786Y-53676731I467701J-176787D01*
G01*
X191668132Y-53586707D02*
G75*
G03*
X191422787Y-53676732I43581J-498105D01*
G01*
X191149414Y-50552069D02*
G75*
G03*
X191406666Y-50598122I213675J452052D01*
G01*
X193508242Y-53494279D02*
G75*
G03*
X193250992Y-53448225I-213675J-452052D01*
G01*
X192989523Y-50459639D02*
G75*
G03*
X193234868Y-50369615I-43580J498106D01*
G01*
X193991491Y-50954474D02*
G75*
G03*
X193234870Y-50369619I-467697J176789D01*
G01*
X193991498Y-50954477D02*
G75*
G03*
X193961101Y-51174841I468129J-176851D01*
G01*
X193508242Y-53494278D02*
G75*
G03*
X194151814Y-52786917I213674J452043D01*
G01*
X194083603Y-52575178D02*
G75*
G03*
X194151814Y-52786917I498596J43765D01*
G01*
%TO.C,LED27*%
X129360001Y-91443412D02*
X129360001Y-90037728D01*
X130265548Y-89240570D02*
X131854452Y-89240570D01*
X131854452Y-92240569D02*
X130265547Y-92240569D01*
X132759999Y-90037728D02*
X132759999Y-91443412D01*
X129360000Y-90037728D02*
G75*
G03*
X129310515Y-89820850I-499989J2D01*
G01*
X130013289Y-89172271D02*
G75*
G03*
X129310517Y-89820851I-252259J-431700D01*
G01*
X129310516Y-91660290D02*
G75*
G03*
X129360001Y-91443413I-450505J216876D01*
G01*
X129310518Y-91660291D02*
G75*
G03*
X130013289Y-92308867I450513J-216877D01*
G01*
X130265547Y-92240569D02*
G75*
G03*
X130013289Y-92308868I3J-500009D01*
G01*
X130013289Y-89172271D02*
G75*
G03*
X130265548Y-89240570I252261J431710D01*
G01*
X132106711Y-92308869D02*
G75*
G03*
X131854453Y-92240570I-252261J-431710D01*
G01*
X131854452Y-89240569D02*
G75*
G03*
X132106710Y-89172271I-2J500010D01*
G01*
X132809480Y-89820848D02*
G75*
G03*
X132106711Y-89172273I-450510J216879D01*
G01*
X132809484Y-89820850D02*
G75*
G03*
X132759999Y-90037727I450866J-216959D01*
G01*
X132106711Y-92308869D02*
G75*
G03*
X132809484Y-91660290I252259J431700D01*
G01*
X132759987Y-91443412D02*
G75*
G03*
X132809484Y-91660290I500513J143D01*
G01*
%TO.C,LED35*%
X198189111Y-99251196D02*
X198311625Y-100651531D01*
X197479000Y-101524579D02*
X195896143Y-101663061D01*
X195634676Y-98674478D02*
X197217534Y-98535996D01*
X194924565Y-100947860D02*
X194802051Y-99547525D01*
X198311624Y-100651531D02*
G75*
G03*
X198379823Y-100863271I498088J43575D01*
G01*
X197736252Y-101570632D02*
G75*
G03*
X198379823Y-100863270I213674J452043D01*
G01*
X198219507Y-99030830D02*
G75*
G03*
X198189112Y-99251195I467682J-176786D01*
G01*
X198219504Y-99030829D02*
G75*
G03*
X197462880Y-98445971I-467701J176787D01*
G01*
X197217534Y-98535995D02*
G75*
G03*
X197462879Y-98445970I-43581J498105D01*
G01*
X197736252Y-101570633D02*
G75*
G03*
X197479000Y-101524580I-213675J-452052D01*
G01*
X195377424Y-98628423D02*
G75*
G03*
X195634674Y-98674477I213675J452052D01*
G01*
X195896143Y-101663063D02*
G75*
G03*
X195650798Y-101753087I43580J-498106D01*
G01*
X194894175Y-101168228D02*
G75*
G03*
X195650796Y-101753083I467697J-176789D01*
G01*
X194894168Y-101168225D02*
G75*
G03*
X194924565Y-100947861I-468129J176851D01*
G01*
X195377424Y-98628424D02*
G75*
G03*
X194733852Y-99335785I-213674J-452043D01*
G01*
X194802063Y-99547524D02*
G75*
G03*
X194733852Y-99335785I-498596J-43765D01*
G01*
%TO.C,LED50*%
X272438830Y-73632419D02*
X272561344Y-75032754D01*
X271728719Y-75905802D02*
X270145862Y-76044284D01*
X269884395Y-73055701D02*
X271467253Y-72917219D01*
X269174284Y-75329083D02*
X269051770Y-73928748D01*
X272561343Y-75032754D02*
G75*
G03*
X272629542Y-75244494I498088J43575D01*
G01*
X271985971Y-75951855D02*
G75*
G03*
X272629542Y-75244493I213674J452043D01*
G01*
X272469226Y-73412053D02*
G75*
G03*
X272438831Y-73632418I467682J-176786D01*
G01*
X272469223Y-73412052D02*
G75*
G03*
X271712599Y-72827194I-467701J176787D01*
G01*
X271467253Y-72917218D02*
G75*
G03*
X271712598Y-72827193I-43581J498105D01*
G01*
X271985971Y-75951856D02*
G75*
G03*
X271728719Y-75905803I-213675J-452052D01*
G01*
X269627143Y-73009646D02*
G75*
G03*
X269884393Y-73055700I213675J452052D01*
G01*
X270145862Y-76044286D02*
G75*
G03*
X269900517Y-76134310I43580J-498106D01*
G01*
X269143894Y-75549451D02*
G75*
G03*
X269900515Y-76134306I467697J-176789D01*
G01*
X269143887Y-75549448D02*
G75*
G03*
X269174284Y-75329084I-468129J176851D01*
G01*
X269627143Y-73009647D02*
G75*
G03*
X268983571Y-73717008I-213674J-452043D01*
G01*
X269051782Y-73928747D02*
G75*
G03*
X268983571Y-73717008I-498596J-43765D01*
G01*
%TO.C,LED30*%
X129360001Y-110493412D02*
X129360001Y-109087728D01*
X130265548Y-108290570D02*
X131854452Y-108290570D01*
X131854452Y-111290569D02*
X130265547Y-111290569D01*
X132759999Y-109087728D02*
X132759999Y-110493412D01*
X129360000Y-109087728D02*
G75*
G03*
X129310515Y-108870850I-499989J2D01*
G01*
X130013289Y-108222271D02*
G75*
G03*
X129310517Y-108870851I-252259J-431700D01*
G01*
X129310516Y-110710290D02*
G75*
G03*
X129360001Y-110493413I-450505J216876D01*
G01*
X129310518Y-110710291D02*
G75*
G03*
X130013289Y-111358867I450513J-216877D01*
G01*
X130265547Y-111290569D02*
G75*
G03*
X130013289Y-111358868I3J-500009D01*
G01*
X130013289Y-108222271D02*
G75*
G03*
X130265548Y-108290570I252261J431710D01*
G01*
X132106711Y-111358869D02*
G75*
G03*
X131854453Y-111290570I-252261J-431710D01*
G01*
X131854452Y-108290569D02*
G75*
G03*
X132106710Y-108222271I-2J500010D01*
G01*
X132809480Y-108870848D02*
G75*
G03*
X132106711Y-108222273I-450510J216879D01*
G01*
X132809484Y-108870850D02*
G75*
G03*
X132759999Y-109087727I450866J-216959D01*
G01*
X132106711Y-111358869D02*
G75*
G03*
X132809484Y-110710290I252259J431700D01*
G01*
X132759987Y-110493412D02*
G75*
G03*
X132809484Y-110710290I500513J143D01*
G01*
%TO.C,LED10*%
X107078266Y-80570016D02*
X106955752Y-81970351D01*
X105984174Y-82685552D02*
X104401317Y-82547070D01*
X104662784Y-79558487D02*
X106245642Y-79696969D01*
X103568692Y-81674022D02*
X103691206Y-80273687D01*
X106955753Y-81970351D02*
G75*
G03*
X106986147Y-82190717I498087J-43579D01*
G01*
X106229521Y-82775577D02*
G75*
G03*
X106986146Y-82190716I288924J408071D01*
G01*
X107146465Y-80358276D02*
G75*
G03*
X107078266Y-80570015I429880J-255312D01*
G01*
X107146465Y-80358276D02*
G75*
G03*
X106502893Y-79650917I-429899J255316D01*
G01*
X106245642Y-79696969D02*
G75*
G03*
X106502893Y-79650915I43576J498106D01*
G01*
X106229520Y-82775578D02*
G75*
G03*
X105984174Y-82685553I-288926J-408080D01*
G01*
X104417438Y-79468460D02*
G75*
G03*
X104662783Y-79558485I288926J408080D01*
G01*
X104401317Y-82547071D02*
G75*
G03*
X104144066Y-82593123I-43577J-498107D01*
G01*
X103500498Y-81885764D02*
G75*
G03*
X104144065Y-82593120I429893J-255318D01*
G01*
X103500493Y-81885761D02*
G75*
G03*
X103568692Y-81674023I-430241J255428D01*
G01*
X104417437Y-79468461D02*
G75*
G03*
X103660811Y-80053321I-288924J-408071D01*
G01*
X103691218Y-80273688D02*
G75*
G03*
X103660811Y-80053321I-498621J43480D01*
G01*
%TD*%
M02*
